campagnol-signal.ufo
<glyph name="quotesingle" format="1">
  <advance width="255"/>
  <unicode hex="0027"/>
  <outline>
    <contour>
      <point x="55" y="754" type="curve" smooth="yes"/>
      <point x="42.5" y="780"/>
      <point x="67.9844" y="816"/>
      <point x="100" y="816" type="curve" smooth="yes"/>
      <point x="131.01" y="816"/>
      <point x="165.838" y="789.59"/>
      <point x="136" y="714" type="curve" smooth="yes"/>
      <point x="128.5" y="695"/>
      <point x="98.0547" y="644"/>
      <point x="59" y="644" type="curve" smooth="yes"/>
      <point x="43.4919" y="644"/>
      <point x="37.1767" y="658.738"/>
      <point x="56" y="674" type="curve" smooth="yes"/>
      <point x="93" y="704"/>
      <point x="67.265" y="728.489"/>
    </contour>
  </outline>
</glyph>
<glyph name="comma" format="1">
  <advance width="255"/>
  <unicode hex="002c"/>
  <outline>
    <contour>
      <point x="32" y="58" type="curve" smooth="yes"/>
      <point x="32" y="90.0156"/>
      <point x="53.4844" y="116"/>
      <point x="85.5" y="116" type="curve" smooth="yes"/>
      <point x="117.516" y="116"/>
      <point x="138.5" y="91.5156"/>
      <point x="138.5" y="59.5" type="curve" smooth="yes"/>
      <point x="138.5" y="44.1133"/>
      <point x="137" y="23.5"/>
      <point x="125.5" y="-9" type="curve" smooth="yes"/>
      <point x="98.8135" y="-84.418"/>
      <point x="32.5547" y="-105"/>
      <point x="-6.5" y="-105" type="curve" smooth="yes"/>
      <point x="-29.7061" y="-105"/>
      <point x="-35" y="-73"/>
      <point x="-12.5" y="-64" type="curve" smooth="yes"/>
      <point x="27.9551" y="-47.8174"/>
      <point x="32.6699" y="-14.1475"/>
      <point x="32.5" y="-10.5" type="curve" smooth="yes"/>
      <point x="31.5" y="11"/>
      <point x="32" y="25.9844"/>
    </contour>
  </outline>
</glyph>
<glyph name="period" format="1">
  <advance width="378"/>
  <unicode hex="002e"/>
  <outline>
    <contour>
      <point x="32" y="58" type="curve" smooth="yes"/>
      <point x="32" y="90.0156"/>
      <point x="57.9844" y="116"/>
      <point x="90" y="116" type="curve" smooth="yes"/>
      <point x="122.016" y="116"/>
      <point x="148" y="90.0156"/>
      <point x="148" y="58" type="curve" smooth="yes"/>
      <point x="148" y="25.9844"/>
      <point x="122.016" y="0"/>
      <point x="90" y="0" type="curve" smooth="yes"/>
      <point x="57.9844" y="0"/>
      <point x="32" y="25.9844"/>
    </contour>
  </outline>
</glyph>
<glyph name="zero" format="1">
  <advance width="600"/>
  <unicode hex="0030"/>
  <outline>
    <contour>
      <point x="300" y="759" type="curve" smooth="yes"/>
      <point x="400.01" y="759"/>
      <point x="471.92" y="709.45"/>
      <point x="504.98" y="637.38" type="curve" smooth="yes"/>
      <point x="538.04" y="565.31"/>
      <point x="542" y="476.87"/>
      <point x="542" y="379.5" type="curve" smooth="yes"/>
      <point x="542" y="282.13"/>
      <point x="538.04" y="193.72"/>
      <point x="504.98" y="121.65" type="curve" smooth="yes"/>
      <point x="471.92" y="49.5801"/>
      <point x="400.01" y="0"/>
      <point x="300" y="0" type="curve" smooth="yes"/>
      <point x="199.99" y="0"/>
      <point x="128.08" y="49.5801"/>
      <point x="95.0195" y="121.65" type="curve" smooth="yes"/>
      <point x="61.9697" y="193.72"/>
      <point x="58" y="282.13"/>
      <point x="58" y="379.5" type="curve" smooth="yes"/>
      <point x="58" y="476.87"/>
      <point x="61.9697" y="565.31"/>
      <point x="95.0195" y="637.38" type="curve" smooth="yes"/>
      <point x="128.08" y="709.45"/>
      <point x="199.99" y="759"/>
    </contour>
    <contour>
      <point x="300" y="671" type="curve" smooth="yes"/>
      <point x="224.01" y="671"/>
      <point x="196.92" y="648.51"/>
      <point x="174.98" y="600.67" type="curve" smooth="yes"/>
      <point x="153.04" y="552.83"/>
      <point x="146" y="473.5"/>
      <point x="146" y="379.5" type="curve" smooth="yes"/>
      <point x="146" y="285.5"/>
      <point x="153.04" y="206.17"/>
      <point x="174.98" y="158.33" type="curve" smooth="yes"/>
      <point x="196.92" y="110.49"/>
      <point x="224.01" y="88"/>
      <point x="300" y="88" type="curve" smooth="yes"/>
      <point x="375.99" y="88"/>
      <point x="403.08" y="110.49"/>
      <point x="425.02" y="158.33" type="curve" smooth="yes"/>
      <point x="446.97" y="206.17"/>
      <point x="454" y="285.5"/>
      <point x="454" y="379.5" type="curve" smooth="yes"/>
      <point x="454" y="473.5"/>
      <point x="446.97" y="552.83"/>
      <point x="425.02" y="600.67" type="curve" smooth="yes"/>
      <point x="403.08" y="648.51"/>
      <point x="375.99" y="671"/>
    </contour>
  </outline>
</glyph>
<glyph name="one" format="1">
  <advance width="350"/>
  <unicode hex="0031"/>
  <outline>
    <contour>
      <point x="256.688" y="748.629" type="curve" smooth="yes"/>
      <point x="257.052" y="748.641"/>
      <point x="257.636" y="748.65"/>
      <point x="258" y="748.65" type="curve" smooth="yes"/>
      <point x="282.288" y="748.65"/>
      <point x="302" y="728.93"/>
      <point x="302" y="704.641" type="curve" smooth="yes"/>
      <point x="302" y="704.629" type="line" smooth="yes"/>
      <point x="302" y="44.6289" type="line" smooth="yes"/>
      <point x="302" y="44.0098" type="line" smooth="yes"/>
      <point x="302" y="19.7207"/>
      <point x="282.288" y="0"/>
      <point x="258" y="0" type="curve" smooth="yes"/>
      <point x="233.712" y="0"/>
      <point x="214" y="19.7207"/>
      <point x="214" y="44.0098" type="curve" smooth="yes"/>
      <point x="214" y="44.6289" type="line" smooth="yes"/>
      <point x="214" y="633.471" type="line" smooth="no"/>
      <point x="101.667" y="577.299" type="line" smooth="yes"/>
      <point x="96.2549" y="574.379"/>
      <point x="86.8828" y="572.01"/>
      <point x="80.7441" y="572.01" type="curve" smooth="yes"/>
      <point x="56.457" y="572.01"/>
      <point x="36.7441" y="591.73"/>
      <point x="36.7441" y="616.02" type="curve" smooth="yes"/>
      <point x="36.7441" y="631.57"/>
      <point x="48.207" y="649.48"/>
      <point x="62.3311" y="655.99" type="curve" smooth="yes"/>
      <point x="238.331" y="743.99" type="line" smooth="yes"/>
      <point x="243.115" y="746.379"/>
      <point x="251.344" y="748.459"/>
    </contour>
  </outline>
</glyph>
<glyph name="two" format="1">
  <advance width="600"/>
  <unicode hex="0032"/>
  <outline>
    <contour>
      <point x="299.68" y="748" type="curve" smooth="yes"/>
      <point x="362.78" y="748"/>
      <point x="415.54" y="729.2"/>
      <point x="449.86" y="691.73" type="curve" smooth="yes"/>
      <point x="484.2" y="654.25"/>
      <point x="496.92" y="603.87"/>
      <point x="497.68" y="550.65" type="curve" smooth="yes"/>
      <point x="498.46" y="495.91"/>
      <point x="482.46" y="450.76"/>
      <point x="459.25" y="413.43" type="curve" smooth="yes"/>
      <point x="436.04" y="376.09"/>
      <point x="407.34" y="345.35"/>
      <point x="378.26" y="308.34" type="curve" smooth="yes"/>
      <point x="335.25" y="253.6"/>
      <point x="253.646" y="156.26"/>
      <point x="196.184" y="88" type="curve" smooth="no"/>
      <point x="497.68" y="88" type="line" smooth="yes"/>
      <point x="509.311" y="88.1602"/>
      <point x="520.92" y="83.4902"/>
      <point x="529.2" y="75.3301" type="curve" smooth="yes"/>
      <point x="537.479" y="67.1699"/>
      <point x="542.311" y="55.6201"/>
      <point x="542.311" y="44" type="curve" smooth="yes"/>
      <point x="542.311" y="32.3701"/>
      <point x="537.479" y="20.8203"/>
      <point x="529.2" y="12.6602" type="curve" smooth="yes"/>
      <point x="520.92" y="4.5"/>
      <point x="509.311" y="-0.169922"/>
      <point x="497.68" y="0" type="curve" smooth="yes"/>
      <point x="101.682" y="0" type="line" smooth="yes"/>
      <point x="93.3438" y="0"/>
      <point x="85.0264" y="2.42969"/>
      <point x="77.9971" y="6.91992" type="curve" smooth="yes"/>
      <point x="70.9795" y="11.4004"/>
      <point x="65.2715" y="17.9297"/>
      <point x="61.7715" y="25.4902" type="curve" smooth="yes"/>
      <point x="58.2637" y="33.0498"/>
      <point x="56.9658" y="41.6201"/>
      <point x="58.0762" y="49.8799" type="curve" smooth="yes"/>
      <point x="59.1973" y="58.1396"/>
      <point x="62.709" y="66.0596"/>
      <point x="68.0977" y="72.4297" type="curve" smooth="yes"/>
      <point x="68.0977" y="72.4297"/>
      <point x="250.489" y="288.09"/>
      <point x="309.1" y="362.689" type="curve" smooth="yes"/>
      <point x="340.521" y="402.68"/>
      <point x="367.479" y="432.53"/>
      <point x="384.479" y="459.87" type="curve" smooth="yes"/>
      <point x="401.47" y="487.21"/>
      <point x="410.229" y="510.81"/>
      <point x="409.68" y="549.38" type="curve" smooth="yes"/>
      <point x="409.11" y="589.46"/>
      <point x="399.85" y="616.09"/>
      <point x="385" y="632.29" type="curve" smooth="yes"/>
      <point x="370.161" y="648.49"/>
      <point x="346.58" y="667.78"/>
      <point x="299.68" y="667.78" type="curve" smooth="yes"/>
      <point x="213.146" y="667.78"/>
      <point x="158.882" y="589.6"/>
      <point x="158.882" y="589.6" type="curve" smooth="no"/>
      <point x="152.039" y="580.2"/>
      <point x="141.335" y="573.71"/>
      <point x="129.841" y="571.98" type="curve" smooth="yes"/>
      <point x="118.345" y="570.26"/>
      <point x="106.201" y="573.32"/>
      <point x="96.9072" y="580.3" type="curve" smooth="yes"/>
      <point x="87.6016" y="587.27"/>
      <point x="81.2646" y="598.07"/>
      <point x="79.7031" y="609.58" type="curve" smooth="yes"/>
      <point x="78.1426" y="621.1"/>
      <point x="81.375" y="633.2"/>
      <point x="88.4805" y="642.4" type="curve" smooth="no"/>
      <point x="88.4805" y="642.4"/>
      <point x="166.219" y="748"/>
    </contour>
  </outline>
</glyph>
<glyph name="three" format="1">
  <advance width="600"/>
  <unicode hex="0033"/>
  <outline>
    <contour>
      <point x="296.163" y="763.46" type="curve" smooth="yes"/>
      <point x="396.933" y="764.01"/>
      <point x="485.692" y="697.95"/>
      <point x="498.013" y="599.39" type="curve" smooth="yes"/>
      <point x="505.021" y="543.3"/>
      <point x="486.562" y="491.76"/>
      <point x="456.003" y="452.71" type="curve" smooth="yes"/>
      <point x="438.231" y="430.01"/>
      <point x="413.343" y="422.6"/>
      <point x="413.343" y="422.6" type="curve" smooth="no"/>
      <point x="413.343" y="422.6"/>
      <point x="445.321" y="413.33"/>
      <point x="461.923" y="400.57" type="curve" smooth="yes"/>
      <point x="505.883" y="366.75"/>
      <point x="542.353" y="311.59"/>
      <point x="542.353" y="241.93" type="curve" smooth="yes"/>
      <point x="542.353" y="178.13"/>
      <point x="522.611" y="118.07"/>
      <point x="480.853" y="73.7998" type="curve" smooth="yes"/>
      <point x="439.103" y="29.5303"/>
      <point x="377.111" y="3.4502"/>
      <point x="302.383" y="0" type="curve" smooth="yes"/>
      <point x="151.303" y="-6.98047"/>
      <point x="67.9131" y="93.5703"/>
      <point x="67.9131" y="93.5703" type="curve" smooth="no"/>
      <point x="60.3926" y="102.54"/>
      <point x="56.6826" y="114.61"/>
      <point x="57.8623" y="126.26" type="curve" smooth="yes"/>
      <point x="59.043" y="137.92"/>
      <point x="65.0928" y="149"/>
      <point x="74.2715" y="156.28" type="curve" smooth="yes"/>
      <point x="83.4424" y="163.561"/>
      <point x="95.6025" y="166.96"/>
      <point x="107.213" y="165.47" type="curve" smooth="yes"/>
      <point x="118.833" y="163.99"/>
      <point x="129.753" y="157.65"/>
      <point x="136.793" y="148.29" type="curve" smooth="no"/>
      <point x="136.793" y="148.29"/>
      <point x="185.401" y="82.6797"/>
      <point x="298.333" y="87.8896" type="curve" smooth="yes"/>
      <point x="355.593" y="90.54"/>
      <point x="392.603" y="108.45"/>
      <point x="416.853" y="134.16" type="curve" smooth="yes"/>
      <point x="441.103" y="159.87"/>
      <point x="454.353" y="195.73"/>
      <point x="454.353" y="241.93" type="curve" smooth="yes"/>
      <point x="454.353" y="282.26"/>
      <point x="435.833" y="309.64"/>
      <point x="408.281" y="330.82" type="curve" smooth="yes"/>
      <point x="382.062" y="351"/>
      <point x="356.031" y="361.4"/>
      <point x="325.442" y="362.82" type="curve" smooth="no"/>
      <point x="297.393" y="362.82"/>
      <point x="268.333" y="362.93"/>
      <point x="247.133" y="362.93" type="curve" smooth="yes"/>
      <point x="225.953" y="362.93"/>
      <point x="217.713" y="367.43"/>
      <point x="209.442" y="375.59" type="curve" smooth="yes"/>
      <point x="201.151" y="383.75"/>
      <point x="196.321" y="395.3"/>
      <point x="196.321" y="406.93" type="curve" smooth="yes"/>
      <point x="196.321" y="418.55"/>
      <point x="201.151" y="430.1"/>
      <point x="209.442" y="438.26" type="curve" smooth="yes"/>
      <point x="217.713" y="446.42"/>
      <point x="229.321" y="451.09"/>
      <point x="240.953" y="450.93" type="curve" smooth="yes"/>
      <point x="274.923" y="450.93" type="line" smooth="yes"/>
      <point x="349.253" y="450.93"/>
      <point x="369.281" y="484.66"/>
      <point x="386.703" y="506.92" type="curve" smooth="yes"/>
      <point x="405.643" y="531.13"/>
      <point x="414.683" y="556.59"/>
      <point x="410.692" y="588.5" type="curve" smooth="yes"/>
      <point x="402.992" y="650.08"/>
      <point x="344.361" y="696.03"/>
      <point x="265.913" y="678.59" type="curve" smooth="yes"/>
      <point x="224.503" y="669.39"/>
      <point x="198.981" y="645.22"/>
      <point x="183.231" y="630.54" type="curve" smooth="yes"/>
      <point x="167.503" y="615.85"/>
      <point x="163.713" y="607.27"/>
      <point x="163.713" y="607.27" type="curve" smooth="no"/>
      <point x="158.562" y="596.96"/>
      <point x="149.202" y="588.84"/>
      <point x="138.281" y="585.2" type="curve" smooth="yes"/>
      <point x="127.343" y="581.55"/>
      <point x="114.963" y="582.42"/>
      <point x="104.651" y="587.57" type="curve" smooth="yes"/>
      <point x="94.3525" y="592.72"/>
      <point x="86.2627" y="602.11"/>
      <point x="82.623" y="613.04" type="curve" smooth="yes"/>
      <point x="78.9814" y="623.97"/>
      <point x="79.833" y="636.32"/>
      <point x="84.9932" y="646.62" type="curve" smooth="no"/>
      <point x="84.9932" y="646.62"/>
      <point x="97.7021" y="671.04"/>
      <point x="123.223" y="694.85" type="curve" smooth="yes"/>
      <point x="165.053" y="733.17"/>
      <point x="232.603" y="761.13"/>
      <point x="291.343" y="763.4" type="curve" smooth="yes"/>
      <point x="292.953" y="763.44"/>
      <point x="294.553" y="763.46"/>
    </contour>
  </outline>
</glyph>
<glyph name="four" format="1">
  <advance width="600"/>
  <unicode hex="0034"/>
  <outline>
    <contour>
      <point x="396" y="758" type="curve" smooth="yes"/>
      <point x="396.36" y="758.01"/>
      <point x="396.951" y="758.02"/>
      <point x="397.31" y="758.02" type="curve" smooth="yes"/>
      <point x="421.6" y="758.02"/>
      <point x="441.31" y="738.3"/>
      <point x="441.31" y="714.01" type="curve" smooth="yes"/>
      <point x="441.31" y="714" type="line" smooth="yes"/>
      <point x="442.695" y="264.63" type="line" smooth="no"/>
      <point x="508.695" y="264.63" type="line" smooth="yes"/>
      <point x="509.325" y="264.63" type="line" smooth="yes"/>
      <point x="533.605" y="264.63"/>
      <point x="553.325" y="244.92"/>
      <point x="553.325" y="220.63" type="curve" smooth="yes"/>
      <point x="553.325" y="196.34"/>
      <point x="533.605" y="176.62"/>
      <point x="509.325" y="176.62" type="curve" smooth="yes"/>
      <point x="509.146" y="176.62"/>
      <point x="508.875" y="176.63"/>
      <point x="508.695" y="176.63" type="curve" smooth="yes"/>
      <point x="442.695" y="176.63" type="line" smooth="no"/>
      <point x="442.695" y="44.6299" type="line" smooth="yes"/>
      <point x="442.695" y="44.0098" type="line" smooth="yes"/>
      <point x="442.695" y="19.7197"/>
      <point x="422.985" y="0"/>
      <point x="398.695" y="0" type="curve" smooth="yes"/>
      <point x="374.405" y="0"/>
      <point x="354.695" y="19.7197"/>
      <point x="354.695" y="44.0098" type="curve" smooth="yes"/>
      <point x="354.695" y="44.6299" type="line" smooth="yes"/>
      <point x="354.695" y="176.63" type="line" smooth="no"/>
      <point x="90.6953" y="176.63" type="line" smooth="yes"/>
      <point x="90.6855" y="176.63" type="line" smooth="yes"/>
      <point x="66.3848" y="176.63"/>
      <point x="46.6748" y="196.34"/>
      <point x="46.6748" y="220.63" type="curve" smooth="yes"/>
      <point x="46.6748" y="227.85"/>
      <point x="50.0254" y="238.515"/>
      <point x="53.8154" y="244.66" type="curve" smooth="yes"/>
      <point x="315.81" y="669.48" type="line" smooth="no"/>
      <point x="360.43" y="738.03" type="line" smooth="yes"/>
      <point x="367.36" y="748.68"/>
      <point x="383.301" y="757.62"/>
    </contour>
    <contour>
      <point x="354" y="586" type="line" smooth="no"/>
      <point x="171.855" y="264.63" type="line" smooth="no"/>
      <point x="354.695" y="264.63" type="line" smooth="no"/>
    </contour>
  </outline>
</glyph>
<glyph name="five" format="1">
  <advance width="600"/>
  <unicode hex="0035"/>
  <outline>
    <contour>
      <point x="178" y="760" type="curve" smooth="yes"/>
      <point x="427.35" y="760" type="line" smooth="yes"/>
      <point x="427.77" y="760" type="line" smooth="yes"/>
      <point x="451.38" y="760"/>
      <point x="470.541" y="740.85"/>
      <point x="470.541" y="717.24" type="curve" smooth="yes"/>
      <point x="470.541" y="693.63"/>
      <point x="451.38" y="674.47"/>
      <point x="427.77" y="674.47" type="curve" smooth="yes"/>
      <point x="427.35" y="674.47" type="line" smooth="yes"/>
      <point x="214.02" y="674.47" type="line" smooth="no"/>
      <point x="184.5" y="503.53" type="line" smooth="no"/>
      <point x="310.39" y="503.53" type="line" smooth="yes"/>
      <point x="378.5" y="503.53"/>
      <point x="436.72" y="475.49"/>
      <point x="474.35" y="430.45" type="curve" smooth="yes"/>
      <point x="511.98" y="385.41"/>
      <point x="529.77" y="325.85"/>
      <point x="529.77" y="262.77" type="curve" smooth="yes"/>
      <point x="529.77" y="131.23"/>
      <point x="429.05" y="0"/>
      <point x="279.23" y="0" type="curve" smooth="yes"/>
      <point x="208.11" y="0"/>
      <point x="156.44" y="22.7998"/>
      <point x="123.9" y="46.9297" type="curve" smooth="yes"/>
      <point x="91.3496" y="71.0498"/>
      <point x="75.3604" y="99.4902"/>
      <point x="75.3604" y="99.4902" type="curve" smooth="no"/>
      <point x="72.5303" y="104.73"/>
      <point x="70.2305" y="113.83"/>
      <point x="70.2305" y="119.79" type="curve" smooth="yes"/>
      <point x="70.2305" y="143.39"/>
      <point x="89.4004" y="162.55"/>
      <point x="113" y="162.55" type="curve" smooth="yes"/>
      <point x="127.09" y="162.55"/>
      <point x="143.95" y="152.49"/>
      <point x="150.64" y="140.08" type="curve" smooth="no"/>
      <point x="150.64" y="140.08"/>
      <point x="155.4" y="130.02"/>
      <point x="174.81" y="115.64" type="curve" smooth="yes"/>
      <point x="194.2" y="101.27"/>
      <point x="225.71" y="85.5303"/>
      <point x="279.23" y="85.5303" type="curve" smooth="yes"/>
      <point x="378.75" y="85.5303"/>
      <point x="444.23" y="174.311"/>
      <point x="444.23" y="262.77" type="curve" smooth="yes"/>
      <point x="444.23" y="309.69"/>
      <point x="430.83" y="349.16"/>
      <point x="408.73" y="375.62" type="curve" smooth="yes"/>
      <point x="386.63" y="402.08"/>
      <point x="356.541" y="418"/>
      <point x="310.39" y="418" type="curve" smooth="yes"/>
      <point x="133.77" y="418" type="line" smooth="yes"/>
      <point x="110.16" y="418.01"/>
      <point x="91" y="437.17"/>
      <point x="91" y="460.77" type="curve" smooth="yes"/>
      <point x="91" y="462.79"/>
      <point x="91.2793" y="466.04"/>
      <point x="91.6211" y="468.02" type="curve" smooth="yes"/>
      <point x="135.85" y="724.49" type="line" smooth="yes"/>
      <point x="139.22" y="744.09"/>
      <point x="158.11" y="760"/>
    </contour>
  </outline>
</glyph>
<glyph name="six" format="1">
  <advance width="546"/>
  <unicode hex="0036"/>
  <outline>
    <contour>
      <point x="286" y="756" type="curve" smooth="yes"/>
      <point x="286.54" y="756.03"/>
      <point x="287.42" y="756.051"/>
      <point x="287.96" y="756.051" type="curve" smooth="yes"/>
      <point x="312.26" y="756.051"/>
      <point x="331.97" y="736.33"/>
      <point x="331.97" y="712.04" type="curve" smooth="yes"/>
      <point x="331.97" y="706.04"/>
      <point x="329.698" y="696.86"/>
      <point x="326.908" y="691.551" type="curve" smooth="yes"/>
      <point x="326.908" y="691.551"/>
      <point x="244.45" y="534.93"/>
      <point x="167.76" y="346.43" type="curve" smooth="yes"/>
      <point x="167.108" y="344.85" type="line" smooth="no"/>
      <point x="166.35" y="343.34" type="line" smooth="yes"/>
      <point x="127.438" y="265.5"/>
      <point x="131.95" y="201.89"/>
      <point x="154.979" y="157.92" type="curve" smooth="yes"/>
      <point x="178" y="113.939"/>
      <point x="219.88" y="88"/>
      <point x="270" y="88" type="curve" smooth="yes"/>
      <point x="327.09" y="88"/>
      <point x="359.979" y="104.01"/>
      <point x="380.99" y="126.36" type="curve" smooth="yes"/>
      <point x="402.01" y="148.71"/>
      <point x="413.06" y="181.08"/>
      <point x="413.06" y="221.37" type="curve" smooth="yes"/>
      <point x="413.06" y="294.8"/>
      <point x="354.49" y="353.37"/>
      <point x="281.06" y="353.37" type="curve" smooth="yes"/>
      <point x="280.43" y="353.37" type="line" smooth="yes"/>
      <point x="256.149" y="353.37"/>
      <point x="236.43" y="373.08"/>
      <point x="236.43" y="397.37" type="curve" smooth="yes"/>
      <point x="236.43" y="421.66"/>
      <point x="256.149" y="441.38"/>
      <point x="280.43" y="441.38" type="curve" smooth="yes"/>
      <point x="280.608" y="441.38"/>
      <point x="280.89" y="441.37"/>
      <point x="281.06" y="441.37" type="curve" smooth="yes"/>
      <point x="402.038" y="441.37"/>
      <point x="501.06" y="342.36"/>
      <point x="501.06" y="221.37" type="curve" smooth="yes"/>
      <point x="501.06" y="164.46"/>
      <point x="484.618" y="108.13"/>
      <point x="445.09" y="66.0996" type="curve" smooth="yes"/>
      <point x="405.578" y="24.0703"/>
      <point x="344.89" y="0"/>
      <point x="270" y="0" type="curve" smooth="yes"/>
      <point x="188.1" y="0"/>
      <point x="114.479" y="45.5498"/>
      <point x="77.0098" y="117.08" type="curve" smooth="yes"/>
      <point x="39.8398" y="188.05"/>
      <point x="38.6396" y="283.03"/>
      <point x="86.5693" y="380.39" type="curve" smooth="no"/>
      <point x="164.67" y="572.26"/>
      <point x="248.46" y="731.46"/>
      <point x="248.46" y="731.46" type="curve" smooth="yes"/>
      <point x="254.809" y="744.37"/>
      <point x="271.62" y="755.36"/>
    </contour>
  </outline>
</glyph>
<glyph name="seven" format="1">
  <advance width="600"/>
  <unicode hex="0037"/>
  <outline>
    <contour>
      <point x="118" y="750" type="line" smooth="yes"/>
      <point x="492" y="750" type="line" smooth="yes"/>
      <point x="516.29" y="749.99"/>
      <point x="536" y="730.28"/>
      <point x="536" y="705.99" type="curve" smooth="yes"/>
      <point x="536" y="700.18"/>
      <point x="533.86" y="691.25"/>
      <point x="531.23" y="686.06" type="curve" smooth="yes"/>
      <point x="196.545" y="24.0498" type="line" smooth="yes"/>
      <point x="189.821" y="10.75"/>
      <point x="172.215" y="0"/>
      <point x="157.315" y="0" type="curve" smooth="yes"/>
      <point x="133.025" y="0"/>
      <point x="113.305" y="19.71"/>
      <point x="113.305" y="44.0098" type="curve" smooth="yes"/>
      <point x="113.305" y="49.8301"/>
      <point x="115.469" y="58.7627"/>
      <point x="118.095" y="63.96" type="curve" smooth="yes"/>
      <point x="420.26" y="662" type="line" smooth="no"/>
      <point x="118" y="662" type="line" smooth="yes"/>
      <point x="117.37" y="661.99" type="line" smooth="yes"/>
      <point x="93.0898" y="661.99"/>
      <point x="73.3691" y="681.71"/>
      <point x="73.3691" y="706" type="curve" smooth="yes"/>
      <point x="73.3691" y="730.29"/>
      <point x="93.0898" y="750"/>
      <point x="117.37" y="750" type="curve" smooth="yes"/>
    </contour>
  </outline>
</glyph>
<glyph name="eight" format="1">
  <advance width="600"/>
  <unicode hex="0038"/>
  <outline>
    <contour>
      <point x="300" y="759" type="curve" smooth="yes"/>
      <point x="351.33" y="759"/>
      <point x="401.57" y="746.05"/>
      <point x="439.43" y="711.97" type="curve" smooth="yes"/>
      <point x="477.29" y="677.9"/>
      <point x="498" y="624.8"/>
      <point x="498" y="561" type="curve" smooth="yes"/>
      <point x="498" y="490.439"/>
      <point x="463.98" y="435.52"/>
      <point x="421.89" y="399.71" type="curve" smooth="no"/>
      <point x="476.369" y="361.939"/>
      <point x="520" y="299.439"/>
      <point x="520" y="220" type="curve" smooth="yes"/>
      <point x="520" y="156.2"/>
      <point x="500.04" y="99.3203"/>
      <point x="460.359" y="59.6396" type="curve" smooth="yes"/>
      <point x="420.68" y="19.96"/>
      <point x="363.8" y="0"/>
      <point x="300" y="0" type="curve" smooth="yes"/>
      <point x="236.199" y="0"/>
      <point x="179.32" y="19.96"/>
      <point x="139.64" y="59.6396" type="curve" smooth="yes"/>
      <point x="99.9697" y="99.3203"/>
      <point x="80" y="156.2"/>
      <point x="80" y="220" type="curve" smooth="yes"/>
      <point x="80" y="299.53"/>
      <point x="123.72" y="362.09"/>
      <point x="178.279" y="399.85" type="curve" smooth="no"/>
      <point x="136.46" y="435.64"/>
      <point x="102.58" y="490.439"/>
      <point x="102" y="560.65" type="curve" smooth="yes"/>
      <point x="101.47" y="624.57"/>
      <point x="122.26" y="677.89"/>
      <point x="160.27" y="711.97" type="curve" smooth="yes"/>
      <point x="198.27" y="746.06"/>
      <point x="248.65" y="759"/>
    </contour>
    <contour>
      <point x="300" y="676.5" type="curve" smooth="yes"/>
      <point x="263.359" y="676.5"/>
      <point x="236.279" y="661.9"/>
      <point x="219.05" y="646.45" type="curve" smooth="yes"/>
      <point x="201.82" y="631"/>
      <point x="189.619" y="607.33"/>
      <point x="190" y="561.38" type="curve" smooth="yes"/>
      <point x="190.73" y="472.87"/>
      <point x="249.68" y="440"/>
      <point x="300" y="440" type="curve" smooth="yes"/>
      <point x="350.369" y="440"/>
      <point x="410" y="472.71"/>
      <point x="410" y="561" type="curve" smooth="yes"/>
      <point x="410" y="607.2"/>
      <point x="397.72" y="631.13"/>
      <point x="380.58" y="646.56" type="curve" smooth="yes"/>
      <point x="363.439" y="661.99"/>
      <point x="336.67" y="676.5"/>
    </contour>
    <contour>
      <point x="300" y="352" type="curve" smooth="yes"/>
      <point x="237.02" y="352"/>
      <point x="168" y="305.89"/>
      <point x="168" y="220" type="curve" smooth="yes"/>
      <point x="168" y="173.8"/>
      <point x="181.04" y="142.71"/>
      <point x="201.859" y="121.89" type="curve" smooth="yes"/>
      <point x="222.68" y="101.07"/>
      <point x="253.8" y="81.4004"/>
      <point x="300" y="81.4004" type="curve" smooth="yes"/>
      <point x="346.199" y="81.4004"/>
      <point x="377.32" y="101.07"/>
      <point x="398.14" y="121.89" type="curve" smooth="yes"/>
      <point x="418.96" y="142.71"/>
      <point x="432" y="173.8"/>
      <point x="432" y="220" type="curve" smooth="yes"/>
      <point x="432" y="305.89"/>
      <point x="362.98" y="352"/>
    </contour>
  </outline>
</glyph>
<glyph name="nine" format="1">
  <advance width="600"/>
  <unicode hex="0039"/>
  <outline>
    <contour>
      <point x="310" y="756" type="curve" smooth="yes"/>
      <point x="391.89" y="756"/>
      <point x="465.51" y="710.449"/>
      <point x="502.98" y="638.92" type="curve" smooth="yes"/>
      <point x="540.15" y="567.949"/>
      <point x="541.35" y="472.97"/>
      <point x="493.42" y="375.61" type="curve" smooth="no"/>
      <point x="415.32" y="183.74"/>
      <point x="333.59" y="19.2695"/>
      <point x="333.59" y="19.2695" type="curve" smooth="yes"/>
      <point x="328.875" y="8.75879"/>
      <point x="318.95" y="0.939453"/>
      <point x="307.99" y="-2.62012" type="curve" smooth="yes"/>
      <point x="297.04" y="-6.19043"/>
      <point x="284.68" y="-5.23047"/>
      <point x="274.41" y="0" type="curve" smooth="yes"/>
      <point x="264.142" y="5.21973"/>
      <point x="256.09" y="14.6396"/>
      <point x="252.521" y="25.5996" type="curve" smooth="yes"/>
      <point x="248.96" y="36.5498"/>
      <point x="250.436" y="48.6641"/>
      <point x="255.15" y="59.1797" type="curve" smooth="yes"/>
      <point x="255.15" y="59.1797"/>
      <point x="335.54" y="221.07"/>
      <point x="412.23" y="409.57" type="curve" smooth="yes"/>
      <point x="412.88" y="411.15" type="line" smooth="no"/>
      <point x="413.64" y="412.67" type="line" smooth="yes"/>
      <point x="452.56" y="490.5"/>
      <point x="448.05" y="554.11"/>
      <point x="425.02" y="598.08" type="curve" smooth="yes"/>
      <point x="401.98" y="642.06"/>
      <point x="360.111" y="669.1"/>
      <point x="310" y="669.1" type="curve" smooth="yes"/>
      <point x="252.9" y="669.1"/>
      <point x="220.01" y="651.99"/>
      <point x="199" y="629.64" type="curve" smooth="yes"/>
      <point x="177.99" y="607.29"/>
      <point x="166.93" y="574.92"/>
      <point x="166.93" y="534.63" type="curve" smooth="yes"/>
      <point x="166.93" y="461.199"/>
      <point x="225.51" y="402.63"/>
      <point x="298.93" y="402.63" type="curve" smooth="yes"/>
      <point x="310.55" y="402.79"/>
      <point x="322.17" y="398.12"/>
      <point x="330.452" y="389.96" type="curve" smooth="yes"/>
      <point x="338.72" y="381.8"/>
      <point x="343.55" y="370.25"/>
      <point x="343.55" y="358.63" type="curve" smooth="yes"/>
      <point x="343.55" y="347"/>
      <point x="338.72" y="335.449"/>
      <point x="330.452" y="327.29" type="curve" smooth="yes"/>
      <point x="322.17" y="319.13"/>
      <point x="310.55" y="314.46"/>
      <point x="298.93" y="314.63" type="curve" smooth="yes"/>
      <point x="177.952" y="314.63"/>
      <point x="78.9297" y="413.64"/>
      <point x="78.9297" y="534.63" type="curve" smooth="yes"/>
      <point x="78.9297" y="591.54"/>
      <point x="95.4102" y="647.87"/>
      <point x="134.93" y="689.9" type="curve" smooth="yes"/>
      <point x="174.441" y="731.93"/>
      <point x="235.09" y="756"/>
    </contour>
  </outline>
</glyph>
<glyph name="colon" format="1">
  <advance width="378"/>
  <unicode hex="003a"/>
  <outline>
    <contour>
      <point x="31" y="302" type="curve" smooth="yes"/>
      <point x="31" y="334.016"/>
      <point x="56.9844" y="360"/>
      <point x="89" y="360" type="curve" smooth="yes"/>
      <point x="121.016" y="360"/>
      <point x="147" y="334.016"/>
      <point x="147" y="302" type="curve" smooth="yes"/>
      <point x="147" y="269.984"/>
      <point x="121.016" y="244"/>
      <point x="89" y="244" type="curve" smooth="yes"/>
      <point x="56.9844" y="244"/>
      <point x="31" y="269.984"/>
    </contour>
    <contour>
      <point x="32" y="58" type="curve" smooth="yes"/>
      <point x="32" y="90.0156"/>
      <point x="57.9844" y="116"/>
      <point x="90" y="116" type="curve" smooth="yes"/>
      <point x="122.016" y="116"/>
      <point x="148" y="90.0156"/>
      <point x="148" y="58" type="curve" smooth="yes"/>
      <point x="148" y="25.9844"/>
      <point x="122.016" y="0"/>
      <point x="90" y="0" type="curve" smooth="yes"/>
      <point x="57.9844" y="0"/>
      <point x="32" y="25.9844"/>
    </contour>
  </outline>
</glyph>
<glyph name="semicolon" format="1">
  <advance width="378"/>
  <unicode hex="003b"/>
  <outline>
    <contour>
      <point x="32" y="58" type="curve" smooth="yes"/>
      <point x="32" y="90.0156"/>
      <point x="53.4844" y="116"/>
      <point x="85.5" y="116" type="curve" smooth="yes"/>
      <point x="117.516" y="116"/>
      <point x="138.5" y="91.5156"/>
      <point x="138.5" y="59.5" type="curve" smooth="yes"/>
      <point x="138.5" y="44.1133"/>
      <point x="137" y="23.5"/>
      <point x="125.5" y="-9" type="curve" smooth="yes"/>
      <point x="98.8135" y="-84.418"/>
      <point x="32.5547" y="-105"/>
      <point x="-6.5" y="-105" type="curve" smooth="yes"/>
      <point x="-29.7061" y="-105"/>
      <point x="-35" y="-73"/>
      <point x="-12.5" y="-64" type="curve" smooth="yes"/>
      <point x="27.9551" y="-47.8174"/>
      <point x="32.6699" y="-14.1475"/>
      <point x="32.5" y="-10.5" type="curve" smooth="yes"/>
      <point x="31.5" y="11"/>
      <point x="32" y="25.9844"/>
    </contour>
    <contour>
      <point x="31" y="302" type="curve" smooth="yes"/>
      <point x="31" y="334.016"/>
      <point x="56.9844" y="360"/>
      <point x="89" y="360" type="curve" smooth="yes"/>
      <point x="121.016" y="360"/>
      <point x="147" y="334.016"/>
      <point x="147" y="302" type="curve" smooth="yes"/>
      <point x="147" y="269.984"/>
      <point x="121.016" y="244"/>
      <point x="89" y="244" type="curve" smooth="yes"/>
      <point x="56.9844" y="244"/>
      <point x="31" y="269.984"/>
    </contour>
  </outline>
</glyph>
<glyph name="A" format="1">
  <advance width="600"/>
  <unicode hex="0041"/>
  <outline>
    <contour>
      <point x="297.734" y="749.135" type="curve" smooth="yes"/>
      <point x="298.339" y="749.165"/>
      <point x="299.328" y="749.188"/>
      <point x="299.935" y="749.188" type="curve" smooth="yes"/>
      <point x="300.538" y="749.188"/>
      <point x="301.528" y="749.165"/>
      <point x="302.136" y="749.135" type="curve" smooth="yes"/>
      <point x="318.744" y="748.322"/>
      <point x="336.476" y="734.864"/>
      <point x="341.734" y="719.091" type="curve" smooth="yes"/>
      <point x="561.734" y="59.0928" type="line" smooth="yes"/>
      <point x="563.209" y="55.0537"/>
      <point x="564.396" y="48.3018"/>
      <point x="564.396" y="44" type="curve" smooth="yes"/>
      <point x="564.396" y="19.7119"/>
      <point x="544.685" y="0"/>
      <point x="520.396" y="0" type="curve" smooth="yes"/>
      <point x="502.355" y="0"/>
      <point x="483.49" y="14.0146"/>
      <point x="478.275" y="31.2832" type="curve" smooth="yes"/>
      <point x="440.636" y="144.168" type="line" smooth="no"/>
      <point x="159.377" y="144.168" type="line" smooth="no"/>
      <point x="121.734" y="31.2832" type="line" smooth="yes"/>
      <point x="116.521" y="14.0146"/>
      <point x="97.6445" y="0"/>
      <point x="79.6143" y="0" type="curve" smooth="yes"/>
      <point x="55.3154" y="0"/>
      <point x="35.6035" y="19.7119"/>
      <point x="35.6035" y="44" type="curve" smooth="yes"/>
      <point x="35.6035" y="48.3018"/>
      <point x="36.8027" y="55.0537"/>
      <point x="38.2754" y="59.0928" type="curve" smooth="yes"/>
      <point x="258.275" y="719.091" type="line" smooth="yes"/>
      <point x="263.502" y="734.812"/>
      <point x="281.189" y="748.271"/>
    </contour>
    <contour>
      <point x="299.998" y="566.088" type="line" smooth="no"/>
      <point x="188.701" y="232.168" type="line" smooth="no"/>
      <point x="411.31" y="232.168" type="line" smooth="no"/>
    </contour>
  </outline>
</glyph>
<glyph name="B" format="1">
  <advance width="572"/>
  <unicode hex="0042"/>
  <outline>
    <contour>
      <point x="296" y="748" type="curve" smooth="yes"/>
      <point x="313.521" y="748.012"/>
      <point x="353.75" y="745.787"/>
      <point x="395.191" y="727.65" type="curve" smooth="yes"/>
      <point x="450.481" y="703.465"/>
      <point x="509.561" y="641.493"/>
      <point x="509.561" y="538.829" type="curve" smooth="yes"/>
      <point x="509.561" y="469.361"/>
      <point x="466" y="402"/>
      <point x="426" y="378" type="curve" smooth="no"/>
      <point x="474" y="350"/>
      <point x="531" y="290.092"/>
      <point x="531" y="208.967" type="curve" smooth="yes"/>
      <point x="531" y="106.304"/>
      <point x="471.92" y="44.3633"/>
      <point x="416.63" y="20.1846" type="curve" smooth="yes"/>
      <point x="365.5" y="-2.18945"/>
      <point x="318.1" y="-0.397461"/>
      <point x="311" y="0" type="curve" smooth="no"/>
      <point x="311" y="-0.0341797" type="line" smooth="no"/>
      <point x="113" y="-0.0341797" type="line" smooth="yes"/>
      <point x="101.479" y="-0.0341797"/>
      <point x="90.0293" y="4.71777"/>
      <point x="81.8896" y="12.8584" type="curve" smooth="yes"/>
      <point x="73.75" y="20.999"/>
      <point x="68.9902" y="32.4502"/>
      <point x="69" y="43.9658" type="curve" smooth="yes"/>
      <point x="69.5605" y="703.828" type="line" smooth="yes"/>
      <point x="69.5605" y="715.345"/>
      <point x="74.3105" y="726.793"/>
      <point x="82.4512" y="734.939" type="curve" smooth="yes"/>
      <point x="90.5898" y="743.084"/>
      <point x="102.04" y="747.826"/>
      <point x="113.561" y="747.828" type="curve" smooth="yes"/>
      <point x="289.431" y="747.828" type="line" smooth="yes"/>
      <point x="289.561" y="747.828" type="line" smooth="yes"/>
      <point x="290.901" y="747.903"/>
      <point x="291.901" y="748"/>
    </contour>
    <contour>
      <point x="292.311" y="659.931" type="curve" smooth="yes"/>
      <point x="291.401" y="659.867"/>
      <point x="290.481" y="659.839"/>
      <point x="289.561" y="659.828" type="curve" smooth="yes"/>
      <point x="157.561" y="659.828" type="line" smooth="no"/>
      <point x="157" y="417.967" type="line" smooth="no"/>
      <point x="211.43" y="417.967"/>
      <point x="319.699" y="417.692"/>
      <point x="319.699" y="417.692" type="curve" smooth="no"/>
      <point x="404" y="419.705"/>
      <point x="418.34" y="472.139"/>
      <point x="421.561" y="538.829" type="curve" smooth="no"/>
      <point x="421.561" y="612.161"/>
      <point x="392.651" y="632.723"/>
      <point x="359.931" y="647.041" type="curve" smooth="yes"/>
      <point x="327.21" y="661.355"/>
      <point x="292.311" y="659.931"/>
    </contour>
    <contour>
      <point x="157" y="329.967" type="line" smooth="no"/>
      <point x="157" y="87.9668" type="line" smooth="no"/>
      <point x="311" y="87.9668" type="line" smooth="yes"/>
      <point x="334.689" y="87.7578"/>
      <point x="354.689" y="89.0996"/>
      <point x="381.37" y="100.793" type="curve" smooth="yes"/>
      <point x="414.09" y="115.104"/>
      <point x="443" y="135.641"/>
      <point x="443" y="208.967" type="curve" smooth="no"/>
      <point x="441.859" y="278.499"/>
      <point x="396.84" y="332.519"/>
      <point x="287.35" y="329.967" type="curve" smooth="no"/>
    </contour>
  </outline>
</glyph>
<glyph name="C" format="1">
  <advance width="600"/>
  <unicode hex="0043"/>
  <outline>
    <contour>
      <point x="320.91" y="758.309" type="curve" smooth="yes"/>
      <point x="409.15" y="758.309"/>
      <point x="471.73" y="722.627"/>
      <point x="509.04" y="686.568" type="curve" smooth="yes"/>
      <point x="546.37" y="650.507"/>
      <point x="561.74" y="611.493"/>
      <point x="561.74" y="611.493" type="curve" smooth="yes"/>
      <point x="563.37" y="607.291"/>
      <point x="564.69" y="600.223"/>
      <point x="564.69" y="595.715" type="curve" smooth="yes"/>
      <point x="564.69" y="571.611"/>
      <point x="545.13" y="552.048"/>
      <point x="521.03" y="552.048" type="curve" smooth="yes"/>
      <point x="504.521" y="552.048"/>
      <point x="486.271" y="564.541"/>
      <point x="480.312" y="579.938" type="curve" smooth="no"/>
      <point x="480.312" y="579.938"/>
      <point x="472.61" y="600.377"/>
      <point x="448.38" y="623.799" type="curve" smooth="yes"/>
      <point x="424.15" y="647.22"/>
      <point x="386.67" y="670.996"/>
      <point x="320.91" y="670.996" type="curve" smooth="yes"/>
      <point x="257.53" y="670.996"/>
      <point x="212.7" y="644.188"/>
      <point x="178.12" y="593.928" type="curve" smooth="yes"/>
      <point x="143.54" y="543.666"/>
      <point x="122.57" y="468.144"/>
      <point x="122.57" y="379.149" type="curve" smooth="yes"/>
      <point x="122.57" y="289.323"/>
      <point x="141.312" y="213.545"/>
      <point x="174.37" y="163.824" type="curve" smooth="yes"/>
      <point x="207.44" y="114.116"/>
      <point x="251.13" y="87.3086"/>
      <point x="320.91" y="87.3086" type="curve" smooth="yes"/>
      <point x="392.91" y="87.3086"/>
      <point x="429.57" y="111.366"/>
      <point x="451.812" y="133.883" type="curve" smooth="yes"/>
      <point x="474.062" y="156.399"/>
      <point x="479.21" y="175.133"/>
      <point x="479.21" y="175.133" type="curve" smooth="no"/>
      <point x="484.32" y="192.402"/>
      <point x="503.07" y="206.428"/>
      <point x="521.08" y="206.428" type="curve" smooth="yes"/>
      <point x="545.182" y="206.428"/>
      <point x="564.74" y="186.869"/>
      <point x="564.74" y="162.769" type="curve" smooth="yes"/>
      <point x="564.74" y="159.281"/>
      <point x="563.93" y="153.727"/>
      <point x="562.94" y="150.383" type="curve" smooth="yes"/>
      <point x="562.94" y="150.383"/>
      <point x="550.53" y="109.562"/>
      <point x="513.93" y="72.5244" type="curve" smooth="yes"/>
      <point x="477.34" y="35.4971"/>
      <point x="413.91" y="0"/>
      <point x="320.91" y="0" type="curve" smooth="yes"/>
      <point x="225.7" y="0"/>
      <point x="148.391" y="45.2656"/>
      <point x="101.7" y="115.457" type="curve" smooth="yes"/>
      <point x="55.0215" y="185.66"/>
      <point x="35.2598" y="277.608"/>
      <point x="35.2598" y="379.149" type="curve" smooth="yes"/>
      <point x="35.2598" y="481.527"/>
      <point x="58.29" y="573.781"/>
      <point x="106.21" y="643.428" type="curve" smooth="yes"/>
      <point x="154.13" y="713.073"/>
      <point x="230.29" y="758.309"/>
    </contour>
  </outline>
</glyph>
<glyph name="D" format="1">
  <advance width="600"/>
  <unicode hex="0044"/>
  <outline>
    <contour>
      <point x="79.8604" y="747.993" type="curve" smooth="yes"/>
      <point x="83.0908" y="748.027"/>
      <point x="85.7705" y="747.993"/>
      <point x="89.2119" y="747.993" type="curve" smooth="yes"/>
      <point x="244.962" y="747.993" type="line" smooth="yes"/>
      <point x="424.739" y="747.993"/>
      <point x="563.892" y="585.947"/>
      <point x="563.892" y="376.178" type="curve" smooth="yes"/>
      <point x="563.892" y="272.128"/>
      <point x="534.091" y="179.102"/>
      <point x="478.462" y="110.771" type="curve" smooth="yes"/>
      <point x="422.852" y="42.4375"/>
      <point x="339.869" y="0"/>
      <point x="244.962" y="0" type="curve" smooth="yes"/>
      <point x="89.2705" y="0" type="line" smooth="yes"/>
      <point x="77.2803" y="0"/>
      <point x="67.3516" y="-0.0771484"/>
      <point x="57.9902" y="5.42285" type="curve" smooth="yes"/>
      <point x="43.792" y="14.0352"/>
      <point x="35.0615" y="30.5566"/>
      <point x="36.2314" y="47.8262" type="curve" smooth="no"/>
      <point x="36.2314" y="700.783" type="line" smooth="yes"/>
      <point x="35.8613" y="705.695"/>
      <point x="36.3311" y="710.67"/>
      <point x="37.6113" y="715.428" type="curve" smooth="yes"/>
      <point x="37.6416" y="715.551"/>
      <point x="37.6816" y="715.678"/>
      <point x="37.7217" y="715.806" type="curve" smooth="yes"/>
      <point x="37.8213" y="716.139"/>
      <point x="37.9111" y="716.472"/>
      <point x="38.0215" y="716.803" type="curve" smooth="yes"/>
      <point x="40.6113" y="725.776"/>
      <point x="46.1416" y="733.873"/>
      <point x="53.5703" y="739.547" type="curve" smooth="yes"/>
      <point x="60.9805" y="745.225"/>
      <point x="70.5205" y="747.84"/>
    </contour>
    <contour>
      <point x="124.23" y="660.324" type="line" smooth="no"/>
      <point x="124.23" y="87.6367" type="line" smooth="no"/>
      <point x="245.23" y="87.6367" type="line" smooth="yes"/>
      <point x="315.312" y="87.6367"/>
      <point x="370.109" y="115.951"/>
      <point x="410.751" y="165.879" type="curve" smooth="yes"/>
      <point x="451.382" y="215.797"/>
      <point x="476.58" y="288.859"/>
      <point x="476.58" y="376.178" type="curve" smooth="yes"/>
      <point x="476.58" y="549.146"/>
      <point x="373.449" y="660.324"/>
      <point x="245.23" y="660.324" type="curve" smooth="yes"/>
    </contour>
  </outline>
</glyph>
<glyph name="E" format="1">
  <advance width="564"/>
  <unicode hex="0045"/>
  <outline>
    <contour>
      <point x="90.3428" y="748" type="curve" smooth="yes"/>
      <point x="472.686" y="747.999" type="line" smooth="yes"/>
      <point x="473.316" y="748.003" type="line" smooth="yes"/>
      <point x="497.605" y="748.003"/>
      <point x="517.316" y="728.289"/>
      <point x="517.316" y="703.999" type="curve" smooth="yes"/>
      <point x="517.316" y="679.709"/>
      <point x="497.605" y="659.995"/>
      <point x="473.316" y="659.995" type="curve" smooth="yes"/>
      <point x="472.686" y="659.999" type="line" smooth="yes"/>
      <point x="134.343" y="660" type="line" smooth="no"/>
      <point x="135.027" y="418.001" type="line" smooth="no"/>
      <point x="407.37" y="418" type="line" smooth="yes"/>
      <point x="407.55" y="418"/>
      <point x="407.821" y="418.012"/>
      <point x="408" y="418.012" type="curve" smooth="yes"/>
      <point x="432.29" y="418.012"/>
      <point x="452" y="398.288"/>
      <point x="452" y="374" type="curve" smooth="yes"/>
      <point x="452" y="349.712"/>
      <point x="432.29" y="330"/>
      <point x="408" y="330" type="curve" smooth="yes"/>
      <point x="407.37" y="330" type="line" smooth="yes"/>
      <point x="135.027" y="330.001" type="line" smooth="no"/>
      <point x="135.027" y="88.001" type="line" smooth="no"/>
      <point x="473.37" y="88" type="line" smooth="yes"/>
      <point x="473.55" y="88"/>
      <point x="473.821" y="88.0117"/>
      <point x="474" y="88.0117" type="curve" smooth="yes"/>
      <point x="498.29" y="88.0117"/>
      <point x="518" y="68.2881"/>
      <point x="518" y="43.999" type="curve" smooth="yes"/>
      <point x="518" y="19.7109"/>
      <point x="498.29" y="-0.000976562"/>
      <point x="474" y="-0.000976562" type="curve" smooth="yes"/>
      <point x="473.37" y="-0.000976562" type="line" smooth="yes"/>
      <point x="91.0273" y="0" type="line" smooth="yes"/>
      <point x="66.7461" y="0"/>
      <point x="47.0527" y="19.7129"/>
      <point x="47.0273" y="44" type="curve" smooth="yes"/>
      <point x="46.3428" y="704" type="line" smooth="yes"/>
      <point x="46.3525" y="728.286"/>
      <point x="66.0615" y="748"/>
    </contour>
  </outline>
</glyph>
<glyph name="F" format="1">
  <advance width="560"/>
  <unicode hex="0046"/>
  <outline>
    <contour>
      <point x="90.6855" y="750" type="curve" smooth="yes"/>
      <point x="468.684" y="749.374" type="line" smooth="yes"/>
      <point x="469.304" y="749.378" type="line" smooth="yes"/>
      <point x="493.594" y="749.378"/>
      <point x="513.304" y="729.664"/>
      <point x="513.304" y="705.374" type="curve" smooth="yes"/>
      <point x="513.304" y="681.084"/>
      <point x="493.594" y="661.37"/>
      <point x="469.304" y="661.37" type="curve" smooth="yes"/>
      <point x="468.684" y="661.374" type="line" smooth="yes"/>
      <point x="134.686" y="662" type="line" smooth="no"/>
      <point x="135.38" y="418.626" type="line" smooth="no"/>
      <point x="403.37" y="418" type="line" smooth="yes"/>
      <point x="403.55" y="418"/>
      <point x="403.819" y="418.012"/>
      <point x="404" y="418.012" type="curve" smooth="yes"/>
      <point x="428.29" y="418.012"/>
      <point x="448" y="398.288"/>
      <point x="448" y="374" type="curve" smooth="yes"/>
      <point x="448" y="349.712"/>
      <point x="428.29" y="330"/>
      <point x="404" y="330" type="curve" smooth="yes"/>
      <point x="403.37" y="330" type="line" smooth="yes"/>
      <point x="135.38" y="330.626" type="line" smooth="no"/>
      <point x="135.38" y="44.625" type="line" smooth="yes"/>
      <point x="135.391" y="44.4609"/>
      <point x="135.391" y="44.1738"/>
      <point x="135.391" y="44.0098" type="curve" smooth="yes"/>
      <point x="135.391" y="19.7227"/>
      <point x="115.681" y="0"/>
      <point x="91.3799" y="0" type="curve" smooth="yes"/>
      <point x="67.0908" y="0"/>
      <point x="47.3799" y="19.7227"/>
      <point x="47.3799" y="44.0098" type="curve" smooth="yes"/>
      <point x="47.3799" y="44.625" type="line" smooth="yes"/>
      <point x="46.6846" y="706" type="line" smooth="yes"/>
      <point x="46.6943" y="730.286"/>
      <point x="66.4043" y="750.04"/>
    </contour>
  </outline>
</glyph>
<glyph name="G" format="1">
  <advance width="600"/>
  <unicode hex="0047"/>
  <outline>
    <contour>
      <point x="320.963" y="758.309" type="curve" smooth="yes"/>
      <point x="409.203" y="758.309"/>
      <point x="471.772" y="722.627"/>
      <point x="509.094" y="686.568" type="curve" smooth="yes"/>
      <point x="546.413" y="650.504"/>
      <point x="561.793" y="611.493"/>
      <point x="561.793" y="611.493" type="curve" smooth="no"/>
      <point x="565.923" y="600.832"/>
      <point x="565.633" y="588.537"/>
      <point x="561.022" y="578.078" type="curve" smooth="yes"/>
      <point x="556.402" y="567.62"/>
      <point x="547.514" y="559.127"/>
      <point x="536.854" y="554.996" type="curve" smooth="yes"/>
      <point x="526.191" y="550.864"/>
      <point x="513.893" y="551.146"/>
      <point x="503.441" y="555.765" type="curve" smooth="yes"/>
      <point x="492.981" y="560.382"/>
      <point x="484.481" y="569.276"/>
      <point x="480.354" y="579.938" type="curve" smooth="no"/>
      <point x="480.354" y="579.938"/>
      <point x="472.663" y="600.377"/>
      <point x="448.423" y="623.799" type="curve" smooth="yes"/>
      <point x="424.184" y="647.22"/>
      <point x="386.723" y="670.996"/>
      <point x="320.963" y="670.996" type="curve" smooth="yes"/>
      <point x="257.583" y="670.996"/>
      <point x="212.743" y="644.188"/>
      <point x="178.163" y="593.928" type="curve" smooth="yes"/>
      <point x="143.583" y="543.665"/>
      <point x="122.613" y="468.144"/>
      <point x="122.613" y="379.149" type="curve" smooth="yes"/>
      <point x="122.613" y="289.323"/>
      <point x="141.354" y="213.545"/>
      <point x="174.413" y="163.824" type="curve" smooth="yes"/>
      <point x="207.481" y="114.116"/>
      <point x="251.173" y="87.3086"/>
      <point x="320.963" y="87.3086" type="curve" smooth="yes"/>
      <point x="392.953" y="87.3086"/>
      <point x="429.604" y="111.366"/>
      <point x="451.862" y="133.883" type="curve" smooth="yes"/>
      <point x="467.594" y="149.822"/>
      <point x="474.543" y="157.818"/>
      <point x="477.401" y="164.672" type="curve" smooth="no"/>
      <point x="475.854" y="297.002" type="line" smooth="no"/>
      <point x="320.963" y="297.002" type="line" smooth="yes"/>
      <point x="309.441" y="296.858"/>
      <point x="297.941" y="301.5"/>
      <point x="289.753" y="309.597" type="curve" smooth="yes"/>
      <point x="281.562" y="317.693"/>
      <point x="276.783" y="329.133"/>
      <point x="276.783" y="340.649" type="curve" smooth="yes"/>
      <point x="276.783" y="352.168"/>
      <point x="281.562" y="363.606"/>
      <point x="289.753" y="371.703" type="curve" smooth="yes"/>
      <point x="297.941" y="379.798"/>
      <point x="309.441" y="384.44"/>
      <point x="320.963" y="384.309" type="curve" smooth="yes"/>
      <point x="518.963" y="384.309" type="line" smooth="yes"/>
      <point x="530.293" y="384.309"/>
      <point x="541.562" y="379.678"/>
      <point x="549.633" y="371.714" type="curve" smooth="yes"/>
      <point x="557.703" y="363.749"/>
      <point x="563.613" y="352.541"/>
      <point x="563.753" y="341.199" type="curve" smooth="yes"/>
      <point x="563.753" y="163.308" type="line" smooth="no"/>
      <point x="563.753" y="42.8789" type="line" smooth="no"/>
      <point x="563.753" y="42.8789"/>
      <point x="567.231" y="10.6719"/>
      <point x="535.514" y="10.6719" type="curve" smooth="yes"/>
      <point x="519.014" y="10.6719"/>
      <point x="509.272" y="34.0684"/>
      <point x="497.612" y="57.6729" type="curve" smooth="no"/>
      <point x="459.652" y="26.5547"/>
      <point x="401.373" y="0"/>
      <point x="320.963" y="0" type="curve" smooth="yes"/>
      <point x="225.743" y="0"/>
      <point x="148.434" y="45.2656"/>
      <point x="101.753" y="115.457" type="curve" smooth="yes"/>
      <point x="55.0615" y="185.66"/>
      <point x="35.3027" y="277.608"/>
      <point x="35.3027" y="379.149" type="curve" smooth="yes"/>
      <point x="35.3027" y="481.527"/>
      <point x="58.333" y="573.781"/>
      <point x="106.253" y="643.428" type="curve" smooth="yes"/>
      <point x="154.173" y="713.073"/>
      <point x="230.344" y="758.309"/>
    </contour>
  </outline>
</glyph>
<glyph name="H" format="1">
  <advance width="601"/>
  <unicode hex="0048"/>
  <outline>
    <contour>
      <point x="501" y="750" type="curve" smooth="yes"/>
      <point x="501.659" y="750" type="line" smooth="yes"/>
      <point x="525.949" y="750"/>
      <point x="545.659" y="730.29"/>
      <point x="545.659" y="706" type="curve" smooth="yes"/>
      <point x="545.659" y="705.381" type="line" smooth="yes"/>
      <point x="545.005" y="44.625" type="line" smooth="yes"/>
      <point x="545.005" y="44.0098" type="line" smooth="yes"/>
      <point x="545.005" y="19.7227"/>
      <point x="525.29" y="0"/>
      <point x="501" y="0" type="curve" smooth="yes"/>
      <point x="476.7" y="0"/>
      <point x="456.995" y="19.7227"/>
      <point x="456.995" y="44.0098" type="curve" smooth="yes"/>
      <point x="456.995" y="44.625" type="line" smooth="yes"/>
      <point x="457.28" y="332.318" type="line" smooth="no"/>
      <point x="143.29" y="332.318" type="line" smooth="no"/>
      <point x="143.005" y="44.625" type="line" smooth="yes"/>
      <point x="143.005" y="44.0098" type="line" smooth="yes"/>
      <point x="143.005" y="19.7227"/>
      <point x="123.29" y="0"/>
      <point x="99" y="0" type="curve" smooth="yes"/>
      <point x="74.7002" y="0"/>
      <point x="54.9951" y="19.7227"/>
      <point x="54.9951" y="44.0098" type="curve" smooth="yes"/>
      <point x="54.9951" y="44.625" type="line" smooth="yes"/>
      <point x="55.6494" y="705.381" type="line" smooth="yes"/>
      <point x="55.6494" y="706" type="line" smooth="yes"/>
      <point x="55.6494" y="729.932"/>
      <point x="75.0693" y="749.643"/>
      <point x="99" y="750" type="curve" smooth="yes"/>
      <point x="99.6592" y="750" type="line" smooth="yes"/>
      <point x="123.949" y="750"/>
      <point x="143.659" y="730.29"/>
      <point x="143.659" y="706" type="curve" smooth="yes"/>
      <point x="143.659" y="705.381" type="line" smooth="yes"/>
      <point x="143.377" y="420.318" type="line" smooth="no"/>
      <point x="457.367" y="420.318" type="line" smooth="no"/>
      <point x="457.65" y="705.381" type="line" smooth="yes"/>
      <point x="457.65" y="706" type="line" smooth="yes"/>
      <point x="457.65" y="729.932"/>
      <point x="477.069" y="749.643"/>
    </contour>
  </outline>
</glyph>
<glyph name="I" format="1">
  <advance width="260"/>
  <unicode hex="0049"/>
  <outline>
    <contour>
      <point x="129.995" y="750" type="curve" smooth="yes"/>
      <point x="130.654" y="750.004" type="line" smooth="yes"/>
      <point x="154.944" y="750.004"/>
      <point x="174.654" y="730.29"/>
      <point x="174.654" y="706" type="curve" smooth="yes"/>
      <point x="174.654" y="705.381" type="line" smooth="yes"/>
      <point x="174" y="44.625" type="line" smooth="yes"/>
      <point x="174" y="44.0098" type="line" smooth="yes"/>
      <point x="174" y="19.7227"/>
      <point x="154.29" y="0"/>
      <point x="130" y="0" type="curve" smooth="yes"/>
      <point x="105.7" y="0"/>
      <point x="85.9902" y="19.7227"/>
      <point x="85.9902" y="44.0098" type="curve" smooth="yes"/>
      <point x="85.9902" y="44.1738"/>
      <point x="86" y="44.4609"/>
      <point x="86" y="44.625" type="curve" smooth="yes"/>
      <point x="86.6543" y="705.381" type="line" smooth="yes"/>
      <point x="86.6445" y="705.551"/>
      <point x="86.6445" y="705.828"/>
      <point x="86.6445" y="706" type="curve" smooth="yes"/>
      <point x="86.6445" y="729.932"/>
      <point x="106.064" y="749.643"/>
    </contour>
  </outline>
</glyph>
<glyph name="J" format="1">
  <advance width="236"/>
  <unicode hex="004a"/>
  <outline>
    <contour>
      <point x="124.789" y="760.598" type="curve" smooth="yes"/>
      <point x="136.52" y="760.771"/>
      <point x="148.25" y="756.017"/>
      <point x="156.55" y="747.724" type="curve" smooth="yes"/>
      <point x="164.851" y="739.434"/>
      <point x="169.609" y="727.71"/>
      <point x="169.449" y="715.979" type="curve" smooth="yes"/>
      <point x="169.029" y="73.5898" type="line" smooth="yes"/>
      <point x="169.028" y="70.7949"/>
      <point x="170.35" y="39.1602"/>
      <point x="166" y="0" type="curve" smooth="yes"/>
      <point x="161.448" y="-40.9209"/>
      <point x="155.19" y="-90.4639"/>
      <point x="117.64" y="-128.019" type="curve" smooth="yes"/>
      <point x="58.0801" y="-187.573"/>
      <point x="-21.9609" y="-179.201"/>
      <point x="-21.9609" y="-179.201" type="curve" smooth="no"/>
      <point x="-46.0312" y="-177.198"/>
      <point x="-65.5918" y="-166.991"/>
      <point x="-65.5918" y="-139.833" type="curve" smooth="yes"/>
      <point x="-65.5918" y="-112.675"/>
      <point x="-35.6318" y="-105.698"/>
      <point x="-13.7109" y="-103.125" type="curve" smooth="yes"/>
      <point x="8.20898" y="-100.562"/>
      <point x="39.5283" y="-87.8799"/>
      <point x="55.4199" y="-65.7588" type="curve" smooth="yes"/>
      <point x="71.2998" y="-43.6494"/>
      <point x="74.8496" y="-23.6064"/>
      <point x="78.5498" y="9.72363" type="curve" smooth="yes"/>
      <point x="82.25" y="43.0527"/>
      <point x="81.0586" y="71.6982"/>
      <point x="81.0586" y="71.6982" type="curve" smooth="yes"/>
      <point x="81.04" y="72.3359"/>
      <point x="81.0293" y="72.9639"/>
      <point x="81.0293" y="73.5898" type="curve" smooth="yes"/>
      <point x="81.4492" y="715.979" type="line" smooth="yes"/>
      <point x="81.2793" y="727.494"/>
      <point x="85.8594" y="739.002"/>
      <point x="93.8799" y="747.26" type="curve" smooth="yes"/>
      <point x="101.898" y="755.519"/>
      <point x="113.279" y="760.426"/>
    </contour>
  </outline>
</glyph>
<glyph name="K" format="1">
  <advance width="600"/>
  <unicode hex="004b"/>
  <outline>
    <contour>
      <point x="101.572" y="750" type="curve" smooth="yes"/>
      <point x="102.232" y="750.004" type="line" smooth="yes"/>
      <point x="126.522" y="750.004"/>
      <point x="146.232" y="730.29"/>
      <point x="146.232" y="706" type="curve" smooth="yes"/>
      <point x="146.232" y="705.381" type="line" smooth="yes"/>
      <point x="145.378" y="44.625" type="line" smooth="yes"/>
      <point x="145.378" y="44.0098" type="line" smooth="yes"/>
      <point x="145.378" y="19.7227"/>
      <point x="125.668" y="0"/>
      <point x="101.378" y="0" type="curve" smooth="yes"/>
      <point x="77.0771" y="0"/>
      <point x="57.3672" y="19.7227"/>
      <point x="57.3672" y="44.0098" type="curve" smooth="yes"/>
      <point x="57.3672" y="44.1738"/>
      <point x="57.3779" y="44.4609"/>
      <point x="57.3779" y="44.625" type="curve" smooth="yes"/>
      <point x="58.2324" y="705.381" type="line" smooth="yes"/>
      <point x="58.2227" y="705.551"/>
      <point x="58.2227" y="705.828"/>
      <point x="58.2227" y="706" type="curve" smooth="yes"/>
      <point x="58.2227" y="729.932"/>
      <point x="77.6426" y="749.643"/>
    </contour>
    <contour>
      <point x="497.883" y="749.862" type="curve" smooth="yes"/>
      <point x="498.633" y="749.869" type="line" smooth="yes"/>
      <point x="522.923" y="749.869"/>
      <point x="542.633" y="730.154"/>
      <point x="542.633" y="705.864" type="curve" smooth="yes"/>
      <point x="542.633" y="696.837"/>
      <point x="537.843" y="683.961"/>
      <point x="531.953" y="677.125" type="curve" smooth="yes"/>
      <point x="270.912" y="365.863" type="line" smooth="no"/>
      <point x="529.617" y="74.5684" type="line" smooth="yes"/>
      <point x="536.061" y="67.3135"/>
      <point x="541.747" y="53.9424"/>
      <point x="541.747" y="44.2402" type="curve" smooth="yes"/>
      <point x="541.747" y="19.9521"/>
      <point x="522.019" y="0.229492"/>
      <point x="497.737" y="0.229492" type="curve" smooth="yes"/>
      <point x="486.957" y="0.229492"/>
      <point x="472.293" y="6.64941"/>
      <point x="465.128" y="14.6836" type="curve" smooth="yes"/>
      <point x="179.982" y="334.436" type="line" smooth="yes"/>
      <point x="173.491" y="341.433"/>
      <point x="168.213" y="354.852"/>
      <point x="168.213" y="364.39" type="curve" smooth="yes"/>
      <point x="168.213" y="373.233"/>
      <point x="172.822" y="385.905"/>
      <point x="178.513" y="392.671" type="curve" smooth="yes"/>
      <point x="464.513" y="733.672" type="line" smooth="yes"/>
      <point x="471.633" y="742.422"/>
      <point x="486.593" y="749.676"/>
    </contour>
  </outline>
</glyph>
<glyph name="L" format="1">
  <advance width="522"/>
  <unicode hex="004c"/>
  <outline>
    <contour>
      <point x="109.307" y="748" type="curve" smooth="yes"/>
      <point x="109.958" y="748.011" type="line" smooth="yes"/>
      <point x="134.244" y="748.011"/>
      <point x="153.958" y="728.299"/>
      <point x="153.958" y="704.011" type="curve" smooth="yes"/>
      <point x="153.958" y="703.384" type="line" smooth="yes"/>
      <point x="154" y="88" type="line" smooth="no"/>
      <point x="440" y="88" type="line" smooth="yes"/>
      <point x="440.165" y="88"/>
      <point x="440.45" y="88.0107"/>
      <point x="440.615" y="88.0107" type="curve" smooth="yes"/>
      <point x="464.915" y="88.0107"/>
      <point x="484.627" y="68.29"/>
      <point x="484.627" y="44" type="curve" smooth="yes"/>
      <point x="484.627" y="19.71"/>
      <point x="464.915" y="0"/>
      <point x="440.615" y="0" type="curve" smooth="yes"/>
      <point x="440" y="0" type="line" smooth="yes"/>
      <point x="110" y="0" type="line" smooth="yes"/>
      <point x="85.7109" y="0"/>
      <point x="66" y="19.71"/>
      <point x="65.999" y="44" type="curve" smooth="yes"/>
      <point x="65.957" y="703.384" type="line" smooth="yes"/>
      <point x="65.957" y="703.56"/>
      <point x="65.9453" y="703.835"/>
      <point x="65.9453" y="704.011" type="curve" smooth="yes"/>
      <point x="65.9453" y="727.938"/>
      <point x="85.373" y="747.649"/>
    </contour>
  </outline>
</glyph>
<glyph name="M" format="1">
  <advance width="688"/>
  <unicode hex="004d"/>
  <outline>
    <contour>
      <point x="102.414" y="747.966" type="line" smooth="yes"/>
      <point x="115.685" y="747.857"/>
      <point x="132.193" y="738.64"/>
      <point x="139.265" y="727.407" type="curve" smooth="yes"/>
      <point x="344.005" y="401.708" type="line" smooth="no"/>
      <point x="548.733" y="727.407" type="line" smooth="yes"/>
      <point x="555.885" y="738.781"/>
      <point x="572.574" y="748"/>
      <point x="585.994" y="748" type="curve" smooth="yes"/>
      <point x="610.284" y="748"/>
      <point x="630.005" y="728.288"/>
      <point x="630.005" y="704" type="curve" smooth="yes"/>
      <point x="630.005" y="703.966" type="line" smooth="yes"/>
      <point x="629.999" y="44.6299" type="line" smooth="yes"/>
      <point x="629.999" y="44.0098" type="line" smooth="yes"/>
      <point x="629.999" y="19.71"/>
      <point x="610.279" y="0"/>
      <point x="585.999" y="0" type="curve" smooth="yes"/>
      <point x="561.71" y="0"/>
      <point x="541.989" y="19.71"/>
      <point x="541.989" y="44.0098" type="curve" smooth="yes"/>
      <point x="541.989" y="44.1797"/>
      <point x="542" y="44.46"/>
      <point x="542" y="44.6299" type="curve" smooth="yes"/>
      <point x="542.005" y="551.277" type="line" smooth="no"/>
      <point x="381.26" y="285.22" type="line" smooth="yes"/>
      <point x="374.314" y="273.726"/>
      <point x="357.43" y="264.627"/>
      <point x="344" y="264.627" type="curve" smooth="yes"/>
      <point x="330.569" y="264.627"/>
      <point x="313.677" y="273.721"/>
      <point x="306.729" y="285.22" type="curve" smooth="yes"/>
      <point x="146.005" y="551.277" type="line" smooth="no"/>
      <point x="146" y="44.6299" type="line" smooth="yes"/>
      <point x="146" y="44.0098" type="line" smooth="yes"/>
      <point x="146" y="19.71"/>
      <point x="126.279" y="0"/>
      <point x="102" y="0" type="curve" smooth="yes"/>
      <point x="77.709" y="0"/>
      <point x="57.9893" y="19.71"/>
      <point x="57.9893" y="44.0098" type="curve" smooth="yes"/>
      <point x="57.9893" y="44.1797"/>
      <point x="57.999" y="44.46"/>
      <point x="57.999" y="44.6299" type="curve" smooth="yes"/>
      <point x="58.0039" y="703.966" type="line" smooth="yes"/>
      <point x="58.0039" y="728.254"/>
      <point x="77.7139" y="747.966"/>
      <point x="102.005" y="747.966" type="curve" smooth="yes"/>
    </contour>
  </outline>
</glyph>
<glyph name="N" format="1">
  <advance width="640"/>
  <unicode hex="004e"/>
  <outline>
    <contour>
      <point x="540" y="750" type="curve" smooth="yes"/>
      <point x="551.729" y="750.177"/>
      <point x="563.449" y="745.424"/>
      <point x="571.758" y="737.131" type="curve" smooth="yes"/>
      <point x="580.049" y="728.836"/>
      <point x="584.809" y="717.12"/>
      <point x="584.648" y="705.384" type="curve" smooth="yes"/>
      <point x="584" y="44.6299" type="line" smooth="yes"/>
      <point x="583.991" y="35.2998"/>
      <point x="580.92" y="26"/>
      <point x="575.358" y="18.5" type="curve" smooth="yes"/>
      <point x="569.819" y="11"/>
      <point x="561.819" y="5.34961"/>
      <point x="552.899" y="2.61035" type="curve" smooth="yes"/>
      <point x="543.99" y="-0.129883"/>
      <point x="534.2" y="0.0703125"/>
      <point x="525.399" y="3.16992" type="curve" smooth="yes"/>
      <point x="516.601" y="6.25977"/>
      <point x="508.729" y="12.1621"/>
      <point x="503.601" y="19.9395" type="curve" smooth="yes"/>
      <point x="144.648" y="564.309" type="line" smooth="no"/>
      <point x="144" y="44.6299" type="line" smooth="yes"/>
      <point x="143.984" y="33.0088"/>
      <point x="139.5" y="21.3799"/>
      <point x="131.34" y="13.1104" type="curve" smooth="yes"/>
      <point x="123.17" y="4.83984"/>
      <point x="111.62" y="0"/>
      <point x="100" y="0" type="curve" smooth="yes"/>
      <point x="88.3701" y="0"/>
      <point x="76.8193" y="4.83984"/>
      <point x="68.6602" y="13.1104" type="curve" smooth="yes"/>
      <point x="60.5" y="21.3799"/>
      <point x="55.9883" y="33.0088"/>
      <point x="56" y="44.6299" type="curve" smooth="yes"/>
      <point x="56.6494" y="705.384" type="line" smooth="yes"/>
      <point x="56.6494" y="714.723"/>
      <point x="59.7197" y="724.02"/>
      <point x="65.2598" y="731.532" type="curve" smooth="yes"/>
      <point x="70.8086" y="739.032"/>
      <point x="78.7988" y="744.698"/>
      <point x="87.7188" y="747.438" type="curve" smooth="yes"/>
      <point x="96.6387" y="750.177"/>
      <point x="106.429" y="749.979"/>
      <point x="115.229" y="746.888" type="curve" smooth="yes"/>
      <point x="124.049" y="743.796"/>
      <point x="131.809" y="737.823"/>
      <point x="137.049" y="730.102" type="curve" smooth="yes"/>
      <point x="496" y="185.736" type="line" smooth="no"/>
      <point x="496.648" y="705.384" type="line" smooth="yes"/>
      <point x="496.479" y="716.902"/>
      <point x="501.059" y="728.408"/>
      <point x="509.088" y="736.669" type="curve" smooth="yes"/>
      <point x="517.108" y="744.93"/>
      <point x="528.479" y="749.835"/>
    </contour>
  </outline>
</glyph>
<glyph name="O" format="1">
  <advance width="632"/>
  <unicode hex="004f"/>
  <outline>
    <contour>
      <point x="316" y="757.63" type="curve" smooth="yes"/>
      <point x="416.201" y="757.63"/>
      <point x="494.824" y="712.149"/>
      <point x="540.193" y="641.498" type="curve" smooth="yes"/>
      <point x="585.562" y="570.847"/>
      <point x="602" y="479.4"/>
      <point x="602" y="378.814" type="curve" smooth="yes"/>
      <point x="602" y="278.229"/>
      <point x="585.562" y="186.817"/>
      <point x="540.193" y="116.166" type="curve" smooth="yes"/>
      <point x="494.824" y="45.5137"/>
      <point x="416.201" y="0"/>
      <point x="316" y="0" type="curve" smooth="yes"/>
      <point x="215.798" y="0"/>
      <point x="137.175" y="45.5137"/>
      <point x="91.8066" y="116.166" type="curve" smooth="yes"/>
      <point x="46.4365" y="186.817"/>
      <point x="30" y="278.229"/>
      <point x="30" y="378.814" type="curve" smooth="yes"/>
      <point x="30" y="479.4"/>
      <point x="46.4365" y="570.847"/>
      <point x="91.8066" y="641.498" type="curve" smooth="yes"/>
      <point x="137.175" y="712.149"/>
      <point x="215.798" y="757.63"/>
    </contour>
    <contour>
      <point x="316" y="671.005" type="curve" smooth="yes"/>
      <point x="240.201" y="671.005"/>
      <point x="197.824" y="644.465"/>
      <point x="166.193" y="595.208" type="curve" smooth="yes"/>
      <point x="134.562" y="545.952"/>
      <point x="118" y="469.597"/>
      <point x="118" y="378.814" type="curve" smooth="yes"/>
      <point x="118" y="288.033"/>
      <point x="134.562" y="211.712"/>
      <point x="166.193" y="162.456" type="curve" smooth="yes"/>
      <point x="197.824" y="113.199"/>
      <point x="240.201" y="86.625"/>
      <point x="316" y="86.625" type="curve" smooth="yes"/>
      <point x="391.798" y="86.625"/>
      <point x="434.175" y="113.199"/>
      <point x="465.807" y="162.456" type="curve" smooth="yes"/>
      <point x="497.438" y="211.712"/>
      <point x="514" y="288.033"/>
      <point x="514" y="378.814" type="curve" smooth="yes"/>
      <point x="514" y="469.597"/>
      <point x="497.438" y="545.952"/>
      <point x="465.807" y="595.208" type="curve" smooth="yes"/>
      <point x="434.175" y="644.465"/>
      <point x="391.798" y="671.005"/>
    </contour>
  </outline>
</glyph>
<glyph name="P" format="1">
  <advance width="552"/>
  <unicode hex="0050"/>
  <outline>
    <contour>
      <point x="100" y="752" type="curve" smooth="no"/>
      <point x="276" y="752" type="line" smooth="no"/>
      <point x="276" y="752"/>
      <point x="329.168" y="752.605"/>
      <point x="383.663" y="725.359" type="curve" smooth="yes"/>
      <point x="438.158" y="698.112"/>
      <point x="496" y="634.666"/>
      <point x="496" y="532" type="curve" smooth="yes"/>
      <point x="496" y="410.267"/>
      <point x="440.781" y="339.733"/>
      <point x="383.663" y="311.175" type="curve" smooth="yes"/>
      <point x="333.049" y="285.867"/>
      <point x="285.609" y="288.941"/>
      <point x="274.935" y="290" type="curve" smooth="yes"/>
      <point x="232" y="290" type="line" smooth="yes"/>
      <point x="231.828" y="289.997"/>
      <point x="231.55" y="289.995"/>
      <point x="231.378" y="289.995" type="curve" smooth="yes"/>
      <point x="207.088" y="289.995"/>
      <point x="187.374" y="309.709"/>
      <point x="187.374" y="334" type="curve" smooth="yes"/>
      <point x="187.374" y="358.29"/>
      <point x="207.088" y="378.005"/>
      <point x="231.378" y="378.005" type="curve" smooth="yes"/>
      <point x="232" y="378" type="line" smooth="yes"/>
      <point x="276" y="378" type="line" smooth="yes"/>
      <point x="276.252" y="378" type="line" smooth="yes"/>
      <point x="277.695" y="378"/>
      <point x="280.031" y="377.861"/>
      <point x="281.466" y="377.69" type="curve" smooth="yes"/>
      <point x="281.466" y="377.69"/>
      <point x="313.456" y="374.418"/>
      <point x="344.338" y="389.859" type="curve" smooth="yes"/>
      <point x="375.22" y="405.301"/>
      <point x="408" y="433.732"/>
      <point x="408" y="532" type="curve" smooth="yes"/>
      <point x="408" y="605.333"/>
      <point x="377.843" y="629.922"/>
      <point x="344.338" y="646.675" type="curve" smooth="yes"/>
      <point x="310.833" y="663.428"/>
      <point x="276" y="664"/>
      <point x="276" y="664" type="curve" smooth="no"/>
      <point x="144" y="664" type="line" smooth="no"/>
      <point x="144" y="44.627" type="line" smooth="yes"/>
      <point x="144" y="44.4551"/>
      <point x="144.005" y="44.1758"/>
      <point x="144.005" y="44.0039" type="curve" smooth="yes"/>
      <point x="144.005" y="19.7139"/>
      <point x="124.29" y="0"/>
      <point x="100" y="0" type="curve" smooth="yes"/>
      <point x="75.71" y="0"/>
      <point x="55.9961" y="19.7139"/>
      <point x="55.9961" y="44.0039" type="curve" smooth="yes"/>
      <point x="55.9961" y="44.1758"/>
      <point x="56" y="44.4551"/>
      <point x="56" y="44.627" type="curve" smooth="yes"/>
      <point x="56" y="708" type="line" smooth="yes"/>
      <point x="56.002" y="732.285"/>
      <point x="75.7139" y="751.997"/>
    </contour>
  </outline>
</glyph>
<glyph name="Q" format="1">
  <advance width="600"/>
  <unicode hex="0051"/>
  <outline>
    <contour>
      <point x="300" y="758.317" type="curve" smooth="yes"/>
      <point x="399.91" y="758.317"/>
      <point x="478.312" y="713.03"/>
      <point x="523.75" y="642.268" type="curve" smooth="yes"/>
      <point x="569.18" y="571.505"/>
      <point x="585.66" y="479.863"/>
      <point x="585.66" y="379.157" type="curve" smooth="yes"/>
      <point x="585.66" y="278.453"/>
      <point x="569.18" y="186.845"/>
      <point x="523.75" y="116.091" type="curve" smooth="yes"/>
      <point x="504.21" y="85.6807"/>
      <point x="478.59" y="59.9707"/>
      <point x="447.812" y="40.5303" type="curve" smooth="no"/>
      <point x="491.74" y="-32.6797" type="line" smooth="yes"/>
      <point x="495.2" y="-38.46"/>
      <point x="498.01" y="-48.5996"/>
      <point x="498.01" y="-55.3291" type="curve" smooth="yes"/>
      <point x="498.01" y="-79.6201"/>
      <point x="478.3" y="-99.3398"/>
      <point x="454" y="-99.3398" type="curve" smooth="yes"/>
      <point x="440.24" y="-99.3398"/>
      <point x="423.33" y="-89.7598"/>
      <point x="416.26" y="-77.96" type="curve" smooth="yes"/>
      <point x="365.312" y="6.9502" type="line" smooth="no"/>
      <point x="344.771" y="2.41016"/>
      <point x="322.96" y="0"/>
      <point x="300" y="0" type="curve" smooth="yes"/>
      <point x="200.07" y="0"/>
      <point x="121.689" y="45.3301"/>
      <point x="76.25" y="116.091" type="curve" smooth="yes"/>
      <point x="30.8105" y="186.845"/>
      <point x="14.3398" y="278.453"/>
      <point x="14.3398" y="379.157" type="curve" smooth="yes"/>
      <point x="14.3398" y="479.863"/>
      <point x="30.8105" y="571.505"/>
      <point x="76.25" y="642.268" type="curve" smooth="yes"/>
      <point x="121.689" y="713.03"/>
      <point x="200.07" y="758.317"/>
    </contour>
    <contour>
      <point x="300" y="670.999" type="curve" smooth="yes"/>
      <point x="223.91" y="670.999"/>
      <point x="181.312" y="644.258"/>
      <point x="149.75" y="595.099" type="curve" smooth="yes"/>
      <point x="118.18" y="545.951"/>
      <point x="101.66" y="469.819"/>
      <point x="101.66" y="379.157" type="curve" smooth="yes"/>
      <point x="101.66" y="288.495"/>
      <point x="118.18" y="212.397"/>
      <point x="149.75" y="163.25" type="curve" smooth="yes"/>
      <point x="181.312" y="114.101"/>
      <point x="223.91" y="87.3203"/>
      <point x="300" y="87.3203" type="curve" smooth="yes"/>
      <point x="376.07" y="87.3203"/>
      <point x="418.689" y="114.101"/>
      <point x="450.25" y="163.25" type="curve" smooth="yes"/>
      <point x="481.812" y="212.397"/>
      <point x="498.34" y="288.495"/>
      <point x="498.34" y="379.157" type="curve" smooth="yes"/>
      <point x="498.34" y="469.819"/>
      <point x="481.812" y="545.951"/>
      <point x="450.25" y="595.099" type="curve" smooth="yes"/>
      <point x="418.689" y="644.258"/>
      <point x="376.07" y="670.999"/>
    </contour>
  </outline>
</glyph>
<glyph name="R" format="1">
  <advance width="552"/>
  <unicode hex="0052"/>
  <outline>
    <contour>
      <point x="100.02" y="750" type="curve" smooth="yes"/>
      <point x="276.02" y="750" type="line" smooth="no"/>
      <point x="276.02" y="750"/>
      <point x="329.182" y="750.605"/>
      <point x="383.682" y="723.359" type="curve" smooth="yes"/>
      <point x="438.171" y="696.11"/>
      <point x="496.02" y="632.674"/>
      <point x="496.02" y="530" type="curve" smooth="yes"/>
      <point x="496.02" y="408.273"/>
      <point x="440.801" y="337.732"/>
      <point x="383.682" y="309.175" type="curve" smooth="yes"/>
      <point x="378.761" y="306.724"/>
      <point x="373.859" y="304.534"/>
      <point x="369.029" y="302.575" type="curve" smooth="no"/>
      <point x="490.662" y="65.5898" type="line" smooth="yes"/>
      <point x="496.024" y="55.1406"/>
      <point x="498.202" y="42.8799"/>
      <point x="495.031" y="31.5596" type="curve" smooth="yes"/>
      <point x="491.86" y="20.2402"/>
      <point x="483.952" y="10.3301"/>
      <point x="473.622" y="4.73047" type="curve" smooth="yes"/>
      <point x="463.281" y="-0.860352"/>
      <point x="450.67" y="-2.08008"/>
      <point x="439.46" y="1.4502" type="curve" smooth="yes"/>
      <point x="428.25" y="4.96973"/>
      <point x="418.709" y="13.25"/>
      <point x="413.321" y="23.6895" type="curve" smooth="yes"/>
      <point x="276.979" y="287.837" type="line" smooth="yes"/>
      <point x="276.229" y="287.891"/>
      <point x="275.501" y="287.946"/>
      <point x="274.949" y="288" type="curve" smooth="yes"/>
      <point x="144.02" y="288" type="line" smooth="no"/>
      <point x="144" y="44.6299" type="line" smooth="yes"/>
      <point x="143.999" y="33.0088"/>
      <point x="139.5" y="21.3799"/>
      <point x="131.34" y="13.1104" type="curve" smooth="yes"/>
      <point x="123.17" y="4.83984"/>
      <point x="111.622" y="0"/>
      <point x="100" y="0" type="curve" smooth="yes"/>
      <point x="88.3721" y="0"/>
      <point x="76.8213" y="4.83984"/>
      <point x="68.6611" y="13.1104" type="curve" smooth="yes"/>
      <point x="60.501" y="21.3799"/>
      <point x="55.999" y="33.0088"/>
      <point x="56.001" y="44.6299" type="curve" smooth="yes"/>
      <point x="56.0195" y="324.885" type="line" smooth="yes"/>
      <point x="55.2393" y="329.603"/>
      <point x="55.2393" y="334.442"/>
      <point x="56.0195" y="339.15" type="curve" smooth="yes"/>
      <point x="56.0195" y="706" type="line" smooth="yes"/>
      <point x="56.0195" y="717.518"/>
      <point x="60.7598" y="728.969"/>
      <point x="68.9092" y="737.12" type="curve" smooth="yes"/>
      <point x="77.0508" y="745.261"/>
      <point x="88.501" y="750"/>
    </contour>
    <contour>
      <point x="144.02" y="662" type="line" smooth="no"/>
      <point x="144.02" y="376" type="line" smooth="no"/>
      <point x="144.02" y="376"/>
      <point x="236.199" y="376.496"/>
      <point x="281.479" y="375.692" type="curve" smooth="yes"/>
      <point x="375.841" y="375.692"/>
      <point x="405.859" y="457.787"/>
      <point x="408.02" y="530" type="curve" smooth="no"/>
      <point x="408.02" y="603.337"/>
      <point x="377.859" y="627.924"/>
      <point x="344.352" y="644.675" type="curve" smooth="yes"/>
      <point x="310.841" y="661.429"/>
      <point x="276.02" y="662"/>
      <point x="276.02" y="662" type="curve" smooth="no"/>
    </contour>
  </outline>
</glyph>
<glyph name="S" format="1">
  <advance width="560"/>
  <unicode hex="0053"/>
  <outline>
    <contour>
      <point x="271.515" y="760" type="curve" smooth="yes"/>
      <point x="393.245" y="760"/>
      <point x="471.925" y="708.609"/>
      <point x="471.925" y="708.609" type="curve" smooth="no"/>
      <point x="483.045" y="701.436"/>
      <point x="492.074" y="684.871"/>
      <point x="492.074" y="671.626" type="curve" smooth="yes"/>
      <point x="492.074" y="647.338"/>
      <point x="472.363" y="627.626"/>
      <point x="448.074" y="627.626" type="curve" smooth="yes"/>
      <point x="440.515" y="627.626"/>
      <point x="429.335" y="631.103"/>
      <point x="423.104" y="635.393" type="curve" smooth="no"/>
      <point x="423.104" y="635.393"/>
      <point x="369.773" y="672"/>
      <point x="271.515" y="672" type="curve" smooth="yes"/>
      <point x="225.313" y="672"/>
      <point x="192.874" y="658.56"/>
      <point x="171.863" y="639.451" type="curve" smooth="yes"/>
      <point x="150.845" y="620.345"/>
      <point x="139.515" y="595"/>
      <point x="139.515" y="562" type="curve" smooth="yes"/>
      <point x="139.515" y="530.562"/>
      <point x="151.204" y="511.512"/>
      <point x="168.974" y="494.867" type="curve" smooth="yes"/>
      <point x="186.733" y="478.224"/>
      <point x="211.753" y="466.987"/>
      <point x="229.434" y="461.075" type="curve" smooth="yes"/>
      <point x="274.515" y="446"/>
      <point x="335.269" y="422.139"/>
      <point x="377.624" y="407.788" type="curve" smooth="yes"/>
      <point x="406.515" y="398"/>
      <point x="453.965" y="373.817"/>
      <point x="483.525" y="340.471" type="curve" smooth="yes"/>
      <point x="518.515" y="301"/>
      <point x="525.52" y="269.871"/>
      <point x="525.52" y="208.997" type="curve" smooth="yes"/>
      <point x="525.52" y="147.298"/>
      <point x="492.06" y="91.2305"/>
      <point x="445.95" y="54.4502" type="curve" smooth="yes"/>
      <point x="399.85" y="17.6602"/>
      <point x="337.24" y="-0.820312"/>
      <point x="266" y="0" type="curve" smooth="yes"/>
      <point x="119.47" y="1.66992"/>
      <point x="43.4297" y="106.84"/>
      <point x="43.4297" y="106.84" type="curve" smooth="no"/>
      <point x="39.0596" y="113.101"/>
      <point x="35.5098" y="124.38"/>
      <point x="35.5098" y="132.021" type="curve" smooth="yes"/>
      <point x="35.5098" y="156.31"/>
      <point x="55.2197" y="176.031"/>
      <point x="79.5195" y="176.031" type="curve" smooth="yes"/>
      <point x="92.1904" y="176.031"/>
      <point x="108.36" y="167.595"/>
      <point x="115.609" y="157.198" type="curve" smooth="no"/>
      <point x="115.609" y="157.198"/>
      <point x="160.27" y="89.2197"/>
      <point x="267.039" y="88" type="curve" smooth="yes"/>
      <point x="322.43" y="87.3701"/>
      <point x="364.33" y="101.91"/>
      <point x="391.06" y="123.23" type="curve" smooth="yes"/>
      <point x="417.789" y="144.56"/>
      <point x="436.283" y="171.717"/>
      <point x="437.52" y="208.997" type="curve" smooth="yes"/>
      <point x="438.515" y="239"/>
      <point x="441.513" y="286.989"/>
      <point x="353.426" y="321.188" type="curve" smooth="yes"/>
      <point x="203.585" y="376.959" type="line" smooth="yes"/>
      <point x="176.219" y="386.9"/>
      <point x="140.135" y="401.312"/>
      <point x="108.814" y="430.662" type="curve" smooth="yes"/>
      <point x="77.4951" y="460.01"/>
      <point x="51.5146" y="505.449"/>
      <point x="51.5146" y="562" type="curve" smooth="yes"/>
      <point x="51.5146" y="617"/>
      <point x="73.1846" y="668.7"/>
      <point x="112.665" y="704.594" type="curve" smooth="yes"/>
      <point x="152.154" y="740.485"/>
      <point x="207.715" y="760"/>
    </contour>
  </outline>
</glyph>
<glyph name="T" format="1">
  <advance width="600"/>
  <unicode hex="0054"/>
  <outline>
    <contour>
      <point x="80.0059" y="735.137" type="line" smooth="yes"/>
      <point x="520.006" y="735.137" type="line" smooth="yes"/>
      <point x="520.625" y="735.148" type="line" smooth="yes"/>
      <point x="544.916" y="735.148"/>
      <point x="564.625" y="715.425"/>
      <point x="564.625" y="691.137" type="curve" smooth="yes"/>
      <point x="564.625" y="666.849"/>
      <point x="544.916" y="647.137"/>
      <point x="520.625" y="647.137" type="curve" smooth="yes"/>
      <point x="520.006" y="647.137" type="line" smooth="yes"/>
      <point x="342.146" y="647.137" type="line" smooth="no"/>
      <point x="342.146" y="42.1396" type="line" smooth="yes"/>
      <point x="342.146" y="18.8701"/>
      <point x="323.266" y="0"/>
      <point x="300.006" y="0" type="curve" smooth="yes"/>
      <point x="276.736" y="0"/>
      <point x="257.855" y="18.8701"/>
      <point x="257.855" y="42.1396" type="curve" smooth="yes"/>
      <point x="257.855" y="647.137" type="line" smooth="no"/>
      <point x="80.0059" y="647.137" type="line" smooth="yes"/>
      <point x="79.375" y="647.137" type="line" smooth="yes"/>
      <point x="55.0859" y="647.137"/>
      <point x="35.375" y="666.849"/>
      <point x="35.375" y="691.137" type="curve" smooth="yes"/>
      <point x="35.375" y="715.425"/>
      <point x="55.0859" y="735.148"/>
      <point x="79.375" y="735.148" type="curve" smooth="yes"/>
    </contour>
  </outline>
</glyph>
<glyph name="U" format="1">
  <advance width="640"/>
  <unicode hex="0055"/>
  <outline>
    <contour>
      <point x="99.3398" y="747.932" type="curve" smooth="yes"/>
      <point x="100" y="747.942" type="line" smooth="yes"/>
      <point x="124.101" y="747.942"/>
      <point x="143.66" y="728.386"/>
      <point x="143.66" y="704.284" type="curve" smooth="yes"/>
      <point x="143.66" y="704.108"/>
      <point x="143.66" y="703.833"/>
      <point x="143.65" y="703.657" type="curve" smooth="yes"/>
      <point x="143.65" y="318.657" type="line" smooth="yes"/>
      <point x="143.65" y="257.509"/>
      <point x="154.812" y="196.338"/>
      <point x="180.92" y="155" type="curve" smooth="yes"/>
      <point x="207.021" y="113.66"/>
      <point x="243.82" y="87.3203"/>
      <point x="320" y="87.3203" type="curve" smooth="yes"/>
      <point x="396.17" y="87.3203"/>
      <point x="432.971" y="113.66"/>
      <point x="459.08" y="155" type="curve" smooth="yes"/>
      <point x="485.18" y="196.338"/>
      <point x="496.34" y="257.509"/>
      <point x="496.34" y="318.657" type="curve" smooth="yes"/>
      <point x="496.34" y="703.657" type="line" smooth="yes"/>
      <point x="496.34" y="704.119" type="line" smooth="yes"/>
      <point x="496.34" y="728.219"/>
      <point x="515.9" y="747.779"/>
      <point x="540" y="747.779" type="curve" smooth="yes"/>
      <point x="564.1" y="747.779"/>
      <point x="583.66" y="728.219"/>
      <point x="583.66" y="704.119" type="curve" smooth="yes"/>
      <point x="583.66" y="703.999"/>
      <point x="583.66" y="703.79"/>
      <point x="583.65" y="703.657" type="curve" smooth="yes"/>
      <point x="583.65" y="318.657" type="line" smooth="yes"/>
      <point x="583.65" y="247.805"/>
      <point x="572.812" y="171.521"/>
      <point x="532.92" y="108.35" type="curve" smooth="yes"/>
      <point x="493.021" y="45.1895"/>
      <point x="419.82" y="0"/>
      <point x="320" y="0" type="curve" smooth="yes"/>
      <point x="220.17" y="0"/>
      <point x="146.971" y="45.1895"/>
      <point x="107.08" y="108.35" type="curve" smooth="yes"/>
      <point x="67.1797" y="171.521"/>
      <point x="56.3398" y="247.805"/>
      <point x="56.3398" y="318.657" type="curve" smooth="yes"/>
      <point x="56.3398" y="703.657" type="line" smooth="yes"/>
      <point x="56.3398" y="704.284" type="line" smooth="yes"/>
      <point x="56.3398" y="728.021"/>
      <point x="75.6006" y="747.582"/>
    </contour>
  </outline>
</glyph>
<glyph name="V" format="1">
  <advance width="600"/>
  <unicode hex="0056"/>
  <outline>
    <contour>
      <point x="520.585" y="748.553" type="line" smooth="yes"/>
      <point x="544.715" y="748.399"/>
      <point x="564.295" y="728.688"/>
      <point x="564.295" y="704.553" type="curve" smooth="yes"/>
      <point x="564.295" y="700.439"/>
      <point x="563.195" y="693.938"/>
      <point x="561.835" y="690.056" type="curve" smooth="yes"/>
      <point x="341.835" y="30.0605" type="line" smooth="yes"/>
      <point x="336.285" y="13.4697"/>
      <point x="317.595" y="0"/>
      <point x="300.104" y="0" type="curve" smooth="yes"/>
      <point x="282.615" y="0"/>
      <point x="263.916" y="13.4697"/>
      <point x="258.375" y="30.0605" type="curve" smooth="yes"/>
      <point x="38.375" y="690.056" type="line" smooth="yes"/>
      <point x="36.9062" y="694.082"/>
      <point x="35.7051" y="700.836"/>
      <point x="35.7051" y="705.124" type="curve" smooth="yes"/>
      <point x="35.7051" y="729.414"/>
      <point x="55.4258" y="749.124"/>
      <point x="79.7158" y="749.124" type="curve" smooth="yes"/>
      <point x="97.7461" y="749.124"/>
      <point x="116.209" y="734.994"/>
      <point x="121.835" y="717.863" type="curve" smooth="yes"/>
      <point x="300.104" y="175.054" type="line" smooth="no"/>
      <point x="478.375" y="717.863" type="line" smooth="yes"/>
      <point x="483.92" y="734.746"/>
      <point x="502.535" y="748.564"/>
      <point x="520.314" y="748.564" type="curve" smooth="yes"/>
    </contour>
  </outline>
</glyph>
<glyph name="W" format="1">
  <advance width="814"/>
  <unicode hex="0057"/>
  <outline>
    <contour>
      <point x="76.4805" y="743.16" type="curve" smooth="yes"/>
      <point x="85.4307" y="743.16"/>
      <point x="94.3613" y="740.166"/>
      <point x="101.49" y="734.754" type="curve" smooth="yes"/>
      <point x="108.622" y="729.342"/>
      <point x="113.91" y="721.555"/>
      <point x="116.32" y="712.939" type="curve" smooth="yes"/>
      <point x="266.161" y="203.609" type="line" smooth="no"/>
      <point x="364.582" y="626.447" type="line" smooth="no"/>
      <point x="365.211" y="638.209"/>
      <point x="371.123" y="649.582"/>
      <point x="380.401" y="656.842" type="curve" smooth="yes"/>
      <point x="380.431" y="656.873"/>
      <point x="380.461" y="656.908"/>
      <point x="380.5" y="656.939" type="curve" smooth="yes"/>
      <point x="380.521" y="656.961"/>
      <point x="380.541" y="656.982"/>
      <point x="380.562" y="657.008" type="curve" smooth="yes"/>
      <point x="386.541" y="661.857"/>
      <point x="393.892" y="664.992"/>
      <point x="401.521" y="665.938" type="curve" smooth="yes"/>
      <point x="409.151" y="666.883"/>
      <point x="417.041" y="665.641"/>
      <point x="424.011" y="662.408" type="curve" smooth="yes"/>
      <point x="431" y="659.162"/>
      <point x="437.032" y="653.936"/>
      <point x="441.231" y="647.492" type="curve" smooth="yes"/>
      <point x="445.431" y="641.057"/>
      <point x="447.791" y="633.422"/>
      <point x="447.94" y="625.734" type="curve" smooth="no"/>
      <point x="547.071" y="203.123" type="line" smooth="no"/>
      <point x="697.062" y="712.939" type="line" smooth="yes"/>
      <point x="699.401" y="721.367"/>
      <point x="704.5" y="728.99"/>
      <point x="711.392" y="734.381" type="curve" smooth="yes"/>
      <point x="718.271" y="739.781"/>
      <point x="726.911" y="742.895"/>
      <point x="735.651" y="743.16" type="curve" smooth="yes"/>
      <point x="748.741" y="743.533"/>
      <point x="761.851" y="737.262"/>
      <point x="769.771" y="726.834" type="curve" smooth="yes"/>
      <point x="777.67" y="716.406"/>
      <point x="780.19" y="702.096"/>
      <point x="776.321" y="689.6" type="curve" smooth="yes"/>
      <point x="582.202" y="29.5996" type="line" smooth="yes"/>
      <point x="579.651" y="20.9297"/>
      <point x="574.161" y="13.1504"/>
      <point x="566.851" y="7.83984" type="curve" smooth="yes"/>
      <point x="559.532" y="2.53125"/>
      <point x="550.44" y="-0.289062"/>
      <point x="541.401" y="-0.0390625" type="curve" smooth="yes"/>
      <point x="532.362" y="0.220703"/>
      <point x="523.44" y="3.54102"/>
      <point x="516.44" y="9.25" type="curve" smooth="yes"/>
      <point x="509.44" y="14.9609"/>
      <point x="504.392" y="23.0312"/>
      <point x="502.321" y="31.8301" type="curve" smooth="yes"/>
      <point x="406.302" y="474.133" type="line" smooth="no"/>
      <point x="311.052" y="31.9004" type="line" smooth="yes"/>
      <point x="309" y="23.0996"/>
      <point x="303.961" y="15.0195"/>
      <point x="296.952" y="9.30078" type="curve" smooth="yes"/>
      <point x="289.961" y="3.58008"/>
      <point x="281.041" y="0.259766"/>
      <point x="272" y="0" type="curve" smooth="yes"/>
      <point x="262.961" y="-0.269531"/>
      <point x="253.862" y="2.55078"/>
      <point x="246.552" y="7.84961" type="curve" smooth="yes"/>
      <point x="239.222" y="13.1504"/>
      <point x="233.741" y="20.9297"/>
      <point x="231.17" y="29.5996" type="curve" smooth="yes"/>
      <point x="37.0518" y="689.6" type="line" smooth="yes"/>
      <point x="33.2422" y="701.895"/>
      <point x="35.6221" y="715.955"/>
      <point x="43.251" y="726.328" type="curve" smooth="yes"/>
      <point x="50.8926" y="736.701"/>
      <point x="63.6006" y="743.135"/>
    </contour>
  </outline>
</glyph>
<glyph name="X" format="1">
  <advance width="600"/>
  <unicode hex="0058"/>
  <outline>
    <contour>
      <point x="79.5146" y="749.137" type="curve" smooth="yes"/>
      <point x="79.6348" y="749.137" type="line" smooth="yes"/>
      <point x="92.875" y="749.137"/>
      <point x="109.435" y="740.118"/>
      <point x="116.614" y="728.997" type="curve" smooth="yes"/>
      <point x="556.615" y="69" type="line" smooth="yes"/>
      <point x="560.916" y="62.7695"/>
      <point x="564.395" y="51.5703"/>
      <point x="564.395" y="44" type="curve" smooth="yes"/>
      <point x="564.395" y="19.7197"/>
      <point x="544.685" y="0"/>
      <point x="520.385" y="0" type="curve" smooth="yes"/>
      <point x="507.145" y="0"/>
      <point x="490.564" y="9.0498"/>
      <point x="483.395" y="20.1797" type="curve" smooth="yes"/>
      <point x="300.005" y="295.256" type="line" smooth="no"/>
      <point x="116.614" y="20.1797" type="line" smooth="yes"/>
      <point x="109.435" y="9.0498"/>
      <point x="92.8643" y="0"/>
      <point x="79.6045" y="0" type="curve" smooth="yes"/>
      <point x="55.3145" y="0"/>
      <point x="35.6055" y="19.7197"/>
      <point x="35.6055" y="44" type="curve" smooth="yes"/>
      <point x="35.6055" y="51.5703"/>
      <point x="39.0947" y="62.7695"/>
      <point x="43.3945" y="69" type="curve" smooth="yes"/>
      <point x="244.614" y="370.849" type="line" smooth="yes"/>
      <point x="245.305" y="371.86"/>
      <point x="246.464" y="373.444"/>
      <point x="247.234" y="374.378" type="curve" smooth="no"/>
      <point x="43.3945" y="680.179" type="line" smooth="yes"/>
      <point x="39.1055" y="686.404"/>
      <point x="35.625" y="697.581"/>
      <point x="35.625" y="705.137" type="curve" smooth="yes"/>
      <point x="35.625" y="729.36"/>
      <point x="55.2939" y="749.072"/>
    </contour>
    <contour>
      <point x="518.625" y="749.105" type="curve" smooth="yes"/>
      <point x="519.104" y="749.126"/>
      <point x="519.865" y="749.137"/>
      <point x="520.335" y="749.137" type="curve" smooth="yes"/>
      <point x="544.625" y="749.137"/>
      <point x="564.345" y="729.425"/>
      <point x="564.345" y="705.137" type="curve" smooth="yes"/>
      <point x="564.345" y="697.746"/>
      <point x="561.005" y="686.768"/>
      <point x="556.885" y="680.63" type="curve" smooth="yes"/>
      <point x="413.885" y="460.63" type="line" smooth="yes"/>
      <point x="406.765" y="449.102"/>
      <point x="389.996" y="439.73"/>
      <point x="376.444" y="439.73" type="curve" smooth="yes"/>
      <point x="352.145" y="439.73"/>
      <point x="332.435" y="459.452"/>
      <point x="332.435" y="483.74" type="curve" smooth="yes"/>
      <point x="332.435" y="491.253"/>
      <point x="335.875" y="502.387"/>
      <point x="340.125" y="508.589" type="curve" smooth="yes"/>
      <point x="483.125" y="728.589" type="line" smooth="yes"/>
      <point x="489.935" y="739.413"/>
      <point x="505.845" y="748.598"/>
    </contour>
  </outline>
</glyph>
<glyph name="Y" format="1">
  <advance width="600"/>
  <unicode hex="0059"/>
  <outline>
    <contour>
      <point x="520.651" y="745.06" type="curve" smooth="yes"/>
      <point x="521.861" y="745.07" type="line" smooth="yes"/>
      <point x="546.151" y="745.07"/>
      <point x="565.871" y="725.36"/>
      <point x="565.871" y="701.07" type="curve" smooth="yes"/>
      <point x="565.871" y="693.53"/>
      <point x="562.391" y="682.35"/>
      <point x="558.121" y="676.14" type="curve" smooth="yes"/>
      <point x="354" y="370" type="line" smooth="no"/>
      <point x="354.99" y="44.8701" type="line" smooth="yes"/>
      <point x="354.99" y="44.6299"/>
      <point x="355" y="44.2402"/>
      <point x="355" y="44.0098" type="curve" smooth="yes"/>
      <point x="355" y="19.7197"/>
      <point x="335.29" y="0"/>
      <point x="311" y="0" type="curve" smooth="yes"/>
      <point x="286.7" y="0"/>
      <point x="266.99" y="19.7197"/>
      <point x="266.99" y="44.0098" type="curve" smooth="yes"/>
      <point x="266.99" y="44.1797" type="line" smooth="yes"/>
      <point x="265.901" y="382.78" type="line" smooth="yes"/>
      <point x="265.901" y="383.15" type="line" smooth="yes"/>
      <point x="265.901" y="390.51"/>
      <point x="269.209" y="401.44"/>
      <point x="273.291" y="407.57" type="curve" smooth="yes"/>
      <point x="484.901" y="724.95" type="line" smooth="yes"/>
      <point x="491.841" y="735.7"/>
      <point x="507.861" y="744.71"/>
    </contour>
    <contour>
      <point x="81.54" y="745.1" type="line" smooth="yes"/>
      <point x="94.8203" y="744.97"/>
      <point x="111.332" y="735.77"/>
      <point x="118.391" y="724.54" type="curve" smooth="yes"/>
      <point x="261.391" y="504.54" type="line" smooth="yes"/>
      <point x="265.641" y="498.34"/>
      <point x="269.082" y="487.21"/>
      <point x="269.082" y="479.7" type="curve" smooth="yes"/>
      <point x="269.082" y="455.4"/>
      <point x="249.371" y="435.69"/>
      <point x="225.082" y="435.69" type="curve" smooth="yes"/>
      <point x="211.521" y="435.69"/>
      <point x="194.741" y="445.05"/>
      <point x="187.629" y="456.59" type="curve" smooth="yes"/>
      <point x="44.6318" y="676.59" type="line" smooth="yes"/>
      <point x="40.5107" y="682.73"/>
      <point x="37.1719" y="693.7"/>
      <point x="37.1719" y="701.1" type="curve" smooth="yes"/>
      <point x="37.1719" y="725.38"/>
      <point x="56.8906" y="745.1"/>
      <point x="81.1816" y="745.1" type="curve" smooth="yes"/>
    </contour>
  </outline>
</glyph>
<glyph name="Z" format="1">
  <advance width="600"/>
  <unicode hex="005a"/>
  <outline>
    <contour>
      <point x="101.689" y="737" type="line" smooth="yes"/>
      <point x="497.689" y="737" type="line" smooth="yes"/>
      <point x="521.969" y="736.98"/>
      <point x="541.68" y="717.27"/>
      <point x="541.68" y="693" type="curve" smooth="yes"/>
      <point x="541.68" y="685.85"/>
      <point x="538.539" y="675.18"/>
      <point x="534.68" y="669.17" type="curve" smooth="yes"/>
      <point x="160.369" y="88" type="line" smooth="no"/>
      <point x="519.689" y="88" type="line" smooth="yes"/>
      <point x="520.312" y="88" type="line" smooth="yes"/>
      <point x="544.609" y="88"/>
      <point x="564.32" y="68.2812"/>
      <point x="564.32" y="44" type="curve" smooth="yes"/>
      <point x="564.32" y="19.7109"/>
      <point x="544.609" y="0"/>
      <point x="520.312" y="0" type="curve" smooth="yes"/>
      <point x="519.689" y="0" type="line" smooth="yes"/>
      <point x="79.6895" y="0" type="line" smooth="yes"/>
      <point x="79.6895" y="0" type="line" smooth="yes"/>
      <point x="55.3916" y="0"/>
      <point x="35.6797" y="19.7109"/>
      <point x="35.6797" y="44" type="curve" smooth="yes"/>
      <point x="35.6797" y="51.1602"/>
      <point x="38.8203" y="61.8398"/>
      <point x="42.71" y="67.8496" type="curve" smooth="yes"/>
      <point x="417.01" y="649" type="line" smooth="no"/>
      <point x="101.689" y="649" type="line" smooth="yes"/>
      <point x="101.07" y="649" type="line" smooth="yes"/>
      <point x="76.7793" y="649"/>
      <point x="57.0615" y="668.711"/>
      <point x="57.0615" y="693" type="curve" smooth="yes"/>
      <point x="57.0615" y="717.281"/>
      <point x="76.7793" y="737"/>
      <point x="101.07" y="737" type="curve" smooth="yes"/>
    </contour>
  </outline>
</glyph>
<glyph name="asciicircum" format="1">
  <advance width="800"/>
  <unicode hex="005e"/>
  <outline>
    <contour>
      <point x="399.929" y="883.571" type="line" smooth="no"/>
      <point x="504.461" y="799.289" type="line" smooth="yes"/>
      <point x="521.648" y="785.431"/>
      <point x="547.333" y="790.17"/>
      <point x="560.355" y="808" type="curve" smooth="yes"/>
      <point x="573.377" y="825.832"/>
      <point x="569.399" y="850.768"/>
      <point x="551.645" y="863.895" type="curve" smooth="yes"/>
      <point x="426.588" y="956.352" type="line" smooth="no"/>
      <point x="412.807" y="968.592"/>
      <point x="391.864" y="970.099"/>
      <point x="376.461" y="958.711" type="curve" smooth="yes"/>
      <point x="248.355" y="864" type="line" smooth="yes"/>
      <point x="230.601" y="850.873"/>
      <point x="226.623" y="825.938"/>
      <point x="239.645" y="808.105" type="curve" smooth="yes"/>
      <point x="252.668" y="790.274"/>
      <point x="278.352" y="785.535"/>
      <point x="295.54" y="799.395" type="curve" smooth="yes"/>
    </contour>
  </outline>
</glyph>
<glyph name="grave" format="1">
  <advance width="800"/>
  <unicode hex="0060"/>
  <outline>
    <contour>
      <point x="314" y="894" type="line" smooth="yes"/>
      <point x="296.244" y="907.127"/>
      <point x="292.267" y="932.063"/>
      <point x="305.289" y="949.895" type="curve" smooth="yes"/>
      <point x="318.312" y="967.726"/>
      <point x="343.428" y="971.732"/>
      <point x="361.184" y="958.605" type="curve" smooth="yes"/>
      <point x="489.289" y="863.895" type="line" smooth="yes"/>
      <point x="507.065" y="850.796"/>
      <point x="511.022" y="825.831"/>
      <point x="498" y="808" type="curve" smooth="yes"/>
      <point x="484.978" y="790.169"/>
      <point x="459.881" y="786.191"/>
      <point x="442.105" y="799.289" type="curve" smooth="yes"/>
    </contour>
  </outline>
</glyph>
<glyph name="d" format="1">
  <advance width="670"/>
  <unicode hex="0064"/>
  <outline>
    <contour>
      <point x="100" y="0" type="line" smooth="no"/>
      <point x="100" y="750" type="line" smooth="no"/>
      <point x="570" y="750" type="line" smooth="no"/>
      <point x="570" y="0" type="line" smooth="no"/>
    </contour>
  </outline>
</glyph>
<glyph name="e" format="1">
  <advance width="640"/>
  <unicode hex="0065"/>
  <outline>
    <contour>
      <point x="100" y="0" type="line" smooth="no"/>
      <point x="100" y="500" type="line" smooth="no"/>
      <point x="540" y="500" type="line" smooth="no"/>
      <point x="540" y="0" type="line" smooth="no"/>
    </contour>
  </outline>
</glyph>
<glyph name="m" format="1">
  <advance width="976"/>
  <unicode hex="006d"/>
  <outline>
    <contour>
      <point x="100" y="0" type="line" smooth="no"/>
      <point x="100" y="500" type="line" smooth="no"/>
      <point x="875" y="500" type="line" smooth="no"/>
      <point x="875" y="0" type="line" smooth="no"/>
    </contour>
  </outline>
</glyph>
<glyph name="n" format="1">
  <advance width="640"/>
  <unicode hex="006e"/>
  <outline>
    <contour>
      <point x="440" y="0" type="line" smooth="no"/>
      <point x="440" y="410" type="line" smooth="no"/>
      <point x="200" y="410" type="line" smooth="no"/>
      <point x="200" y="0" type="line" smooth="no"/>
      <point x="100" y="0" type="line" smooth="no"/>
      <point x="100" y="500" type="line" smooth="no"/>
      <point x="540" y="500" type="line" smooth="no"/>
      <point x="540" y="0" type="line" smooth="no"/>
    </contour>
  </outline>
</glyph>
<glyph name="o" format="1">
  <advance width="670"/>
  <unicode hex="006f"/>
  <outline>
    <contour>
      <point x="570" y="520" type="line" smooth="no"/>
      <point x="570" y="-20" type="line" smooth="no"/>
      <point x="100" y="-20" type="line" smooth="no"/>
      <point x="100" y="520" type="line" smooth="no"/>
    </contour>
    <contour>
      <point x="200" y="425" type="line" smooth="no"/>
      <point x="200" y="75" type="line" smooth="no"/>
      <point x="470" y="75" type="line" smooth="no"/>
      <point x="470" y="425" type="line" smooth="no"/>
    </contour>
  </outline>
</glyph>
<glyph name="p" format="1">
  <advance width="670"/>
  <unicode hex="0070"/>
  <outline>
    <contour>
      <point x="100" y="-250" type="line" smooth="no"/>
      <point x="100" y="500" type="line" smooth="no"/>
      <point x="570" y="500" type="line" smooth="no"/>
      <point x="570" y="-250" type="line" smooth="no"/>
    </contour>
  </outline>
</glyph>
<glyph name="dieresis" format="1">
  <advance width="494"/>
  <unicode hex="00a8"/>
  <outline>
    <contour>
      <point x="278" y="854" type="curve" smooth="yes"/>
      <point x="278" y="886.016"/>
      <point x="303.984" y="912"/>
      <point x="336" y="912" type="curve" smooth="yes"/>
      <point x="368.016" y="912"/>
      <point x="394" y="886.016"/>
      <point x="394" y="854" type="curve" smooth="yes"/>
      <point x="394" y="821.984"/>
      <point x="368.016" y="796"/>
      <point x="336" y="796" type="curve" smooth="yes"/>
      <point x="303.984" y="796"/>
      <point x="278" y="821.984"/>
    </contour>
    <contour>
      <point x="100" y="854" type="curve" smooth="yes"/>
      <point x="100" y="886.016"/>
      <point x="125.984" y="912"/>
      <point x="158" y="912" type="curve" smooth="yes"/>
      <point x="190.016" y="912"/>
      <point x="216" y="886.016"/>
      <point x="216" y="854" type="curve" smooth="yes"/>
      <point x="216" y="821.984"/>
      <point x="190.016" y="796"/>
      <point x="158" y="796" type="curve" smooth="yes"/>
      <point x="125.984" y="796"/>
      <point x="100" y="821.984"/>
    </contour>
  </outline>
</glyph>
<glyph name="acute" format="1">
  <advance width="800"/>
  <unicode hex="00b4"/>
  <unicode hex="0301"/>
  <unicode hex="02ca"/>
  <unicode hex="0301"/>
  <unicode hex="02ca"/>
  <unicode hex="0301"/>
  <unicode hex="02ca"/>
  <unicode hex="0301"/>
  <unicode hex="02ca"/>
  <unicode hex="0301"/>
  <unicode hex="02ca"/>
  <unicode hex="0301"/>
  <unicode hex="02ca"/>
  <unicode hex="0301"/>
  <unicode hex="02ca"/>
  <unicode hex="0301"/>
  <unicode hex="02ca"/>
  <unicode hex="0301"/>
  <unicode hex="02ca"/>
  <unicode hex="0301"/>
  <unicode hex="02ca"/>
  <unicode hex="0301"/>
  <unicode hex="02ca"/>
  <unicode hex="0301"/>
  <unicode hex="02ca"/>
  <unicode hex="0301"/>
  <unicode hex="02ca"/>
  <unicode hex="0301"/>
  <unicode hex="02ca"/>
  <unicode hex="02ca"/>
  <unicode hex="0301"/>
  <unicode hex="02ca"/>
  <unicode hex="0301"/>
  <unicode hex="02ca"/>
  <unicode hex="0301"/>
  <unicode hex="02ca"/>
  <unicode hex="0301"/>
  <unicode hex="02ca"/>
  <unicode hex="0301"/>
  <unicode hex="02ca"/>
  <unicode hex="0301"/>
  <unicode hex="02ca"/>
  <unicode hex="0301"/>
  <unicode hex="02ca"/>
  <unicode hex="0301"/>
  <unicode hex="02ca"/>
  <unicode hex="0301"/>
  <unicode hex="02ca"/>
  <unicode hex="0301"/>
  <unicode hex="02ca"/>
  <unicode hex="0301"/>
  <unicode hex="02ca"/>
  <unicode hex="0301"/>
  <unicode hex="02ca"/>
  <unicode hex="0301"/>
  <unicode hex="02ca"/>
  <unicode hex="0301"/>
  <outline>
    <contour>
      <point x="500" y="894" type="line" smooth="yes"/>
      <point x="517.756" y="907.127"/>
      <point x="521.733" y="932.062"/>
      <point x="508.711" y="949.895" type="curve" smooth="yes"/>
      <point x="495.688" y="967.726"/>
      <point x="470.572" y="971.732"/>
      <point x="452.816" y="958.605" type="curve" smooth="yes"/>
      <point x="324.711" y="863.895" type="line" smooth="yes"/>
      <point x="306.935" y="850.796"/>
      <point x="302.978" y="825.831"/>
      <point x="316" y="808" type="curve" smooth="yes"/>
      <point x="329.022" y="790.169"/>
      <point x="354.119" y="786.191"/>
      <point x="371.895" y="799.289" type="curve" smooth="yes"/>
    </contour>
  </outline>
</glyph>
<glyph name="aacute" format="1">
  <advance width="640"/>
  <unicode hex="00e1"/>
  <outline>
    <contour>
      <point x="100" y="0" type="line" smooth="no"/>
      <point x="100" y="500" type="line" smooth="no"/>
      <point x="540" y="500" type="line" smooth="no"/>
      <point x="540" y="0" type="line" smooth="no"/>
    </contour>
    <contour>
      <point x="223" y="550" type="line" smooth="no"/>
      <point x="223" y="700" type="line" smooth="no"/>
      <point x="418" y="700" type="line" smooth="no"/>
      <point x="418" y="550" type="line" smooth="no"/>
    </contour>
  </outline>
</glyph>
<glyph name="uni0A8C" format="1">
  <advance width="880"/>
  <unicode hex="0a8c"/>
  <outline>
    <contour>
      <point x="440" y="768" type="curve" smooth="yes"/>
      <point x="658.45" y="768"/>
      <point x="836" y="590.439"/>
      <point x="836" y="372" type="curve" smooth="yes"/>
      <point x="836" y="153.55"/>
      <point x="658.45" y="-24"/>
      <point x="440" y="-24" type="curve" smooth="yes"/>
      <point x="221.561" y="-24"/>
      <point x="44" y="153.55"/>
      <point x="44" y="372" type="curve" smooth="yes"/>
      <point x="44" y="590.439"/>
      <point x="221.561" y="768"/>
    </contour>
    <contour>
      <point x="440" y="724" type="curve" smooth="yes"/>
      <point x="245.34" y="724"/>
      <point x="88" y="566.66"/>
      <point x="88" y="372" type="curve" smooth="yes"/>
      <point x="88" y="177.33"/>
      <point x="245.34" y="20"/>
      <point x="440" y="20" type="curve" smooth="yes"/>
      <point x="634.67" y="20"/>
      <point x="792" y="177.33"/>
      <point x="792" y="372" type="curve" smooth="yes"/>
      <point x="792" y="566.66"/>
      <point x="634.67" y="724"/>
    </contour>
    <contour>
      <point x="297.52" y="441.74" type="line" smooth="yes"/>
      <point x="327.98" y="441.74" type="line" smooth="yes"/>
      <point x="327.99" y="441.74" type="line" smooth="yes"/>
      <point x="339.51" y="441.74"/>
      <point x="351.38" y="432.73"/>
      <point x="354.48" y="421.63" type="curve" smooth="yes"/>
      <point x="415.39" y="203.391" type="line" smooth="yes"/>
      <point x="415.95" y="201.391"/>
      <point x="416.4" y="198.08"/>
      <point x="416.4" y="196" type="curve" smooth="yes"/>
      <point x="416.4" y="180.82"/>
      <point x="404.08" y="168.5"/>
      <point x="388.9" y="168.5" type="curve" smooth="yes"/>
      <point x="388.89" y="168.5" type="line" smooth="yes"/>
      <point x="236.58" y="168.5" type="line" smooth="yes"/>
      <point x="236.57" y="168.5" type="line" smooth="yes"/>
      <point x="221.39" y="168.5"/>
      <point x="209.061" y="180.82"/>
      <point x="209.061" y="196" type="curve" smooth="yes"/>
      <point x="209.061" y="198.08"/>
      <point x="209.52" y="201.391"/>
      <point x="210.07" y="203.391" type="curve" smooth="yes"/>
      <point x="271.02" y="421.63" type="line" smooth="yes"/>
      <point x="274.12" y="432.73"/>
      <point x="285.99" y="441.74"/>
      <point x="297.51" y="441.74" type="curve" smooth="yes"/>
    </contour>
    <contour>
      <point x="491.12" y="441.74" type="line" smooth="yes"/>
      <point x="643.43" y="441.74" type="line" smooth="yes"/>
      <point x="643.439" y="441.74" type="line" smooth="yes"/>
      <point x="658.62" y="441.74"/>
      <point x="670.939" y="429.42"/>
      <point x="670.939" y="414.24" type="curve" smooth="yes"/>
      <point x="670.939" y="412.16"/>
      <point x="670.49" y="408.85"/>
      <point x="669.939" y="406.85" type="curve" smooth="yes"/>
      <point x="608.99" y="188.61" type="line" smooth="yes"/>
      <point x="605.89" y="177.51"/>
      <point x="594.02" y="168.5"/>
      <point x="582.5" y="168.5" type="curve" smooth="yes"/>
      <point x="582.49" y="168.5" type="line" smooth="yes"/>
      <point x="552.03" y="168.5" type="line" smooth="yes"/>
      <point x="552.02" y="168.5" type="line" smooth="yes"/>
      <point x="540.49" y="168.5"/>
      <point x="528.63" y="177.51"/>
      <point x="525.53" y="188.61" type="curve" smooth="yes"/>
      <point x="464.62" y="406.85" type="line" smooth="yes"/>
      <point x="464.061" y="408.85"/>
      <point x="463.61" y="412.16"/>
      <point x="463.61" y="414.24" type="curve" smooth="yes"/>
      <point x="463.61" y="429.42"/>
      <point x="475.93" y="441.74"/>
      <point x="491.11" y="441.74" type="curve" smooth="yes"/>
    </contour>
    <contour>
      <point x="378.74" y="537.01" type="curve" smooth="yes"/>
      <point x="378.74" y="500.561"/>
      <point x="349.189" y="471.01"/>
      <point x="312.74" y="471.01" type="curve" smooth="yes"/>
      <point x="276.3" y="471.01"/>
      <point x="246.74" y="500.561"/>
      <point x="246.74" y="537.01" type="curve" smooth="yes"/>
      <point x="246.74" y="573.47"/>
      <point x="276.3" y="603.01"/>
      <point x="312.74" y="603.01" type="curve" smooth="yes"/>
      <point x="349.189" y="603.01"/>
      <point x="378.74" y="573.47"/>
    </contour>
    <contour>
      <point x="633.27" y="537.01" type="curve" smooth="yes"/>
      <point x="633.27" y="500.561"/>
      <point x="603.71" y="471.01"/>
      <point x="567.27" y="471.01" type="curve" smooth="yes"/>
      <point x="530.82" y="471.01"/>
      <point x="501.27" y="500.561"/>
      <point x="501.27" y="537.01" type="curve" smooth="yes"/>
      <point x="501.27" y="573.47"/>
      <point x="530.82" y="603.01"/>
      <point x="567.27" y="603.01" type="curve" smooth="yes"/>
      <point x="603.71" y="603.01"/>
      <point x="633.27" y="573.47"/>
    </contour>
  </outline>
</glyph>
<glyph name="uni0A8D" format="1">
  <advance width="880"/>
  <unicode hex="0a8d"/>
  <outline>
    <contour>
      <point x="440" y="770" type="curve" smooth="yes"/>
      <point x="658.448" y="770"/>
      <point x="836" y="592.439"/>
      <point x="836" y="374" type="curve" smooth="yes"/>
      <point x="836" y="155.55"/>
      <point x="658.448" y="-22"/>
      <point x="440" y="-22" type="curve" smooth="yes"/>
      <point x="221.562" y="-22"/>
      <point x="44" y="155.55"/>
      <point x="44" y="374" type="curve" smooth="yes"/>
      <point x="44" y="592.439"/>
      <point x="221.562" y="770"/>
    </contour>
    <contour>
      <point x="440" y="726" type="curve" smooth="yes"/>
      <point x="245.341" y="726"/>
      <point x="88" y="568.66"/>
      <point x="88" y="374" type="curve" smooth="yes"/>
      <point x="88" y="179.33"/>
      <point x="245.341" y="22"/>
      <point x="440" y="22" type="curve" smooth="yes"/>
      <point x="634.666" y="22"/>
      <point x="792" y="179.33"/>
      <point x="792" y="374" type="curve" smooth="yes"/>
      <point x="792" y="568.66"/>
      <point x="634.666" y="726"/>
    </contour>
    <contour>
      <point x="367.101" y="225.189" type="curve" smooth="yes"/>
      <point x="367.101" y="189.15"/>
      <point x="337.851" y="159.9"/>
      <point x="301.801" y="159.9" type="curve" smooth="yes"/>
      <point x="265.761" y="159.9"/>
      <point x="236.511" y="189.15"/>
      <point x="236.511" y="225.189" type="curve" smooth="yes"/>
      <point x="236.511" y="261.24"/>
      <point x="265.761" y="290.49"/>
      <point x="301.801" y="290.49" type="curve" smooth="yes"/>
      <point x="337.851" y="290.49"/>
      <point x="367.101" y="261.24"/>
    </contour>
    <contour>
      <point x="311.87" y="440.09" type="curve" smooth="yes"/>
      <point x="350.551" y="439.37"/>
      <point x="411.062" y="429.51"/>
      <point x="458.671" y="381.9" type="curve" smooth="yes"/>
      <point x="534.831" y="305.73"/>
      <point x="514.641" y="196.439"/>
      <point x="514.641" y="196.439" type="curve" smooth="no"/>
      <point x="511.851" y="175.34"/>
      <point x="492.301" y="158.2"/>
      <point x="471.021" y="158.2" type="curve" smooth="yes"/>
      <point x="446.73" y="158.2"/>
      <point x="427.011" y="177.93"/>
      <point x="427.011" y="202.22" type="curve" smooth="yes"/>
      <point x="427.011" y="204.27"/>
      <point x="427.29" y="207.6"/>
      <point x="427.65" y="209.641" type="curve" smooth="yes"/>
      <point x="427.65" y="209.641"/>
      <point x="434.921" y="281.16"/>
      <point x="396.431" y="319.66" type="curve" smooth="yes"/>
      <point x="357.921" y="358.16"/>
      <point x="286.771" y="350.68"/>
      <point x="286.771" y="350.68" type="curve" smooth="yes"/>
      <point x="284.771" y="350.34"/>
      <point x="281.5" y="350.061"/>
      <point x="279.461" y="350.061" type="curve" smooth="yes"/>
      <point x="255.181" y="350.061"/>
      <point x="235.461" y="369.78"/>
      <point x="235.461" y="394.08" type="curve" smooth="yes"/>
      <point x="235.461" y="415.16"/>
      <point x="252.421" y="434.689"/>
      <point x="273.312" y="437.65" type="curve" smooth="no"/>
      <point x="273.312" y="437.65"/>
      <point x="288.671" y="440.52"/>
    </contour>
    <contour>
      <point x="304.73" y="600.17" type="curve" smooth="yes"/>
      <point x="360.341" y="600.75"/>
      <point x="483.101" y="590.4"/>
      <point x="575.243" y="498.25" type="curve" smooth="yes"/>
      <point x="698.115" y="375.38"/>
      <point x="675.544" y="198.141"/>
      <point x="675.544" y="198.141" type="curve" smooth="no"/>
      <point x="673.507" y="176.09"/>
      <point x="653.872" y="158.18"/>
      <point x="631.73" y="158.18" type="curve" smooth="yes"/>
      <point x="607.442" y="158.18"/>
      <point x="587.718" y="177.891"/>
      <point x="587.718" y="202.189" type="curve" smooth="yes"/>
      <point x="587.718" y="203.79"/>
      <point x="587.894" y="206.38"/>
      <point x="588.104" y="207.97" type="curve" smooth="yes"/>
      <point x="588.104" y="207.97"/>
      <point x="601.216" y="347.8"/>
      <point x="513" y="436.01" type="curve" smooth="yes"/>
      <point x="424.801" y="524.22"/>
      <point x="284.961" y="511.1"/>
      <point x="284.961" y="511.1" type="curve" smooth="yes"/>
      <point x="283.61" y="510.95"/>
      <point x="281.4" y="510.83"/>
      <point x="280.04" y="510.83" type="curve" smooth="yes"/>
      <point x="255.74" y="510.83"/>
      <point x="236.021" y="530.54"/>
      <point x="236.021" y="554.84" type="curve" smooth="yes"/>
      <point x="236.021" y="576.55"/>
      <point x="253.53" y="596.15"/>
      <point x="275.11" y="598.58" type="curve" smooth="no"/>
      <point x="275.11" y="598.58"/>
      <point x="286.2" y="599.98"/>
    </contour>
  </outline>
</glyph>
<glyph name="uni0A8E" format="1">
  <advance width="880"/>
  <unicode hex="0a8e"/>
  <outline>
    <contour>
      <point x="440.001" y="770" type="curve" smooth="yes"/>
      <point x="658.451" y="770"/>
      <point x="836.001" y="592.439"/>
      <point x="836.001" y="374" type="curve" smooth="yes"/>
      <point x="836.001" y="155.55"/>
      <point x="658.451" y="-22"/>
      <point x="440.001" y="-22" type="curve" smooth="yes"/>
      <point x="221.562" y="-22"/>
      <point x="43.999" y="155.55"/>
      <point x="43.999" y="374" type="curve" smooth="yes"/>
      <point x="43.999" y="592.439"/>
      <point x="221.562" y="770"/>
    </contour>
    <contour>
      <point x="440.001" y="726" type="curve" smooth="yes"/>
      <point x="245.341" y="726"/>
      <point x="88.001" y="568.66"/>
      <point x="88.001" y="374" type="curve" smooth="yes"/>
      <point x="88.001" y="179.33"/>
      <point x="245.341" y="22"/>
      <point x="440.001" y="22" type="curve" smooth="yes"/>
      <point x="634.671" y="22"/>
      <point x="792.001" y="179.33"/>
      <point x="792.001" y="374" type="curve" smooth="yes"/>
      <point x="792.001" y="568.66"/>
      <point x="634.671" y="726"/>
    </contour>
    <contour>
      <point x="473.661" y="616.47" type="curve" smooth="yes"/>
      <point x="485.391" y="616.2"/>
      <point x="500.641" y="608.38"/>
      <point x="507.721" y="599.02" type="curve" smooth="yes"/>
      <point x="661.721" y="401.02" type="line" smooth="yes"/>
      <point x="662.562" y="399.92"/>
      <point x="663.821" y="398.07"/>
      <point x="664.531" y="396.891" type="curve" smooth="yes"/>
      <point x="664.591" y="396.811"/>
      <point x="664.661" y="396.689"/>
      <point x="664.711" y="396.62" type="curve" smooth="yes"/>
      <point x="664.721" y="396.59"/>
      <point x="664.73" y="396.561"/>
      <point x="664.741" y="396.55" type="curve" smooth="yes"/>
      <point x="665.261" y="395.67"/>
      <point x="666.051" y="394.21"/>
      <point x="666.491" y="393.28" type="curve" smooth="yes"/>
      <point x="666.571" y="393.13"/>
      <point x="666.69" y="392.891"/>
      <point x="666.761" y="392.73" type="curve" smooth="yes"/>
      <point x="666.771" y="392.71"/>
      <point x="666.791" y="392.68"/>
      <point x="666.801" y="392.67" type="curve" smooth="yes"/>
      <point x="667.201" y="391.77"/>
      <point x="667.812" y="390.29"/>
      <point x="668.141" y="389.37" type="curve" smooth="yes"/>
      <point x="668.23" y="389.17"/>
      <point x="668.361" y="388.86"/>
      <point x="668.451" y="388.68" type="curve" smooth="yes"/>
      <point x="668.461" y="388.65"/>
      <point x="668.471" y="388.63"/>
      <point x="668.48" y="388.61" type="curve" smooth="yes"/>
      <point x="668.871" y="387.48"/>
      <point x="669.401" y="385.62"/>
      <point x="669.681" y="384.45" type="curve" smooth="yes"/>
      <point x="670.261" y="382.09"/>
      <point x="670.821" y="378.22"/>
      <point x="670.921" y="375.78" type="curve" smooth="yes"/>
      <point x="670.921" y="375.77" type="line" smooth="yes"/>
      <point x="670.921" y="375.75" type="line" smooth="yes"/>
      <point x="670.931" y="374.84" type="line" smooth="yes"/>
      <point x="670.931" y="374.3"/>
      <point x="670.911" y="373.43"/>
      <point x="670.891" y="372.9" type="curve" smooth="yes"/>
      <point x="670.891" y="372.811" type="line" smooth="yes"/>
      <point x="670.891" y="372.34"/>
      <point x="670.881" y="371.58"/>
      <point x="670.851" y="371.11" type="curve" smooth="yes"/>
      <point x="670.851" y="371.01" type="line" smooth="yes"/>
      <point x="670.851" y="370.9" type="line" smooth="yes"/>
      <point x="670.781" y="369.82"/>
      <point x="670.562" y="368.061"/>
      <point x="670.371" y="366.98" type="curve" smooth="yes"/>
      <point x="670.201" y="365.84"/>
      <point x="669.812" y="363.99"/>
      <point x="669.511" y="362.86" type="curve" smooth="yes"/>
      <point x="669.511" y="362.811"/>
      <point x="669.491" y="362.74"/>
      <point x="669.48" y="362.689" type="curve" smooth="yes"/>
      <point x="669.48" y="362.67" type="line" smooth="yes"/>
      <point x="669.48" y="362.65" type="line" smooth="yes"/>
      <point x="669.181" y="361.52"/>
      <point x="668.591" y="359.7"/>
      <point x="668.181" y="358.6" type="curve" smooth="yes"/>
      <point x="668.171" y="358.57"/>
      <point x="668.161" y="358.52"/>
      <point x="668.151" y="358.49" type="curve" smooth="yes"/>
      <point x="667.721" y="357.36"/>
      <point x="666.931" y="355.55"/>
      <point x="666.391" y="354.48" type="curve" smooth="yes"/>
      <point x="665.851" y="353.38"/>
      <point x="664.881" y="351.66"/>
      <point x="664.221" y="350.63" type="curve" smooth="yes"/>
      <point x="663.581" y="349.59"/>
      <point x="662.461" y="347.98"/>
      <point x="661.721" y="347.02" type="curve" smooth="yes"/>
      <point x="661.651" y="346.92"/>
      <point x="661.551" y="346.76"/>
      <point x="661.471" y="346.66" type="curve" smooth="yes"/>
      <point x="661.271" y="346.42" type="line" smooth="no"/>
      <point x="507.721" y="149.02" type="line" smooth="yes"/>
      <point x="500.441" y="139.02"/>
      <point x="484.511" y="130.91"/>
      <point x="472.141" y="130.91" type="curve" smooth="yes"/>
      <point x="447.851" y="130.91"/>
      <point x="428.141" y="150.62"/>
      <point x="428.141" y="174.91" type="curve" smooth="yes"/>
      <point x="428.141" y="183.68"/>
      <point x="432.681" y="196.27"/>
      <point x="438.281" y="203.02" type="curve" smooth="yes"/>
      <point x="537.041" y="330" type="line" smooth="no"/>
      <point x="253.001" y="330" type="line" smooth="yes"/>
      <point x="252.831" y="329.99"/>
      <point x="252.551" y="329.99"/>
      <point x="252.381" y="329.99" type="curve" smooth="yes"/>
      <point x="228.081" y="329.99"/>
      <point x="208.371" y="349.7"/>
      <point x="208.371" y="374" type="curve" smooth="yes"/>
      <point x="208.371" y="398.29"/>
      <point x="228.081" y="418"/>
      <point x="252.381" y="418" type="curve" smooth="yes"/>
      <point x="253.001" y="418" type="line" smooth="yes"/>
      <point x="537.071" y="418" type="line" smooth="no"/>
      <point x="438.281" y="545.02" type="line" smooth="yes"/>
      <point x="432.971" y="551.66"/>
      <point x="428.661" y="563.97"/>
      <point x="428.661" y="572.48" type="curve" smooth="yes"/>
      <point x="428.661" y="596.77"/>
      <point x="448.371" y="616.48"/>
      <point x="472.661" y="616.48" type="curve" smooth="yes"/>
      <point x="472.931" y="616.48"/>
      <point x="473.381" y="616.48"/>
    </contour>
  </outline>
</glyph>
<glyph name="uni0A90" format="1">
  <advance width="880"/>
  <unicode hex="0a90"/>
  <outline>
    <contour>
      <point x="440.001" y="772" type="curve" smooth="yes"/>
      <point x="658.451" y="772"/>
      <point x="836.001" y="594.439"/>
      <point x="836.001" y="376" type="curve" smooth="yes"/>
      <point x="836.001" y="157.55"/>
      <point x="658.451" y="-20"/>
      <point x="440.001" y="-20" type="curve" smooth="yes"/>
      <point x="221.562" y="-20"/>
      <point x="43.999" y="157.55"/>
      <point x="43.999" y="376" type="curve" smooth="yes"/>
      <point x="43.999" y="594.439"/>
      <point x="221.562" y="772"/>
    </contour>
    <contour>
      <point x="440.001" y="728" type="curve" smooth="yes"/>
      <point x="245.341" y="728"/>
      <point x="88.001" y="570.66"/>
      <point x="88.001" y="376" type="curve" smooth="yes"/>
      <point x="88.001" y="181.33"/>
      <point x="245.341" y="24"/>
      <point x="440.001" y="24" type="curve" smooth="yes"/>
      <point x="634.671" y="24"/>
      <point x="792.001" y="181.33"/>
      <point x="792.001" y="376" type="curve" smooth="yes"/>
      <point x="792.001" y="570.66"/>
      <point x="634.671" y="728"/>
    </contour>
    <contour>
      <point x="473.661" y="618.47" type="curve" smooth="yes"/>
      <point x="485.391" y="618.2"/>
      <point x="500.641" y="610.38"/>
      <point x="507.721" y="601.02" type="curve" smooth="yes"/>
      <point x="661.721" y="403.02" type="line" smooth="yes"/>
      <point x="662.562" y="401.92"/>
      <point x="663.821" y="400.07"/>
      <point x="664.531" y="398.891" type="curve" smooth="yes"/>
      <point x="664.591" y="398.811"/>
      <point x="664.661" y="398.689"/>
      <point x="664.711" y="398.62" type="curve" smooth="yes"/>
      <point x="664.721" y="398.59"/>
      <point x="664.73" y="398.561"/>
      <point x="664.741" y="398.55" type="curve" smooth="yes"/>
      <point x="665.261" y="397.67"/>
      <point x="666.051" y="396.21"/>
      <point x="666.491" y="395.28" type="curve" smooth="yes"/>
      <point x="666.571" y="395.13"/>
      <point x="666.69" y="394.891"/>
      <point x="666.761" y="394.73" type="curve" smooth="yes"/>
      <point x="666.771" y="394.71"/>
      <point x="666.791" y="394.68"/>
      <point x="666.801" y="394.67" type="curve" smooth="yes"/>
      <point x="667.201" y="393.77"/>
      <point x="667.812" y="392.29"/>
      <point x="668.141" y="391.37" type="curve" smooth="yes"/>
      <point x="668.23" y="391.17"/>
      <point x="668.361" y="390.86"/>
      <point x="668.451" y="390.68" type="curve" smooth="yes"/>
      <point x="668.461" y="390.65"/>
      <point x="668.471" y="390.63"/>
      <point x="668.48" y="390.61" type="curve" smooth="yes"/>
      <point x="668.871" y="389.48"/>
      <point x="669.401" y="387.62"/>
      <point x="669.681" y="386.45" type="curve" smooth="yes"/>
      <point x="670.261" y="384.09"/>
      <point x="670.821" y="380.22"/>
      <point x="670.921" y="377.78" type="curve" smooth="yes"/>
      <point x="670.921" y="377.77" type="line" smooth="yes"/>
      <point x="670.921" y="377.75" type="line" smooth="yes"/>
      <point x="670.931" y="376.84" type="line" smooth="yes"/>
      <point x="670.931" y="376.3"/>
      <point x="670.911" y="375.43"/>
      <point x="670.891" y="374.9" type="curve" smooth="yes"/>
      <point x="670.891" y="374.811" type="line" smooth="yes"/>
      <point x="670.891" y="374.34"/>
      <point x="670.881" y="373.58"/>
      <point x="670.851" y="373.11" type="curve" smooth="yes"/>
      <point x="670.851" y="373.01" type="line" smooth="yes"/>
      <point x="670.851" y="372.9" type="line" smooth="yes"/>
      <point x="670.781" y="371.82"/>
      <point x="670.562" y="370.061"/>
      <point x="670.371" y="368.98" type="curve" smooth="yes"/>
      <point x="670.201" y="367.84"/>
      <point x="669.812" y="365.99"/>
      <point x="669.511" y="364.86" type="curve" smooth="yes"/>
      <point x="669.511" y="364.811"/>
      <point x="669.491" y="364.74"/>
      <point x="669.48" y="364.689" type="curve" smooth="yes"/>
      <point x="669.48" y="364.67" type="line" smooth="yes"/>
      <point x="669.48" y="364.65" type="line" smooth="yes"/>
      <point x="669.181" y="363.52"/>
      <point x="668.591" y="361.7"/>
      <point x="668.181" y="360.6" type="curve" smooth="yes"/>
      <point x="668.171" y="360.57"/>
      <point x="668.161" y="360.52"/>
      <point x="668.151" y="360.49" type="curve" smooth="yes"/>
      <point x="667.721" y="359.36"/>
      <point x="666.931" y="357.55"/>
      <point x="666.391" y="356.48" type="curve" smooth="yes"/>
      <point x="665.851" y="355.38"/>
      <point x="664.881" y="353.66"/>
      <point x="664.221" y="352.63" type="curve" smooth="yes"/>
      <point x="663.581" y="351.59"/>
      <point x="662.461" y="349.98"/>
      <point x="661.721" y="349.02" type="curve" smooth="yes"/>
      <point x="661.651" y="348.92"/>
      <point x="661.551" y="348.76"/>
      <point x="661.471" y="348.66" type="curve" smooth="yes"/>
      <point x="661.271" y="348.42" type="line" smooth="no"/>
      <point x="507.721" y="151.02" type="line" smooth="yes"/>
      <point x="500.441" y="141.02"/>
      <point x="484.511" y="132.91"/>
      <point x="472.141" y="132.91" type="curve" smooth="yes"/>
      <point x="447.851" y="132.91"/>
      <point x="428.141" y="152.62"/>
      <point x="428.141" y="176.91" type="curve" smooth="yes"/>
      <point x="428.141" y="185.68"/>
      <point x="432.681" y="198.27"/>
      <point x="438.281" y="205.02" type="curve" smooth="yes"/>
      <point x="537.041" y="332" type="line" smooth="no"/>
      <point x="253.001" y="332" type="line" smooth="yes"/>
      <point x="252.831" y="331.99"/>
      <point x="252.551" y="331.99"/>
      <point x="252.381" y="331.99" type="curve" smooth="yes"/>
      <point x="228.081" y="331.99"/>
      <point x="208.371" y="351.7"/>
      <point x="208.371" y="376" type="curve" smooth="yes"/>
      <point x="208.371" y="400.29"/>
      <point x="228.081" y="420"/>
      <point x="252.381" y="420" type="curve" smooth="yes"/>
      <point x="253.001" y="420" type="line" smooth="yes"/>
      <point x="537.071" y="420" type="line" smooth="no"/>
      <point x="438.281" y="547.02" type="line" smooth="yes"/>
      <point x="432.971" y="553.66"/>
      <point x="428.661" y="565.97"/>
      <point x="428.661" y="574.48" type="curve" smooth="yes"/>
      <point x="428.661" y="598.77"/>
      <point x="448.371" y="618.48"/>
      <point x="472.661" y="618.48" type="curve" smooth="yes"/>
      <point x="472.931" y="618.48"/>
      <point x="473.381" y="618.48"/>
    </contour>
  </outline>
</glyph>
<glyph name="uni0A92" format="1">
  <advance width="880"/>
  <unicode hex="0a92"/>
  <outline>
    <contour>
      <point x="440" y="772" type="curve" smooth="yes"/>
      <point x="658.45" y="772"/>
      <point x="836" y="594.439"/>
      <point x="836" y="376" type="curve" smooth="yes"/>
      <point x="836" y="157.55"/>
      <point x="658.45" y="-20"/>
      <point x="440" y="-20" type="curve" smooth="yes"/>
      <point x="221.561" y="-20"/>
      <point x="44" y="157.55"/>
      <point x="44" y="376" type="curve" smooth="yes"/>
      <point x="44" y="594.439"/>
      <point x="221.561" y="772"/>
    </contour>
    <contour>
      <point x="440" y="728" type="curve" smooth="yes"/>
      <point x="245.34" y="728"/>
      <point x="88" y="570.66"/>
      <point x="88" y="376" type="curve" smooth="yes"/>
      <point x="88" y="181.33"/>
      <point x="245.34" y="24"/>
      <point x="440" y="24" type="curve" smooth="yes"/>
      <point x="634.67" y="24"/>
      <point x="792" y="181.33"/>
      <point x="792" y="376" type="curve" smooth="yes"/>
      <point x="792" y="570.66"/>
      <point x="634.67" y="728"/>
    </contour>
    <contour>
      <point x="331.89" y="517.141" type="curve" smooth="yes"/>
      <point x="332.16" y="517.141" type="line" smooth="yes"/>
      <point x="351.59" y="517.141"/>
      <point x="367.36" y="501.37"/>
      <point x="367.36" y="481.939" type="curve" smooth="yes"/>
      <point x="367.36" y="468.35"/>
      <point x="357" y="453.54"/>
      <point x="344.23" y="448.88" type="curve" smooth="yes"/>
      <point x="303.33" y="433.3"/>
      <point x="257.57" y="373.47"/>
      <point x="257.57" y="321.38" type="curve" smooth="yes"/>
      <point x="257.57" y="241.84"/>
      <point x="308.22" y="177.15"/>
      <point x="384.25" y="171.47" type="curve" smooth="yes"/>
      <point x="430.43" y="168.01"/>
      <point x="472.5" y="187.6"/>
      <point x="499.99" y="220.45" type="curve" smooth="yes"/>
      <point x="505.82" y="227.58"/>
      <point x="518.02" y="233.35"/>
      <point x="527.23" y="233.35" type="curve" smooth="yes"/>
      <point x="546.67" y="233.35"/>
      <point x="562.43" y="217.58"/>
      <point x="562.43" y="198.15" type="curve" smooth="yes"/>
      <point x="562.43" y="190.98"/>
      <point x="558.65" y="180.73"/>
      <point x="553.99" y="175.28" type="curve" smooth="yes"/>
      <point x="512.49" y="125.67"/>
      <point x="448.23" y="96.0898"/>
      <point x="379.03" y="101.28" type="curve" smooth="yes"/>
      <point x="264.92" y="109.811"/>
      <point x="187.18" y="210.24"/>
      <point x="187.18" y="321.38" type="curve" smooth="yes"/>
      <point x="187.18" y="408.53"/>
      <point x="245.45" y="486.58"/>
      <point x="319.18" y="514.67" type="curve" smooth="yes"/>
      <point x="322.561" y="516.01"/>
      <point x="328.26" y="517.12"/>
    </contour>
    <contour>
      <point x="488.82" y="598.811" type="curve" smooth="yes"/>
      <point x="488.82" y="568.7"/>
      <point x="464.42" y="544.3"/>
      <point x="434.311" y="544.3" type="curve" smooth="yes"/>
      <point x="404.21" y="544.3"/>
      <point x="379.811" y="568.7"/>
      <point x="379.811" y="598.811" type="curve" smooth="yes"/>
      <point x="379.811" y="628.9"/>
      <point x="404.21" y="653.311"/>
      <point x="434.311" y="653.311" type="curve" smooth="yes"/>
      <point x="464.42" y="653.311"/>
      <point x="488.82" y="628.9"/>
    </contour>
    <contour>
      <point x="427.18" y="516.83" type="curve" smooth="yes"/>
      <point x="427.7" y="516.83" type="line" smooth="yes"/>
      <point x="447.13" y="516.83"/>
      <point x="462.9" y="501.061"/>
      <point x="462.9" y="481.63" type="curve" smooth="yes"/>
      <point x="462.9" y="481.12" type="line" smooth="yes"/>
      <point x="462.9" y="360.36" type="line" smooth="no"/>
      <point x="609.4" y="360.36" type="line" smooth="yes"/>
      <point x="609.41" y="360.36" type="line" smooth="yes"/>
      <point x="623.08" y="360.36"/>
      <point x="637.92" y="349.92"/>
      <point x="642.54" y="337.05" type="curve" smooth="yes"/>
      <point x="678.88" y="235.58" type="line" smooth="yes"/>
      <point x="680.15" y="232.23"/>
      <point x="681.189" y="226.6"/>
      <point x="681.189" y="223.02" type="curve" smooth="yes"/>
      <point x="681.189" y="203.59"/>
      <point x="665.42" y="187.811"/>
      <point x="645.98" y="187.811" type="curve" smooth="yes"/>
      <point x="631.99" y="187.811"/>
      <point x="617.03" y="198.58"/>
      <point x="612.6" y="211.86" type="curve" smooth="yes"/>
      <point x="584.62" y="289.96" type="line" smooth="no"/>
      <point x="427.7" y="289.96" type="line" smooth="yes"/>
      <point x="408.26" y="289.96"/>
      <point x="392.5" y="305.73"/>
      <point x="392.5" y="325.16" type="curve" smooth="yes"/>
      <point x="392.5" y="481.12" type="line" smooth="yes"/>
      <point x="392.49" y="481.26"/>
      <point x="392.49" y="481.49"/>
      <point x="392.49" y="481.63" type="curve" smooth="yes"/>
      <point x="392.49" y="500.79"/>
      <point x="408.03" y="516.55"/>
    </contour>
  </outline>
</glyph>
<glyph name="uni0A93" format="1">
  <advance width="880"/>
  <unicode hex="0a93"/>
  <outline>
    <contour>
      <point x="440" y="770" type="curve" smooth="yes"/>
      <point x="658.45" y="770"/>
      <point x="836" y="592.439"/>
      <point x="836" y="374" type="curve" smooth="yes"/>
      <point x="836" y="155.55"/>
      <point x="658.45" y="-22"/>
      <point x="440" y="-22" type="curve" smooth="yes"/>
      <point x="221.561" y="-22"/>
      <point x="44" y="155.55"/>
      <point x="44" y="374" type="curve" smooth="yes"/>
      <point x="44" y="592.439"/>
      <point x="221.561" y="770"/>
    </contour>
    <contour>
      <point x="440" y="726" type="curve" smooth="yes"/>
      <point x="379.86" y="726"/>
      <point x="323.311" y="710.97"/>
      <point x="273.83" y="684.48" type="curve" smooth="no"/>
      <point x="534.26" y="275" type="line" smooth="no"/>
      <point x="627" y="275" type="line" smooth="yes"/>
      <point x="638.63" y="275.16"/>
      <point x="650.24" y="270.49"/>
      <point x="658.53" y="262.33" type="curve" smooth="yes"/>
      <point x="666.8" y="254.17"/>
      <point x="671.63" y="242.62"/>
      <point x="671.63" y="231" type="curve" smooth="yes"/>
      <point x="671.63" y="219.37"/>
      <point x="666.8" y="207.82"/>
      <point x="658.53" y="199.66" type="curve" smooth="yes"/>
      <point x="650.24" y="191.5"/>
      <point x="638.63" y="186.84"/>
      <point x="627" y="187" type="curve" smooth="yes"/>
      <point x="590.23" y="187" type="line" smooth="no"/>
      <point x="650.73" y="91.8496" type="line" smooth="no"/>
      <point x="736.54" y="155.99"/>
      <point x="792" y="258.41"/>
      <point x="792" y="374" type="curve" smooth="yes"/>
      <point x="792" y="568.66"/>
      <point x="634.67" y="726"/>
    </contour>
    <contour>
      <point x="227.57" y="654.811" type="line" smooth="no"/>
      <point x="142.75" y="590.58"/>
      <point x="88" y="488.8"/>
      <point x="88" y="374" type="curve" smooth="yes"/>
      <point x="88" y="179.33"/>
      <point x="245.34" y="22"/>
      <point x="440" y="22" type="curve" smooth="yes"/>
      <point x="499.36" y="22"/>
      <point x="555.2" y="36.6406"/>
      <point x="604.22" y="62.4902" type="curve" smooth="no"/>
      <point x="525.05" y="187" type="line" smooth="no"/>
      <point x="322.17" y="187" type="line" smooth="no"/>
      <point x="319.15" y="195.68"/>
      <point x="315.05" y="211.12"/>
      <point x="315.05" y="231" type="curve" smooth="yes"/>
      <point x="315.05" y="250.84"/>
      <point x="319.15" y="266.29"/>
      <point x="322.17" y="275" type="curve" smooth="no"/>
      <point x="469.08" y="275" type="line" smooth="no"/>
    </contour>
    <contour>
      <point x="248.6" y="275" type="curve" smooth="yes"/>
      <point x="303.02" y="275" type="line" smooth="no"/>
      <point x="299.89" y="264.72"/>
      <point x="296.561" y="249.439"/>
      <point x="296.561" y="231" type="curve" smooth="yes"/>
      <point x="296.561" y="212.54"/>
      <point x="299.89" y="197.26"/>
      <point x="303.02" y="187" type="curve" smooth="no"/>
      <point x="248.6" y="187" type="line" smooth="yes"/>
      <point x="236.98" y="186.84"/>
      <point x="225.37" y="191.5"/>
      <point x="217.08" y="199.66" type="curve" smooth="yes"/>
      <point x="208.811" y="207.82"/>
      <point x="203.97" y="219.37"/>
      <point x="203.97" y="231" type="curve" smooth="yes"/>
      <point x="203.97" y="242.62"/>
      <point x="208.811" y="254.17"/>
      <point x="217.08" y="262.33" type="curve" smooth="yes"/>
      <point x="225.37" y="270.49"/>
      <point x="236.98" y="275.16"/>
    </contour>
    <contour>
      <point x="627" y="297.01" type="curve" smooth="yes"/>
      <point x="610.5" y="297.01"/>
      <point x="632.5" y="313.51"/>
      <point x="621.5" y="335.51" type="curve" smooth="yes"/>
      <point x="610.5" y="357.51"/>
      <point x="528" y="363.01"/>
      <point x="572" y="407.01" type="curve" smooth="yes"/>
      <point x="616" y="451.01"/>
      <point x="627" y="528.01"/>
      <point x="583" y="572.01" type="curve" smooth="yes"/>
      <point x="539" y="616.01"/>
      <point x="454.13" y="598.48"/>
      <point x="445.5" y="621.51" type="curve" smooth="yes"/>
      <point x="429" y="665.51"/>
      <point x="555.5" y="671.01"/>
      <point x="616" y="638.01" type="curve" smooth="yes"/>
      <point x="676.5" y="605.01"/>
      <point x="726" y="522.51"/>
      <point x="693" y="456.51" type="curve" smooth="yes"/>
      <point x="664.32" y="399.15"/>
      <point x="588.59" y="393.75"/>
      <point x="627" y="363.01" type="curve" smooth="yes"/>
      <point x="654.5" y="341.01"/>
      <point x="643.5" y="297.01"/>
    </contour>
  </outline>
</glyph>
<glyph name="uni0A94" format="1">
  <advance width="880"/>
  <unicode hex="0a94"/>
  <outline>
    <contour>
      <point x="439.995" y="772" type="curve" smooth="yes"/>
      <point x="658.445" y="772"/>
      <point x="835.995" y="594.439"/>
      <point x="835.995" y="376" type="curve" smooth="yes"/>
      <point x="835.995" y="157.55"/>
      <point x="658.445" y="-20"/>
      <point x="439.995" y="-20" type="curve" smooth="yes"/>
      <point x="221.556" y="-20"/>
      <point x="44.0049" y="157.55"/>
      <point x="44.0049" y="376" type="curve" smooth="yes"/>
      <point x="44.0049" y="594.439"/>
      <point x="221.556" y="772"/>
    </contour>
    <contour>
      <point x="439.995" y="728" type="curve" smooth="yes"/>
      <point x="245.335" y="728"/>
      <point x="88.0049" y="570.66"/>
      <point x="88.0049" y="376" type="curve" smooth="yes"/>
      <point x="88.0049" y="181.33"/>
      <point x="245.335" y="24"/>
      <point x="439.995" y="24" type="curve" smooth="yes"/>
      <point x="634.665" y="24"/>
      <point x="791.995" y="181.33"/>
      <point x="791.995" y="376" type="curve" smooth="yes"/>
      <point x="791.995" y="570.66"/>
      <point x="634.665" y="728"/>
    </contour>
    <contour>
      <point x="359.215" y="636.01" type="curve" smooth="yes"/>
      <point x="361.955" y="636.16"/>
      <point x="364.727" y="635.891"/>
      <point x="367.405" y="635.22" type="curve" smooth="yes"/>
      <point x="584.135" y="580.22" type="line" smooth="yes"/>
      <point x="590.005" y="578.73"/>
      <point x="595.355" y="575.22"/>
      <point x="599.075" y="570.439" type="curve" smooth="yes"/>
      <point x="602.795" y="565.65"/>
      <point x="604.865" y="559.6"/>
      <point x="604.865" y="553.54" type="curve" smooth="yes"/>
      <point x="604.865" y="212.439" type="line" smooth="yes"/>
      <point x="604.965" y="183.88"/>
      <point x="581.225" y="156.48"/>
      <point x="553.715" y="144.03" type="curve" smooth="yes"/>
      <point x="510.445" y="123.67"/>
      <point x="459.265" y="133.02"/>
      <point x="439.385" y="164.93" type="curve" smooth="yes"/>
      <point x="419.495" y="196.84"/>
      <point x="438.425" y="239.2"/>
      <point x="481.695" y="259.561" type="curve" smooth="yes"/>
      <point x="504.115" y="270.11"/>
      <point x="528.646" y="272.71"/>
      <point x="549.865" y="268.3" type="curve" smooth="no"/>
      <point x="549.865" y="490.37" type="line" smooth="no"/>
      <point x="388.125" y="531.41" type="line" smooth="no"/>
      <point x="388.125" y="269.16" type="line" smooth="yes"/>
      <point x="388.125" y="226.73"/>
      <point x="368.115" y="208.811"/>
      <point x="337.385" y="193.95" type="curve" smooth="yes"/>
      <point x="294.125" y="173.59"/>
      <point x="242.945" y="182.97"/>
      <point x="223.065" y="214.88" type="curve" smooth="yes"/>
      <point x="203.175" y="246.79"/>
      <point x="222.105" y="289.15"/>
      <point x="265.375" y="309.52" type="curve" smooth="yes"/>
      <point x="287.646" y="320"/>
      <point x="312.005" y="322.57"/>
      <point x="333.125" y="318.28" type="curve" smooth="no"/>
      <point x="333.125" y="608.54" type="line" smooth="yes"/>
      <point x="333.125" y="615.5"/>
      <point x="335.885" y="622.43"/>
      <point x="340.687" y="627.48" type="curve" smooth="yes"/>
      <point x="345.495" y="632.53"/>
      <point x="352.265" y="635.66"/>
    </contour>
  </outline>
</glyph>
<glyph name="uni0A95" format="1">
  <advance width="880"/>
  <unicode hex="0a95"/>
  <outline>
    <contour>
      <point x="440" y="770" type="curve" smooth="yes"/>
      <point x="658.439" y="770"/>
      <point x="836" y="592.439"/>
      <point x="836" y="374" type="curve" smooth="yes"/>
      <point x="836" y="155.55"/>
      <point x="658.439" y="-22"/>
      <point x="440" y="-22" type="curve" smooth="yes"/>
      <point x="221.55" y="-22"/>
      <point x="44" y="155.55"/>
      <point x="44" y="374" type="curve" smooth="yes"/>
      <point x="44" y="592.439"/>
      <point x="221.55" y="770"/>
    </contour>
    <contour>
      <point x="440" y="726" type="curve" smooth="yes"/>
      <point x="245.33" y="726"/>
      <point x="88" y="568.66"/>
      <point x="88" y="374" type="curve" smooth="yes"/>
      <point x="88" y="179.33"/>
      <point x="245.33" y="22"/>
      <point x="440" y="22" type="curve" smooth="yes"/>
      <point x="634.66" y="22"/>
      <point x="792" y="179.33"/>
      <point x="792" y="374" type="curve" smooth="yes"/>
      <point x="792" y="568.66"/>
      <point x="634.66" y="726"/>
    </contour>
    <contour>
      <point x="260.52" y="590.311" type="curve" smooth="yes"/>
      <point x="260.76" y="590.311" type="line" smooth="yes"/>
      <point x="269.87" y="590.311"/>
      <point x="277.27" y="582.92"/>
      <point x="277.27" y="573.811" type="curve" smooth="yes"/>
      <point x="277.27" y="573.75"/>
      <point x="277.27" y="573.641"/>
      <point x="277.26" y="573.57" type="curve" smooth="yes"/>
      <point x="277.26" y="341.2" type="line" smooth="no"/>
      <point x="325.73" y="341.2" type="line" smooth="yes"/>
      <point x="334.84" y="341.2"/>
      <point x="342.23" y="333.811"/>
      <point x="342.23" y="324.7" type="curve" smooth="yes"/>
      <point x="342.23" y="280.88" type="line" smooth="yes"/>
      <point x="342.23" y="271.77"/>
      <point x="334.84" y="264.38"/>
      <point x="325.73" y="264.38" type="curve" smooth="yes"/>
      <point x="277.26" y="264.38" type="line" smooth="no"/>
      <point x="277.26" y="174.42" type="line" smooth="yes"/>
      <point x="277.27" y="174.35"/>
      <point x="277.27" y="174.25"/>
      <point x="277.27" y="174.189" type="curve" smooth="yes"/>
      <point x="277.27" y="165.08"/>
      <point x="269.87" y="157.689"/>
      <point x="260.76" y="157.689" type="curve" smooth="yes"/>
      <point x="251.66" y="157.689"/>
      <point x="244.26" y="165.08"/>
      <point x="244.26" y="174.189" type="curve" smooth="yes"/>
      <point x="244.26" y="174.42" type="line" smooth="yes"/>
      <point x="244.26" y="264.38" type="line" smooth="no"/>
      <point x="195.8" y="264.38" type="line" smooth="yes"/>
      <point x="186.71" y="264.4"/>
      <point x="179.33" y="271.79"/>
      <point x="179.33" y="280.88" type="curve" smooth="yes"/>
      <point x="179.33" y="324.7" type="line" smooth="yes"/>
      <point x="179.33" y="333.8"/>
      <point x="186.71" y="341.189"/>
      <point x="195.8" y="341.2" type="curve" smooth="yes"/>
      <point x="244.26" y="341.2" type="line" smooth="no"/>
      <point x="244.26" y="573.57" type="line" smooth="yes"/>
      <point x="244.26" y="573.811" type="line" smooth="yes"/>
      <point x="244.26" y="582.79"/>
      <point x="251.55" y="590.18"/>
    </contour>
    <contour>
      <point x="439.75" y="590.311" type="curve" smooth="yes"/>
      <point x="440" y="590.311" type="line" smooth="yes"/>
      <point x="449.1" y="590.311"/>
      <point x="456.5" y="582.92"/>
      <point x="456.5" y="573.811" type="curve" smooth="yes"/>
      <point x="456.5" y="573.57" type="line" smooth="yes"/>
      <point x="456.5" y="497.72" type="line" smooth="no"/>
      <point x="504.96" y="497.72" type="line" smooth="yes"/>
      <point x="514.07" y="497.71"/>
      <point x="521.46" y="490.311"/>
      <point x="521.46" y="481.22" type="curve" smooth="yes"/>
      <point x="521.46" y="437.38" type="line" smooth="yes"/>
      <point x="521.46" y="428.28"/>
      <point x="514.07" y="420.88"/>
      <point x="504.96" y="420.88" type="curve" smooth="yes"/>
      <point x="456.5" y="420.88" type="line" smooth="no"/>
      <point x="456.5" y="174.42" type="line" smooth="yes"/>
      <point x="456.5" y="174.189" type="line" smooth="yes"/>
      <point x="456.5" y="165.08"/>
      <point x="449.1" y="157.689"/>
      <point x="440" y="157.689" type="curve" smooth="yes"/>
      <point x="430.891" y="157.689"/>
      <point x="423.49" y="165.08"/>
      <point x="423.49" y="174.189" type="curve" smooth="yes"/>
      <point x="423.49" y="174.25"/>
      <point x="423.49" y="174.35"/>
      <point x="423.5" y="174.42" type="curve" smooth="yes"/>
      <point x="423.5" y="420.88" type="line" smooth="no"/>
      <point x="375.029" y="420.88" type="line" smooth="yes"/>
      <point x="365.939" y="420.9"/>
      <point x="358.561" y="428.3"/>
      <point x="358.561" y="437.38" type="curve" smooth="yes"/>
      <point x="358.561" y="481.22" type="line" smooth="yes"/>
      <point x="358.561" y="490.3"/>
      <point x="365.939" y="497.7"/>
      <point x="375.029" y="497.72" type="curve" smooth="yes"/>
      <point x="423.5" y="497.72" type="line" smooth="no"/>
      <point x="423.5" y="573.57" type="line" smooth="yes"/>
      <point x="423.49" y="573.641"/>
      <point x="423.49" y="573.75"/>
      <point x="423.49" y="573.811" type="curve" smooth="yes"/>
      <point x="423.49" y="582.79"/>
      <point x="430.779" y="590.18"/>
    </contour>
    <contour>
      <point x="618.99" y="590.311" type="curve" smooth="yes"/>
      <point x="619.23" y="590.311" type="line" smooth="yes"/>
      <point x="628.34" y="590.311"/>
      <point x="635.73" y="582.92"/>
      <point x="635.73" y="573.811" type="curve" smooth="yes"/>
      <point x="635.73" y="573.57" type="line" smooth="yes"/>
      <point x="635.73" y="406.92" type="line" smooth="no"/>
      <point x="684.199" y="406.92" type="line" smooth="yes"/>
      <point x="693.3" y="406.92"/>
      <point x="700.689" y="399.53"/>
      <point x="700.699" y="390.42" type="curve" smooth="yes"/>
      <point x="700.699" y="346.6" type="line" smooth="yes"/>
      <point x="700.689" y="337.49"/>
      <point x="693.3" y="330.1"/>
      <point x="684.199" y="330.1" type="curve" smooth="yes"/>
      <point x="635.73" y="330.1" type="line" smooth="no"/>
      <point x="635.73" y="174.42" type="line" smooth="yes"/>
      <point x="635.73" y="174.189" type="line" smooth="yes"/>
      <point x="635.73" y="165.08"/>
      <point x="628.34" y="157.689"/>
      <point x="619.23" y="157.689" type="curve" smooth="yes"/>
      <point x="610.12" y="157.689"/>
      <point x="602.72" y="165.08"/>
      <point x="602.72" y="174.189" type="curve" smooth="yes"/>
      <point x="602.72" y="174.25"/>
      <point x="602.72" y="174.35"/>
      <point x="602.73" y="174.42" type="curve" smooth="yes"/>
      <point x="602.73" y="330.1" type="line" smooth="no"/>
      <point x="554.26" y="330.1" type="line" smooth="yes"/>
      <point x="545.17" y="330.12"/>
      <point x="537.79" y="337.51"/>
      <point x="537.79" y="346.6" type="curve" smooth="yes"/>
      <point x="537.79" y="390.42" type="line" smooth="yes"/>
      <point x="537.79" y="399.52"/>
      <point x="545.17" y="406.91"/>
      <point x="554.26" y="406.92" type="curve" smooth="yes"/>
      <point x="602.73" y="406.92" type="line" smooth="no"/>
      <point x="602.73" y="573.57" type="line" smooth="yes"/>
      <point x="602.72" y="573.641"/>
      <point x="602.72" y="573.75"/>
      <point x="602.72" y="573.811" type="curve" smooth="yes"/>
      <point x="602.72" y="582.79"/>
      <point x="610.01" y="590.18"/>
    </contour>
  </outline>
</glyph>
<glyph name="uni0A96" format="1">
  <advance width="880"/>
  <unicode hex="0a96"/>
  <outline>
    <contour>
      <point x="440.005" y="772" type="curve" smooth="yes"/>
      <point x="658.444" y="772"/>
      <point x="835.995" y="594.439"/>
      <point x="835.995" y="376" type="curve" smooth="yes"/>
      <point x="835.995" y="157.55"/>
      <point x="658.444" y="-20"/>
      <point x="440.005" y="-20" type="curve" smooth="yes"/>
      <point x="221.555" y="-20"/>
      <point x="44.0049" y="157.55"/>
      <point x="44.0049" y="376" type="curve" smooth="yes"/>
      <point x="44.0049" y="594.439"/>
      <point x="221.555" y="772"/>
    </contour>
    <contour>
      <point x="440.005" y="728" type="curve" smooth="yes"/>
      <point x="324.885" y="728"/>
      <point x="222.835" y="672.97"/>
      <point x="158.646" y="587.75" type="curve" smooth="no"/>
      <point x="721.364" y="587.75" type="line" smooth="no"/>
      <point x="657.175" y="672.97"/>
      <point x="555.114" y="728"/>
    </contour>
    <contour>
      <point x="741.944" y="557.189" type="curve" smooth="no"/>
      <point x="741.944" y="194.811" type="line" smooth="no"/>
      <point x="773.725" y="247.71"/>
      <point x="791.995" y="309.68"/>
      <point x="791.995" y="376" type="curve" smooth="yes"/>
      <point x="791.995" y="442.311"/>
      <point x="773.725" y="504.28"/>
    </contour>
    <contour>
      <point x="130.975" y="544.88" type="line" smooth="no"/>
      <point x="103.566" y="494.77"/>
      <point x="88.0049" y="437.24"/>
      <point x="88.0049" y="376" type="curve" smooth="yes"/>
      <point x="88.0049" y="314.75"/>
      <point x="103.566" y="257.22"/>
      <point x="130.975" y="207.12" type="curve" smooth="no"/>
    </contour>
    <contour>
      <point x="565.885" y="541.96" type="curve" smooth="yes"/>
      <point x="534.665" y="541.96"/>
      <point x="509.335" y="516.67"/>
      <point x="509.335" y="485.45" type="curve" smooth="yes"/>
      <point x="509.335" y="454.23"/>
      <point x="534.675" y="428.93"/>
      <point x="565.885" y="428.93" type="curve" smooth="yes"/>
      <point x="597.095" y="428.93"/>
      <point x="622.396" y="454.23"/>
      <point x="622.396" y="485.45" type="curve" smooth="yes"/>
      <point x="622.396" y="516.67"/>
      <point x="597.105" y="541.96"/>
    </contour>
    <contour>
      <point x="249.874" y="478.03" type="curve" smooth="yes"/>
      <point x="240.114" y="477.82"/>
      <point x="228.855" y="475.33"/>
      <point x="217.465" y="473.11" type="curve" smooth="yes"/>
      <point x="202.265" y="470.15"/>
      <point x="186.896" y="467.61"/>
      <point x="178.725" y="469.189" type="curve" smooth="yes"/>
      <point x="175.855" y="469.84"/>
      <point x="172.665" y="467.75"/>
      <point x="172.105" y="464.87" type="curve" smooth="yes"/>
      <point x="171.545" y="461.99"/>
      <point x="173.725" y="458.86"/>
      <point x="176.624" y="458.391" type="curve" smooth="yes"/>
      <point x="188.816" y="456.04"/>
      <point x="204.316" y="459.35"/>
      <point x="219.555" y="462.32" type="curve" smooth="yes"/>
      <point x="234.805" y="465.28"/>
      <point x="249.905" y="467.87"/>
      <point x="257.095" y="466.54" type="curve" smooth="yes"/>
      <point x="305.235" y="457.641"/>
      <point x="336.135" y="459.45"/>
      <point x="362.936" y="461.66" type="curve" smooth="yes"/>
      <point x="383.975" y="463.4"/>
      <point x="402.325" y="465.34"/>
      <point x="425.325" y="462.76" type="curve" smooth="no"/>
      <point x="425.265" y="462.439"/>
      <point x="425.194" y="462.12"/>
      <point x="425.155" y="461.8" type="curve" smooth="yes"/>
      <point x="410.715" y="374.689" type="line" smooth="yes"/>
      <point x="409.845" y="369.439"/>
      <point x="411.704" y="363.82"/>
      <point x="415.525" y="360.13" type="curve" smooth="yes"/>
      <point x="419.355" y="356.439"/>
      <point x="425.034" y="354.77"/>
      <point x="430.245" y="355.811" type="curve" smooth="yes"/>
      <point x="465.925" y="361.71" type="line" smooth="yes"/>
      <point x="478.885" y="364.33"/>
      <point x="481.085" y="362.391"/>
      <point x="481.085" y="347.38" type="curve" smooth="yes"/>
      <point x="481.085" y="164.93" type="line" smooth="no"/>
      <point x="158.124" y="164.93" type="line" smooth="no"/>
      <point x="222.284" y="79.3203"/>
      <point x="324.585" y="24"/>
      <point x="440.005" y="24" type="curve" smooth="yes"/>
      <point x="555.425" y="24"/>
      <point x="657.715" y="79.3203"/>
      <point x="721.874" y="164.93" type="curve" smooth="no"/>
      <point x="650.655" y="164.93" type="line" smooth="no"/>
      <point x="650.655" y="344.13" type="line" smooth="no"/>
      <point x="650.655" y="344.13"/>
      <point x="650.665" y="414.811"/>
      <point x="565.885" y="414.811" type="curve" smooth="yes"/>
      <point x="552.165" y="414.811"/>
      <point x="541.085" y="411.83"/>
      <point x="531.025" y="409.83" type="curve" smooth="yes"/>
      <point x="447.186" y="392.91" type="line" smooth="no"/>
      <point x="457.704" y="456.4" type="line" smooth="yes"/>
      <point x="458.595" y="461.27"/>
      <point x="457.135" y="466.52"/>
      <point x="453.864" y="470.24" type="curve" smooth="yes"/>
      <point x="450.585" y="473.97"/>
      <point x="445.566" y="476.08"/>
      <point x="440.624" y="475.83" type="curve" smooth="yes"/>
      <point x="437.624" y="475.65"/>
      <point x="434.675" y="474.641"/>
      <point x="432.204" y="472.93" type="curve" smooth="no"/>
      <point x="405.325" y="476.66"/>
      <point x="384.525" y="474.48"/>
      <point x="362.045" y="472.63" type="curve" smooth="yes"/>
      <point x="335.444" y="470.43"/>
      <point x="306.155" y="468.66"/>
      <point x="259.085" y="477.36" type="curve" smooth="yes"/>
      <point x="256.215" y="477.9"/>
      <point x="253.135" y="478.09"/>
    </contour>
  </outline>
</glyph>
<glyph name="uni0A97" format="1">
  <advance width="880"/>
  <unicode hex="0a97"/>
  <outline>
    <contour>
      <point x="440" y="770" type="curve" smooth="yes"/>
      <point x="658.449" y="770"/>
      <point x="836" y="592.439"/>
      <point x="836" y="374" type="curve" smooth="yes"/>
      <point x="836" y="155.55"/>
      <point x="658.449" y="-22"/>
      <point x="440" y="-22" type="curve" smooth="yes"/>
      <point x="221.57" y="-22"/>
      <point x="44" y="155.55"/>
      <point x="44" y="374" type="curve" smooth="yes"/>
      <point x="44" y="592.439"/>
      <point x="221.57" y="770"/>
    </contour>
    <contour>
      <point x="440" y="726" type="curve" smooth="yes"/>
      <point x="245.35" y="726"/>
      <point x="88" y="568.66"/>
      <point x="88" y="374" type="curve" smooth="yes"/>
      <point x="88" y="179.33"/>
      <point x="245.35" y="22"/>
      <point x="440" y="22" type="curve" smooth="yes"/>
      <point x="634.67" y="22"/>
      <point x="792" y="179.33"/>
      <point x="792" y="374" type="curve" smooth="yes"/>
      <point x="792" y="568.66"/>
      <point x="634.67" y="726"/>
    </contour>
    <contour>
      <point x="440.029" y="608.61" type="curve" smooth="yes"/>
      <point x="471.24" y="608.61"/>
      <point x="496.529" y="583.28"/>
      <point x="496.529" y="552.061" type="curve" smooth="yes"/>
      <point x="496.529" y="520.84"/>
      <point x="471.23" y="495.55"/>
      <point x="440.029" y="495.55" type="curve" smooth="yes"/>
      <point x="408.811" y="495.55"/>
      <point x="383.47" y="520.84"/>
      <point x="383.47" y="552.061" type="curve" smooth="yes"/>
      <point x="383.47" y="583.28"/>
      <point x="408.811" y="608.61"/>
    </contour>
    <contour>
      <point x="703.199" y="500.02" type="curve" smooth="yes"/>
      <point x="706.26" y="500.01"/>
      <point x="708.73" y="497.52"/>
      <point x="708.73" y="494.46" type="curve" smooth="yes"/>
      <point x="708.73" y="493.78"/>
      <point x="708.5" y="492.72"/>
      <point x="708.22" y="492.11" type="curve" smooth="yes"/>
      <point x="664.66" y="394.11" type="line" smooth="yes"/>
      <point x="664.35" y="393.41"/>
      <point x="663.609" y="392.48"/>
      <point x="663.01" y="392.01" type="curve" smooth="yes"/>
      <point x="682.029" y="392.01" type="line" smooth="yes"/>
      <point x="694.16" y="392.01"/>
      <point x="704.02" y="382.15"/>
      <point x="704.029" y="370.01" type="curve" smooth="yes"/>
      <point x="704.029" y="170.91" type="line" smooth="yes"/>
      <point x="704.029" y="170.6" type="line" smooth="yes"/>
      <point x="704.029" y="158.46"/>
      <point x="694.17" y="148.6"/>
      <point x="682.029" y="148.6" type="curve" smooth="yes"/>
      <point x="669.87" y="148.6"/>
      <point x="660.02" y="158.46"/>
      <point x="660.02" y="170.6" type="curve" smooth="yes"/>
      <point x="660.029" y="170.91" type="line" smooth="yes"/>
      <point x="660.029" y="273.141" type="line" smooth="no"/>
      <point x="220.029" y="273.141" type="line" smooth="no"/>
      <point x="220.029" y="170.91" type="line" smooth="yes"/>
      <point x="220.029" y="170.6" type="line" smooth="yes"/>
      <point x="220.029" y="158.46"/>
      <point x="210.17" y="148.6"/>
      <point x="198.029" y="148.6" type="curve" smooth="yes"/>
      <point x="185.87" y="148.6"/>
      <point x="176.02" y="158.46"/>
      <point x="176.02" y="170.6" type="curve" smooth="yes"/>
      <point x="176.02" y="170.689"/>
      <point x="176.02" y="170.82"/>
      <point x="176.029" y="170.91" type="curve" smooth="yes"/>
      <point x="176.029" y="370.01" type="line" smooth="yes"/>
      <point x="176.029" y="382.15"/>
      <point x="185.88" y="392.01"/>
      <point x="198.029" y="392.01" type="curve" smooth="yes"/>
      <point x="238.65" y="392.01" type="line" smooth="no"/>
      <point x="238.65" y="438.08" type="line" smooth="yes"/>
      <point x="238.65" y="441.11"/>
      <point x="241.109" y="443.58"/>
      <point x="244.15" y="443.58" type="curve" smooth="yes"/>
      <point x="246.07" y="443.58" type="line" smooth="no"/>
      <point x="240.02" y="470.25" type="line" smooth="yes"/>
      <point x="239.97" y="470.49"/>
      <point x="239.93" y="470.891"/>
      <point x="239.93" y="471.141" type="curve" smooth="yes"/>
      <point x="239.93" y="473.2"/>
      <point x="241.59" y="474.91"/>
      <point x="243.63" y="474.99" type="curve" smooth="yes"/>
      <point x="243.79" y="474.99" type="line" smooth="yes"/>
      <point x="245.51" y="474.99"/>
      <point x="247.21" y="473.63"/>
      <point x="247.561" y="471.93" type="curve" smooth="yes"/>
      <point x="253.949" y="443.58" type="line" smooth="no"/>
      <point x="256.52" y="443.58" type="line" smooth="no"/>
      <point x="254.63" y="472.48" type="line" smooth="yes"/>
      <point x="254.63" y="472.57"/>
      <point x="254.62" y="472.71"/>
      <point x="254.62" y="472.8" type="curve" smooth="yes"/>
      <point x="254.62" y="474.77"/>
      <point x="256.22" y="476.49"/>
      <point x="258.17" y="476.641" type="curve" smooth="yes"/>
      <point x="258.25" y="476.641"/>
      <point x="258.38" y="476.65"/>
      <point x="258.46" y="476.65" type="curve" smooth="yes"/>
      <point x="260.47" y="476.65"/>
      <point x="262.199" y="475.01"/>
      <point x="262.3" y="473" type="curve" smooth="yes"/>
      <point x="264.22" y="443.58" type="line" smooth="no"/>
      <point x="285.949" y="443.58" type="line" smooth="yes"/>
      <point x="288.98" y="443.58"/>
      <point x="291.449" y="441.11"/>
      <point x="291.449" y="438.08" type="curve" smooth="yes"/>
      <point x="291.449" y="392.01" type="line" smooth="no"/>
      <point x="355.22" y="392.01" type="line" smooth="no"/>
      <point x="355.22" y="410.77" type="line" smooth="no"/>
      <point x="355.22" y="410.77"/>
      <point x="355.24" y="481.41"/>
      <point x="440.029" y="481.41" type="curve" smooth="yes"/>
      <point x="524.8" y="481.41"/>
      <point x="524.79" y="410.77"/>
      <point x="524.79" y="410.77" type="curve" smooth="no"/>
      <point x="524.79" y="392.01" type="line" smooth="no"/>
      <point x="545.449" y="392.01" type="line" smooth="yes"/>
      <point x="544.29" y="392.93"/>
      <point x="543.35" y="394.88"/>
      <point x="543.35" y="396.36" type="curve" smooth="yes"/>
      <point x="543.35" y="399.42"/>
      <point x="545.84" y="401.92"/>
      <point x="548.9" y="401.92" type="curve" smooth="yes"/>
      <point x="548.97" y="401.92"/>
      <point x="549.07" y="401.91"/>
      <point x="549.12" y="401.91" type="curve" smooth="yes"/>
      <point x="656" y="401.91" type="line" smooth="no"/>
      <point x="698.08" y="496.62" type="line" smooth="yes"/>
      <point x="698.779" y="498.29"/>
      <point x="700.84" y="499.8"/>
      <point x="702.65" y="499.98" type="curve" smooth="yes"/>
      <point x="702.79" y="499.99"/>
      <point x="703.05" y="500.02"/>
    </contour>
  </outline>
</glyph>
<glyph name="uni0A98" format="1">
  <advance width="880"/>
  <unicode hex="0a98"/>
  <outline>
    <contour>
      <point x="440" y="772" type="curve" smooth="yes"/>
      <point x="658.43" y="772"/>
      <point x="836" y="594.439"/>
      <point x="836" y="376" type="curve" smooth="yes"/>
      <point x="836" y="157.55"/>
      <point x="658.43" y="-20"/>
      <point x="440" y="-20" type="curve" smooth="yes"/>
      <point x="221.551" y="-20"/>
      <point x="44" y="157.55"/>
      <point x="44" y="376" type="curve" smooth="yes"/>
      <point x="44" y="594.439"/>
      <point x="221.551" y="772"/>
    </contour>
    <contour>
      <point x="440" y="728" type="curve" smooth="yes"/>
      <point x="245.33" y="728"/>
      <point x="88" y="570.66"/>
      <point x="88" y="376" type="curve" smooth="yes"/>
      <point x="88" y="181.33"/>
      <point x="245.33" y="24"/>
      <point x="440" y="24" type="curve" smooth="yes"/>
      <point x="634.65" y="24"/>
      <point x="792" y="181.33"/>
      <point x="792" y="376" type="curve" smooth="yes"/>
      <point x="792" y="570.66"/>
      <point x="634.66" y="728"/>
    </contour>
    <contour>
      <point x="314.18" y="612.97" type="curve" smooth="yes"/>
      <point x="321.061" y="613.11"/>
      <point x="327.95" y="610.54"/>
      <point x="333.08" y="605.939" type="curve" smooth="yes"/>
      <point x="338.189" y="601.35"/>
      <point x="341.48" y="594.77"/>
      <point x="342.1" y="587.91" type="curve" smooth="yes"/>
      <point x="358.87" y="373.01" type="line" smooth="no"/>
      <point x="565.189" y="373.01" type="line" smooth="yes"/>
      <point x="572.38" y="373.01"/>
      <point x="579.54" y="370.04"/>
      <point x="584.641" y="364.95" type="curve" smooth="yes"/>
      <point x="589.721" y="359.86"/>
      <point x="592.689" y="352.7"/>
      <point x="592.689" y="345.51" type="curve" smooth="yes"/>
      <point x="592.689" y="152.62" type="line" smooth="yes"/>
      <point x="592.79" y="145.36"/>
      <point x="589.87" y="138.1"/>
      <point x="584.77" y="132.93" type="curve" smooth="yes"/>
      <point x="579.68" y="127.75"/>
      <point x="572.45" y="124.74"/>
      <point x="565.189" y="124.74" type="curve" smooth="yes"/>
      <point x="557.92" y="124.74"/>
      <point x="550.7" y="127.75"/>
      <point x="545.61" y="132.93" type="curve" smooth="yes"/>
      <point x="540.5" y="138.1"/>
      <point x="537.59" y="145.36"/>
      <point x="537.689" y="152.62" type="curve" smooth="yes"/>
      <point x="537.689" y="318.01" type="line" smooth="no"/>
      <point x="363.189" y="318.01" type="line" smooth="no"/>
      <point x="368.689" y="152.62" type="line" smooth="yes"/>
      <point x="368.801" y="145.36"/>
      <point x="365.891" y="138.1"/>
      <point x="360.79" y="132.93" type="curve" smooth="yes"/>
      <point x="355.68" y="127.75"/>
      <point x="348.46" y="124.74"/>
      <point x="341.189" y="124.74" type="curve" smooth="yes"/>
      <point x="333.93" y="124.74"/>
      <point x="326.721" y="127.75"/>
      <point x="321.61" y="132.93" type="curve" smooth="yes"/>
      <point x="316.51" y="138.1"/>
      <point x="313.6" y="145.36"/>
      <point x="313.689" y="152.62" type="curve" smooth="yes"/>
      <point x="313.689" y="328.46" type="line" smooth="no"/>
      <point x="287.4" y="582.25" type="line" smooth="yes"/>
      <point x="286.5" y="589.84"/>
      <point x="288.95" y="597.78"/>
      <point x="293.98" y="603.55" type="curve" smooth="yes"/>
      <point x="299.01" y="609.32"/>
      <point x="306.53" y="612.83"/>
    </contour>
  </outline>
</glyph>
<glyph name="uni0A99" format="1">
  <advance width="880"/>
  <unicode hex="0a99"/>
  <outline>
    <contour>
      <point x="440" y="770" type="curve" smooth="yes"/>
      <point x="658.439" y="770"/>
      <point x="836" y="592.439"/>
      <point x="836" y="374" type="curve" smooth="yes"/>
      <point x="836" y="155.55"/>
      <point x="658.439" y="-22"/>
      <point x="440" y="-22" type="curve" smooth="yes"/>
      <point x="221.561" y="-22"/>
      <point x="44" y="155.55"/>
      <point x="44" y="374" type="curve" smooth="yes"/>
      <point x="44" y="592.439"/>
      <point x="221.561" y="770"/>
    </contour>
    <contour>
      <point x="440" y="726" type="curve" smooth="yes"/>
      <point x="245.34" y="726"/>
      <point x="88" y="568.66"/>
      <point x="88" y="374" type="curve" smooth="yes"/>
      <point x="88" y="179.33"/>
      <point x="245.34" y="22"/>
      <point x="440" y="22" type="curve" smooth="yes"/>
      <point x="634.66" y="22"/>
      <point x="792" y="179.33"/>
      <point x="792" y="374" type="curve" smooth="yes"/>
      <point x="792" y="568.66"/>
      <point x="634.66" y="726"/>
    </contour>
    <contour>
      <point x="288.62" y="639.811" type="curve" smooth="yes"/>
      <point x="296.311" y="639.97"/>
      <point x="303.95" y="635.76"/>
      <point x="307.91" y="629.16" type="curve" smooth="yes"/>
      <point x="311.881" y="622.57"/>
      <point x="312.02" y="613.86"/>
      <point x="308.28" y="607.12" type="curve" smooth="yes"/>
      <point x="300.99" y="593.58"/>
      <point x="308.49" y="562.38"/>
      <point x="308.49" y="562.38" type="curve" smooth="no"/>
      <point x="310.59" y="556.9"/>
      <point x="310.37" y="550.58"/>
      <point x="307.92" y="545.26" type="curve" smooth="yes"/>
      <point x="305.45" y="539.95"/>
      <point x="300.78" y="535.689"/>
      <point x="295.26" y="533.74" type="curve" smooth="yes"/>
      <point x="289.721" y="531.8"/>
      <point x="283.42" y="532.18"/>
      <point x="278.16" y="534.79" type="curve" smooth="yes"/>
      <point x="272.91" y="537.391"/>
      <point x="268.79" y="542.18"/>
      <point x="267" y="547.77" type="curve" smooth="no"/>
      <point x="267" y="547.77"/>
      <point x="248.78" y="589.47"/>
      <point x="269.54" y="627.99" type="curve" smooth="yes"/>
      <point x="273.17" y="634.95"/>
      <point x="280.77" y="639.66"/>
    </contour>
    <contour>
      <point x="298.45" y="527.18" type="curve" smooth="yes"/>
      <point x="303.4" y="527.061"/>
      <point x="308.24" y="524.61"/>
      <point x="311.24" y="520.68" type="curve" smooth="yes"/>
      <point x="328.77" y="498.29"/>
      <point x="338.54" y="465.1"/>
      <point x="341.801" y="429.28" type="curve" smooth="yes"/>
      <point x="345.051" y="393.439"/>
      <point x="341.34" y="355.01"/>
      <point x="326.43" y="323.16" type="curve" smooth="yes"/>
      <point x="324.689" y="319.1"/>
      <point x="321.26" y="315.811"/>
      <point x="317.141" y="314.24" type="curve" smooth="yes"/>
      <point x="313.02" y="312.68"/>
      <point x="308.26" y="312.85"/>
      <point x="304.26" y="314.72" type="curve" smooth="yes"/>
      <point x="300.27" y="316.59"/>
      <point x="297.09" y="320.13"/>
      <point x="295.66" y="324.3" type="curve" smooth="yes"/>
      <point x="294.23" y="328.47"/>
      <point x="294.561" y="333.21"/>
      <point x="296.57" y="337.15" type="curve" smooth="yes"/>
      <point x="307.9" y="361.37"/>
      <point x="311.78" y="395.05"/>
      <point x="308.939" y="426.32" type="curve" smooth="yes"/>
      <point x="306.09" y="457.58"/>
      <point x="296.07" y="486.52"/>
      <point x="285.25" y="500.33" type="curve" smooth="yes"/>
      <point x="281.34" y="505.189"/>
      <point x="280.54" y="512.35"/>
      <point x="283.301" y="517.96" type="curve" smooth="yes"/>
      <point x="286.051" y="523.561"/>
      <point x="292.21" y="527.311"/>
    </contour>
    <contour>
      <point x="452.221" y="400.32" type="curve" smooth="yes"/>
      <point x="494.65" y="400.43"/>
      <point x="524.46" y="403.73"/>
      <point x="524.46" y="403.73" type="curve" smooth="yes"/>
      <point x="528.74" y="403.1"/>
      <point x="532.721" y="400.71"/>
      <point x="535.301" y="397.23" type="curve" smooth="yes"/>
      <point x="537.87" y="393.77"/>
      <point x="539" y="389.26"/>
      <point x="538.37" y="384.98" type="curve" smooth="yes"/>
      <point x="537.74" y="380.7"/>
      <point x="535.34" y="376.72"/>
      <point x="531.881" y="374.141" type="curve" smooth="yes"/>
      <point x="528.4" y="371.57"/>
      <point x="523.891" y="370.439"/>
      <point x="519.61" y="371.08" type="curve" smooth="yes"/>
      <point x="519.61" y="371.08"/>
      <point x="493.91" y="374.9"/>
      <point x="455.58" y="375.02" type="curve" smooth="no"/>
      <point x="456.02" y="331.1" type="line" smooth="no"/>
      <point x="505.11" y="329.8"/>
      <point x="553.82" y="319.57"/>
      <point x="601.461" y="303.6" type="curve" smooth="yes"/>
      <point x="608.34" y="301.35"/>
      <point x="614.24" y="296.26"/>
      <point x="617.49" y="289.811" type="curve" smooth="yes"/>
      <point x="620.75" y="283.34"/>
      <point x="621.301" y="275.561"/>
      <point x="618.99" y="268.71" type="curve" smooth="yes"/>
      <point x="616.689" y="261.84"/>
      <point x="611.561" y="255.98"/>
      <point x="605.07" y="252.78" type="curve" smooth="yes"/>
      <point x="598.58" y="249.59"/>
      <point x="590.82" y="249.1"/>
      <point x="583.96" y="251.45" type="curve" smooth="yes"/>
      <point x="559.5" y="259.65"/>
      <point x="535.36" y="266.11"/>
      <point x="511.439" y="270.43" type="curve" smooth="no"/>
      <point x="511.439" y="253.93" type="line" smooth="no"/>
      <point x="456.85" y="253.93" type="line" smooth="no"/>
      <point x="457.23" y="217.11" type="line" smooth="no"/>
      <point x="533.67" y="215.12"/>
      <point x="584.141" y="182.8"/>
      <point x="584.141" y="182.8" type="curve" smooth="no"/>
      <point x="587.78" y="180.47"/>
      <point x="590.43" y="176.65"/>
      <point x="591.34" y="172.43" type="curve" smooth="yes"/>
      <point x="592.27" y="168.2"/>
      <point x="591.439" y="163.641"/>
      <point x="589.11" y="160" type="curve" smooth="yes"/>
      <point x="586.77" y="156.36"/>
      <point x="582.95" y="153.7"/>
      <point x="578.73" y="152.79" type="curve" smooth="yes"/>
      <point x="574.51" y="151.87"/>
      <point x="569.939" y="152.689"/>
      <point x="566.301" y="155.02" type="curve" smooth="no"/>
      <point x="566.301" y="155.02"/>
      <point x="523.09" y="188.811"/>
      <point x="450.75" y="189.4" type="curve" smooth="yes"/>
      <point x="378.41" y="189.99"/>
      <point x="333.34" y="155.02"/>
      <point x="333.34" y="155.02" type="curve" smooth="no"/>
      <point x="329.71" y="152.689"/>
      <point x="325.131" y="151.87"/>
      <point x="320.91" y="152.79" type="curve" smooth="yes"/>
      <point x="316.68" y="153.7"/>
      <point x="312.87" y="156.35"/>
      <point x="310.54" y="160" type="curve" smooth="yes"/>
      <point x="308.189" y="163.63"/>
      <point x="307.37" y="168.2"/>
      <point x="308.29" y="172.43" type="curve" smooth="yes"/>
      <point x="309.221" y="176.65"/>
      <point x="311.87" y="180.47"/>
      <point x="315.5" y="182.8" type="curve" smooth="no"/>
      <point x="315.5" y="182.8"/>
      <point x="367.7" y="216.17"/>
      <point x="446.23" y="217.17" type="curve" smooth="no"/>
      <point x="445.85" y="253.93" type="line" smooth="no"/>
      <point x="390.439" y="253.93" type="line" smooth="no"/>
      <point x="390.439" y="271.7" type="line" smooth="no"/>
      <point x="368.5" y="267.77"/>
      <point x="346.58" y="261.391"/>
      <point x="324.6" y="252.18" type="curve" smooth="yes"/>
      <point x="317.939" y="249.16"/>
      <point x="310.04" y="248.98"/>
      <point x="303.23" y="251.66" type="curve" smooth="yes"/>
      <point x="296.42" y="254.34"/>
      <point x="290.78" y="259.85"/>
      <point x="287.95" y="266.61" type="curve" smooth="yes"/>
      <point x="285.12" y="273.35"/>
      <point x="285.141" y="281.25"/>
      <point x="288" y="287.98" type="curve" smooth="yes"/>
      <point x="290.86" y="294.72"/>
      <point x="296.51" y="300.22"/>
      <point x="303.33" y="302.88" type="curve" smooth="yes"/>
      <point x="350.53" y="322.689"/>
      <point x="397.939" y="331.18"/>
      <point x="445.02" y="331.23" type="curve" smooth="no"/>
      <point x="444.58" y="374.96" type="line" smooth="no"/>
      <point x="409.131" y="374.41"/>
      <point x="388.45" y="370.8"/>
      <point x="388.45" y="370.8" type="curve" smooth="yes"/>
      <point x="384.15" y="369.98"/>
      <point x="379.551" y="370.95"/>
      <point x="375.95" y="373.439" type="curve" smooth="yes"/>
      <point x="372.37" y="375.93"/>
      <point x="369.82" y="379.9"/>
      <point x="369.09" y="384.21" type="curve" smooth="yes"/>
      <point x="368.34" y="388.51"/>
      <point x="369.41" y="393.1"/>
      <point x="371.96" y="396.65" type="curve" smooth="yes"/>
      <point x="374.51" y="400.189"/>
      <point x="378.51" y="402.65"/>
      <point x="382.84" y="403.311" type="curve" smooth="yes"/>
      <point x="382.84" y="403.311"/>
      <point x="409.77" y="400.23"/>
    </contour>
    <contour>
      <point x="339.84" y="122.11" type="curve" smooth="yes"/>
      <point x="339.84" y="110.57"/>
      <point x="330.49" y="101.21"/>
      <point x="318.939" y="101.21" type="curve" smooth="yes"/>
      <point x="307.4" y="101.21"/>
      <point x="298.04" y="110.57"/>
      <point x="298.04" y="122.11" type="curve" smooth="yes"/>
      <point x="298.04" y="133.65"/>
      <point x="307.4" y="143.01"/>
      <point x="318.939" y="143.01" type="curve" smooth="yes"/>
      <point x="330.49" y="143.01"/>
      <point x="339.84" y="133.65"/>
    </contour>
    <contour>
      <point x="606.041" y="122.11" type="curve" smooth="yes"/>
      <point x="606.041" y="110.57"/>
      <point x="596.689" y="101.21"/>
      <point x="585.141" y="101.21" type="curve" smooth="yes"/>
      <point x="573.6" y="101.21"/>
      <point x="564.24" y="110.57"/>
      <point x="564.24" y="122.11" type="curve" smooth="yes"/>
      <point x="564.24" y="133.65"/>
      <point x="573.6" y="143.01"/>
      <point x="585.141" y="143.01" type="curve" smooth="yes"/>
      <point x="596.689" y="143.01"/>
      <point x="606.041" y="133.65"/>
    </contour>
  </outline>
</glyph>
<glyph name="uni0A9A" format="1">
  <advance width="880"/>
  <unicode hex="0a9a"/>
  <outline>
    <contour>
      <point x="440.005" y="772" type="curve" smooth="yes"/>
      <point x="658.444" y="772"/>
      <point x="835.995" y="594.431"/>
      <point x="835.995" y="376" type="curve" smooth="yes"/>
      <point x="835.995" y="157.551"/>
      <point x="658.444" y="-20"/>
      <point x="440.005" y="-20" type="curve" smooth="yes"/>
      <point x="221.555" y="-20"/>
      <point x="44.0049" y="157.551"/>
      <point x="44.0049" y="376" type="curve" smooth="yes"/>
      <point x="44.0049" y="594.431"/>
      <point x="221.555" y="772"/>
    </contour>
    <contour>
      <point x="440.005" y="728" type="curve" smooth="yes"/>
      <point x="245.335" y="728"/>
      <point x="88.0049" y="570.65"/>
      <point x="88.0049" y="376" type="curve" smooth="yes"/>
      <point x="88.0049" y="181.33"/>
      <point x="245.335" y="24"/>
      <point x="440.005" y="24" type="curve" smooth="yes"/>
      <point x="634.675" y="24"/>
      <point x="791.995" y="181.33"/>
      <point x="791.995" y="376" type="curve" smooth="yes"/>
      <point x="791.995" y="570.65"/>
      <point x="634.675" y="728"/>
    </contour>
    <contour>
      <point x="280.715" y="482.42" type="curve" smooth="yes"/>
      <point x="332.325" y="482.42"/>
      <point x="375.285" y="448.2"/>
      <point x="384.995" y="399.44" type="curve" smooth="no"/>
      <point x="685.025" y="399.44" type="line" smooth="yes"/>
      <point x="691.315" y="399.511"/>
      <point x="697.565" y="396.601"/>
      <point x="701.525" y="391.73" type="curve" smooth="yes"/>
      <point x="705.495" y="386.851"/>
      <point x="705.705" y="381.24"/>
      <point x="705.705" y="374" type="curve" smooth="yes"/>
      <point x="705.705" y="310.17" type="line" smooth="yes"/>
      <point x="705.705" y="307.551"/>
      <point x="703.325" y="305.17"/>
      <point x="700.705" y="305.17" type="curve" smooth="yes"/>
      <point x="677.315" y="305.17" type="line" smooth="yes"/>
      <point x="675.375" y="305.17"/>
      <point x="673.465" y="306.42"/>
      <point x="672.705" y="308.211" type="curve" smooth="yes"/>
      <point x="665.396" y="325.49" type="line" smooth="no"/>
      <point x="645.875" y="325.49" type="line" smooth="no"/>
      <point x="640.535" y="308.65" type="line" smooth="yes"/>
      <point x="639.885" y="306.641"/>
      <point x="637.855" y="305.17"/>
      <point x="635.734" y="305.17" type="curve" smooth="yes"/>
      <point x="630.205" y="305.17" type="line" smooth="yes"/>
      <point x="628.365" y="305.16"/>
      <point x="626.565" y="306.271"/>
      <point x="625.725" y="307.91" type="curve" smooth="yes"/>
      <point x="616.925" y="325.49" type="line" smooth="no"/>
      <point x="612.925" y="325.49" type="line" smooth="no"/>
      <point x="606.436" y="308.391" type="line" smooth="yes"/>
      <point x="605.715" y="306.5"/>
      <point x="603.755" y="305.141"/>
      <point x="601.734" y="305.17" type="curve" smooth="yes"/>
      <point x="588.715" y="305.17" type="line" smooth="yes"/>
      <point x="586.095" y="305.17"/>
      <point x="583.705" y="307.551"/>
      <point x="583.705" y="310.17" type="curve" smooth="yes"/>
      <point x="583.705" y="352.58" type="line" smooth="no"/>
      <point x="384.995" y="352.58" type="line" smooth="no"/>
      <point x="375.285" y="303.811"/>
      <point x="332.325" y="269.59"/>
      <point x="280.715" y="269.59" type="curve" smooth="yes"/>
      <point x="221.944" y="269.59"/>
      <point x="174.285" y="317.24"/>
      <point x="174.285" y="376.011" type="curve" smooth="yes"/>
      <point x="174.285" y="434.771"/>
      <point x="221.944" y="482.42"/>
    </contour>
    <contour>
      <point x="223.955" y="398.78" type="curve" smooth="yes"/>
      <point x="211.436" y="398.78"/>
      <point x="201.315" y="388.61"/>
      <point x="201.315" y="376.09" type="curve" smooth="yes"/>
      <point x="201.315" y="363.58"/>
      <point x="211.436" y="353.461"/>
      <point x="223.955" y="353.461" type="curve" smooth="yes"/>
      <point x="236.475" y="353.461"/>
      <point x="246.635" y="363.58"/>
      <point x="246.635" y="376.09" type="curve" smooth="yes"/>
      <point x="246.635" y="388.61"/>
      <point x="236.475" y="398.78"/>
    </contour>
  </outline>
</glyph>
<glyph name="uni0A9B" format="1">
  <advance width="880"/>
  <unicode hex="0a9b"/>
  <outline>
    <contour>
      <point x="440.005" y="770" type="curve" smooth="yes"/>
      <point x="658.495" y="770"/>
      <point x="835.995" y="592.431"/>
      <point x="835.995" y="374" type="curve" smooth="yes"/>
      <point x="835.995" y="155.551"/>
      <point x="658.495" y="-22"/>
      <point x="440.005" y="-22" type="curve" smooth="yes"/>
      <point x="221.605" y="-22"/>
      <point x="44.0049" y="155.551"/>
      <point x="44.0049" y="374" type="curve" smooth="yes"/>
      <point x="44.0049" y="592.431"/>
      <point x="221.605" y="770"/>
    </contour>
    <contour>
      <point x="440.005" y="726" type="curve" smooth="yes"/>
      <point x="245.404" y="726"/>
      <point x="88.0049" y="568.65"/>
      <point x="88.0049" y="374" type="curve" smooth="yes"/>
      <point x="88.0049" y="179.33"/>
      <point x="245.404" y="22"/>
      <point x="440.005" y="22" type="curve" smooth="yes"/>
      <point x="634.694" y="22"/>
      <point x="791.995" y="179.33"/>
      <point x="791.995" y="374" type="curve" smooth="yes"/>
      <point x="791.995" y="568.65"/>
      <point x="634.694" y="726"/>
    </contour>
    <contour>
      <point x="309.105" y="401.681" type="curve" smooth="yes"/>
      <point x="532.305" y="401.681" type="line" smooth="yes"/>
      <point x="539.105" y="401.681"/>
      <point x="545.805" y="398.91"/>
      <point x="550.505" y="394.15" type="curve" smooth="yes"/>
      <point x="555.305" y="389.37"/>
      <point x="558.105" y="382.681"/>
      <point x="558.105" y="375.94" type="curve" smooth="yes"/>
      <point x="558.105" y="371.461" type="line" smooth="no"/>
      <point x="565.705" y="373.931"/>
      <point x="573.805" y="375.23"/>
      <point x="582.205" y="375.23" type="curve" smooth="yes"/>
      <point x="623.396" y="375.23"/>
      <point x="659.795" y="341.86"/>
      <point x="659.795" y="297.301" type="curve" smooth="yes"/>
      <point x="659.694" y="252.75"/>
      <point x="623.396" y="219.36"/>
      <point x="582.205" y="219.36" type="curve" smooth="yes"/>
      <point x="573.805" y="219.36"/>
      <point x="565.705" y="220.73"/>
      <point x="558.105" y="223.25" type="curve" smooth="no"/>
      <point x="558.105" y="164.08" type="line" smooth="yes"/>
      <point x="558.105" y="157.351"/>
      <point x="555.305" y="150.65"/>
      <point x="550.505" y="145.881" type="curve" smooth="yes"/>
      <point x="545.805" y="141.11"/>
      <point x="539.105" y="138.34"/>
      <point x="532.305" y="138.34" type="curve" smooth="yes"/>
      <point x="309.105" y="138.34" type="line" smooth="yes"/>
      <point x="302.305" y="138.34"/>
      <point x="295.605" y="141.11"/>
      <point x="290.904" y="145.881" type="curve" smooth="yes"/>
      <point x="286.105" y="150.65"/>
      <point x="283.305" y="157.351"/>
      <point x="283.305" y="164.08" type="curve" smooth="yes"/>
      <point x="283.305" y="375.94" type="line" smooth="yes"/>
      <point x="283.305" y="382.681"/>
      <point x="286.105" y="389.37"/>
      <point x="290.904" y="394.15" type="curve" smooth="yes"/>
      <point x="295.605" y="398.91"/>
      <point x="302.305" y="401.681"/>
    </contour>
    <contour>
      <point x="582.205" y="336.041" type="curve" smooth="yes"/>
      <point x="572.904" y="336.041"/>
      <point x="564.605" y="333.12"/>
      <point x="558.105" y="328.601" type="curve" smooth="no"/>
      <point x="558.105" y="265.9" type="line" smooth="no"/>
      <point x="564.605" y="261.391"/>
      <point x="572.805" y="258.61"/>
      <point x="582.205" y="258.61" type="curve" smooth="yes"/>
      <point x="605.595" y="258.61"/>
      <point x="621.694" y="273.82"/>
      <point x="621.694" y="297.301" type="curve" smooth="yes"/>
      <point x="621.694" y="320.801"/>
      <point x="605.595" y="336.041"/>
    </contour>
    <contour>
      <point x="432.305" y="415.311" type="curve" smooth="yes"/>
      <point x="417.805" y="420.16"/>
      <point x="437.705" y="431.49"/>
      <point x="426.904" y="453.051" type="curve" smooth="yes"/>
      <point x="416.105" y="474.62"/>
      <point x="317.404" y="490.65"/>
      <point x="378.404" y="522.311" type="curve" smooth="yes"/>
      <point x="430.805" y="549.521"/>
      <point x="453.105" y="553.99"/>
      <point x="422.205" y="571.92" type="curve" smooth="yes"/>
      <point x="391.305" y="589.851"/>
      <point x="331.105" y="578.4"/>
      <point x="316.205" y="585.461" type="curve" smooth="yes"/>
      <point x="301.305" y="592.521"/>
      <point x="317.505" y="617.83"/>
      <point x="392.705" y="617.83" type="curve" smooth="yes"/>
      <point x="467.904" y="617.83"/>
      <point x="530.105" y="585.471"/>
      <point x="496.205" y="538.541" type="curve" smooth="yes"/>
      <point x="475.505" y="509.98"/>
      <point x="394.605" y="510.141"/>
      <point x="432.305" y="480.011" type="curve" smooth="yes"/>
      <point x="459.305" y="458.44"/>
      <point x="446.904" y="410.461"/>
    </contour>
  </outline>
</glyph>
<glyph name="uni0A9C" format="1">
  <advance width="880"/>
  <unicode hex="0a9c"/>
  <outline>
    <contour>
      <point x="440.002" y="770" type="curve" smooth="yes"/>
      <point x="658.447" y="770"/>
      <point x="836.002" y="592.444"/>
      <point x="836.002" y="374" type="curve" smooth="yes"/>
      <point x="836.002" y="155.556"/>
      <point x="658.447" y="-22"/>
      <point x="440.002" y="-22" type="curve" smooth="yes"/>
      <point x="221.558" y="-22"/>
      <point x="43.998" y="155.556"/>
      <point x="43.998" y="374" type="curve" smooth="yes"/>
      <point x="43.998" y="592.444"/>
      <point x="221.558" y="770"/>
    </contour>
    <contour>
      <point x="440.002" y="726" type="curve" smooth="yes"/>
      <point x="245.338" y="726"/>
      <point x="87.998" y="568.665"/>
      <point x="87.998" y="374" type="curve" smooth="yes"/>
      <point x="87.998" y="179.335"/>
      <point x="245.338" y="22"/>
      <point x="440.002" y="22" type="curve" smooth="yes"/>
      <point x="634.667" y="22"/>
      <point x="792.002" y="179.335"/>
      <point x="792.002" y="374" type="curve" smooth="yes"/>
      <point x="792.002" y="568.665"/>
      <point x="634.667" y="726"/>
    </contour>
    <contour>
      <point x="352" y="632" type="curve" smooth="yes"/>
      <point x="352.265" y="632" type="line" smooth="yes"/>
      <point x="361.979" y="632"/>
      <point x="369.864" y="624.115"/>
      <point x="369.864" y="614.399" type="curve" smooth="yes"/>
      <point x="369.864" y="614.151" type="line" smooth="yes"/>
      <point x="369.838" y="578.224" type="line" smooth="no"/>
      <point x="486.289" y="588.066"/>
      <point x="661.865" y="577.731"/>
      <point x="681.767" y="434.189" type="curve" smooth="yes"/>
      <point x="708.205" y="243.498"/>
      <point x="423.393" y="284.616"/>
      <point x="366.062" y="238.755" type="curve" smooth="yes"/>
      <point x="308.737" y="192.894"/>
      <point x="317.778" y="113.365"/>
      <point x="322.179" y="88.9355" type="curve" smooth="yes"/>
      <point x="323.104" y="84.9199"/>
      <point x="321.809" y="84.3252"/>
      <point x="319.407" y="87.6641" type="curve" smooth="yes"/>
      <point x="308.119" y="105.207"/>
      <point x="280.513" y="159.515"/>
      <point x="311.396" y="234.654" type="curve" smooth="yes"/>
      <point x="317.011" y="248.316"/>
      <point x="325.04" y="259.975"/>
      <point x="334.406" y="270.592" type="curve" smooth="no"/>
      <point x="334.615" y="555.312" type="line" smooth="no"/>
      <point x="313.509" y="559.31"/>
      <point x="294.174" y="559.851"/>
      <point x="281.912" y="559.551" type="curve" smooth="yes"/>
      <point x="260.597" y="557.797"/>
      <point x="269.269" y="563.472"/>
      <point x="281.834" y="565.999" type="curve" smooth="yes"/>
      <point x="293.868" y="568.409"/>
      <point x="312.24" y="571.648"/>
      <point x="334.63" y="574.494" type="curve" smooth="no"/>
      <point x="334.659" y="614.151" type="line" smooth="yes"/>
      <point x="334.659" y="614.399" type="line" smooth="yes"/>
      <point x="334.659" y="623.972"/>
      <point x="342.428" y="631.856"/>
    </contour>
    <contour>
      <point x="369.812" y="545.281" type="curve" smooth="no"/>
      <point x="369.635" y="303.904" type="line" smooth="no"/>
      <point x="406.775" y="335.915"/>
      <point x="445.32" y="368.41"/>
      <point x="443.965" y="438.29" type="curve" smooth="yes"/>
      <point x="442.781" y="499.336"/>
      <point x="408.065" y="530.062"/>
    </contour>
  </outline>
</glyph>
